/* XPM */
static char * start_xpm[] = {
"57 24 9 1",
" 	c #D4D0C8",
".	c #FFFFFF",
"+	c #404040",
"@	c #808080",
"#	c #000000",
"$	c #FF0000",
"%	c #00FF00",
"&	c #0000FF",
"*	c #FFFF00",
"                                                         ",
" ......................................................+ ",
" .                                                    @+ ",
" .                                                    @+ ",
" .                                                    @+ ",
" .            ####                                    @+ ",
" .          ########                                  @+ ",
" .   #     ###$##%###                                 @+ ",
" .   # # ####$$##%%##   ##### ##               ##     @+ ",
" .     ######$$##%%##  ##     ##               ##     @+ ",
" .   $     ##$####%##  ##     ####  ####  ## # ####   @+ ",
" .   $ $ $$##########  #####  ##       ## #### ##     @+ ",
" .     $$$$###&##*###   ##### ##    ##### ##   ##     @+ ",
" .   &     ##&&##**##      ## ##   ##  ## ##   ##     @+ ",
" .   & & &&##&&##**##      ## ##   ##  ## ##   ##     @+ ",
" .     &&&&##&####*##  #####   ###  ##### ##    ###   @+ ",
" .   #     ##########                                 @+ ",
" .   # # #####    ###                                 @+ ",
" .     #####        #                                 @+ ",
" .                                                    @+ ",
" .                                                    @+ ",
" .@@@@@@@@@@@@@@@@@@@@@@@@@@@@@@@@@@@@@@@@@@@@@@@@@@@@@+ ",
" +++++++++++++++++++++++++++++++++++++++++++++++++++++++ ",
"                                                         "};
