/* XPM */
static char * bottom_left_active_xpm[] = {
"12 12 6 1",
" 	c None",
".	c #FF00FF",
"+	c #FFFF00",
"@	c #C0C0C0",
"#	c #808080",
"$	c #000000",
".+.@        ",
".+.@        ",
".+.@        ",
".+.@        ",
".+.@        ",
".+.@        ",
".+.@        ",
".+.@        ",
".+.@@@@@@@@@",
".+..........",
".###########",
"$$$$$$$$$$$$"};
