/* XPM */
static char * top_left_active_xpm[] = {
"4 24 4 1",
" 	c None",
".	c #FFFFFF",
"+	c #DFDFDF",
"@	c #C0C0C0",
"....",
".+++",
".+@@",
".+@ ",
".+@ ",
".+@ ",
".+@ ",
".+@ ",
".+@ ",
".+@ ",
".+@ ",
".+@ ",
".+@ ",
".+@ ",
".+@ ",
".+@ ",
".+@ ",
".+@ ",
".+@ ",
".+@ ",
".+@ ",
".+@ ",
".+@ ",
".+@ "};
