/* XPM */
static char * closeA_xpm[] = {
"19 40 8 1",
" 	c #AABAE7",
".	c #A64CCD",
"+	c #C19BD2",
"@	c #EDEBF7",
"#	c #000000",
"$	c #FFFFFF",
"%	c #9E9CA4",
"&	c #434C5E",
"                   ",
"                   ",
"  ..............   ",
"  ..++++++++++..   ",
"  .+.++++++++.+.   ",
"  .++.++++++.++.   ",
"  .+++.++++.+++.   ",
"  .++++.++.++++.   ",
"  .+++++..+++++.   ",
"  .+++++..+++++.   ",
"  .++++.++.++++.   ",
"  .+++.++++.+++.   ",
"  .++.++++++.++.   ",
"  .+.++++++++.+.   ",
"  ..++++++++++..   ",
"  ..............   ",
"                   ",
"                   ",
"@@@@@@@@@@@@@@@@@@@",
"@@@@@@@@@@@@@@@@@@@",
"                   ",
"                   ",
" ###############$  ",
" #%%%%%%%%%%%%%@$  ",
" #%@@@@@@@@@@@@@$  ",
" #%@@@@@@@@@@@@@$  ",
" #%@@@&&@@@@&&@@$  ",
" #%@@@@&&@@&&@@@$  ",
" #%@@@@@&&&&@@@@$  ",
" #%@@@@@@&&@@@@@$  ",
" #%@@@@@&&&&@@@@$  ",
" #%@@@@&&@@&&@@@$  ",
" #%@@@&&@@@@&&@@$  ",
" #%@@@@@@@@@@@@@$  ",
" #@@@@@@@@@@@@@@$  ",
" $$$$$$$$$$$$$$$$  ",
"                   ",
"                   ",
"@@@@@@@@@@@@@@@@@@@",
"@@@@@@@@@@@@@@@@@@@"};
