/* XPM */
static char * hideI_xpm[] = {
"17 40 6 1",
" 	c #4C566A",
".	c #FFFFFF",
"+	c #000000",
"@	c #EDEBF7",
"#	c #9E9CA4",
"$	c #434C5E",
"                 ",
"                 ",
" ...............+",
" .@@@@@@@@@@@@@#+",
" .@@@@@@@@@@@@@#+",
" .@@@@@@@@@@@@@#+",
" .@@@@@@@@@@@@@#+",
" .@@@@@@@@@@@@@#+",
" .@@@@@@@@@@@@@#+",
" .@@@@@@@@@@@@@#+",
" .@@@@@@@@@@@@@#+",
" .@@@@@@@@$$$@@#+",
" .@@@@@@@@$$$@@#+",
" .@@@@@@@@@@@@@#+",
" .##############+",
" ++++++++++++++++",
"                 ",
"                 ",
"@@@@@@@@@@@@@@@@@",
"@@@@@@@@@@@@@@@@@",
"                 ",
"                 ",
" +++++++++++++++.",
" +#############@.",
" +#@@@@@@@@@@@@@.",
" +#@@@@@@@@@@@@@.",
" +#@@@@@@@@@@@@@.",
" +#@@@@@@@@@@@@@.",
" +#@@@@@@@@@@@@@.",
" +#@@@@@@@@@@@@@.",
" +#@@@@@@@@@@@@@.",
" +#@@@@@@@@@@@@@.",
" +#@@@@@@@@$$$@@.",
" +#@@@@@@@@$$$@@.",
" +@@@@@@@@@@@@@@.",
" ................",
"                 ",
"                 ",
"@@@@@@@@@@@@@@@@@",
"@@@@@@@@@@@@@@@@@"};
