/* XPM */
static char * frameAL_xpm[] = {
"3 16 2 1",
" 	c #D4D0C8",
".	c #FFFFFF",
" . ",
" . ",
" . ",
" . ",
" . ",
" . ",
" . ",
" . ",
" . ",
" . ",
" . ",
" . ",
" . ",
" . ",
" . ",
" . "};
