/* XPM */
static char * hideI_xpm[] = {
"17 40 5 1",
" 	c #2A2331",
".	c #382E41",
"+	c #000000",
"@	c #1C1720",
"#	c #E68AC1",
"                 ",
"                 ",
" ...............+",
" .             @+",
" .             @+",
" .             @+",
" .             @+",
" .             @+",
" .             @+",
" .             @+",
" .             @+",
" .        ###  @+",
" .        ###  @+",
" .             @+",
" .@@@@@@@@@@@@@@+",
" ++++++++++++++++",
"                 ",
"                 ",
"#################",
"#################",
"                 ",
"                 ",
" +++++++++++++++.",
" +@@@@@@@@@@@@@ .",
" +@             .",
" +@             .",
" +@             .",
" +@             .",
" +@             .",
" +@             .",
" +@             .",
" +@             .",
" +@        ###  .",
" +@        ###  .",
" +              .",
" ................",
"                 ",
"                 ",
"#################",
"#################"};
