/* XPM */
static char * maximizeA_xpm[] = {
"17 40 6 1",
" 	c #A6CAF0",
".	c #FFFFFF",
"+	c #404040",
"@	c #D4D0C8",
"#	c #808080",
"$	c #000000",
"                 ",
"                 ",
"...............+ ",
".@@@@@@@@@@@@@#+ ",
".@@$$$$$$$$$@@#+ ",
".@@$$$$$$$$$@@#+ ",
".@@$@@@@@@@$@@#+ ",
".@@$@@@@@@@$@@#+ ",
".@@$@@@@@@@$@@#+ ",
".@@$@@@@@@@$@@#+ ",
".@@$@@@@@@@$@@#+ ",
".@@$@@@@@@@$@@#+ ",
".@@$$$$$$$$$@@#+ ",
".@@@@@@@@@@@@@#+ ",
".##############+ ",
"++++++++++++++++ ",
"                 ",
"                 ",
"@@@@@@@@@@@@@@@@@",
"@@@@@@@@@@@@@@@@@",
"                 ",
"                 ",
"+++++++++++++++. ",
"+#############@. ",
"+#@@@@@@@@@@@@@. ",
"+#@@$$$$$$$$$@@. ",
"+#@@$$$$$$$$$@@. ",
"+#@@$@@@@@@@$@@. ",
"+#@@$@@@@@@@$@@. ",
"+#@@$@@@@@@@$@@. ",
"+#@@$@@@@@@@$@@. ",
"+#@@$@@@@@@@$@@. ",
"+#@@$@@@@@@@$@@. ",
"+#@@$$$$$$$$$@@. ",
"+@@@@@@@@@@@@@@. ",
"................ ",
"                 ",
"                 ",
"@@@@@@@@@@@@@@@@@",
"@@@@@@@@@@@@@@@@@"};
