/* XPM */
static char * restoreI_xpm[] = {
"17 40 6 1",
" 	c #C0C0C0",
".	c #FFFFFF",
"+	c #404040",
"@	c #D4D0C8",
"#	c #808080",
"$	c #000000",
"                 ",
"                 ",
"...............+ ",
".@@@@@@@@@@@@@#+ ",
".@@@@$$$$$$@@@#+ ",
".@@@@$$$$$$@@@#+ ",
".@@@@$@@@@$@@@#+ ",
".@@$$$$$$@$@@@#+ ",
".@@$$$$$$@$@@@#+ ",
".@@$@@@@$$$@@@#+ ",
".@@$@@@@$@@@@@#+ ",
".@@$@@@@$@@@@@#+ ",
".@@$$$$$$@@@@@#+ ",
".@@@@@@@@@@@@@#+ ",
".##############+ ",
"++++++++++++++++ ",
"                 ",
"                 ",
"@@@@@@@@@@@@@@@@@",
"@@@@@@@@@@@@@@@@@",
"                 ",
"                 ",
"+++++++++++++++. ",
"+#############@. ",
"+#@@@@@@@@@@@@@. ",
"+#@@@@$$$$$$@@@. ",
"+#@@@@$$$$$$@@@. ",
"+#@@@@$@@@@$@@@. ",
"+#@@$$$$$$@$@@@. ",
"+#@@$$$$$$@$@@@. ",
"+#@@$@@@@$$$@@@. ",
"+#@@$@@@@$@@@@@. ",
"+#@@$@@@@$@@@@@. ",
"+#@@$$$$$$@@@@@. ",
"+@@@@@@@@@@@@@@. ",
"................ ",
"                 ",
"                 ",
"@@@@@@@@@@@@@@@@@",
"@@@@@@@@@@@@@@@@@"};
