/* XPM */
static char * toolbuttonbg_xpm[] = {
"1 28 2 1",
" 	c #FFFFFF",
".	c #D4D0C8",
" ",
".",
".",
".",
".",
".",
".",
".",
".",
".",
".",
".",
".",
".",
".",
".",
".",
".",
".",
".",
".",
".",
".",
".",
".",
".",
".",
"."};
