/* XPM */
static char * closeO_xpm[] = {
"45 60 24 1",
" 	c #E81123",
".	c #E81325",
"+	c #E81224",
"@	c #F9CFD3",
"#	c #F16B76",
"$	c #F16C78",
"%	c #FFFDFD",
"&	c #F06974",
"*	c #F16C77",
"=	c #FFFFFF",
"-	c #FFFEFE",
";	c #F16A75",
">	c #F9CED2",
",	c #E81526",
"'	c #F1707A",
")	c #F1717B",
"!	c #FBE2E4",
"~	c #F6A6AC",
"{	c #F6A7AD",
"]	c #F6A5AB",
"^	c #F6A6AD",
"/	c #F6A5AC",
"(	c #FBE1E3",
"_	c #F1727C",
"                                            .",
"                                            .",
"                                            .",
"                                            .",
"                                            .",
"                                            .",
"                                            .",
"                                            .",
"                 .+      +.                 .",
"                .@#+    +$@                 .",
"                +#%#+  +$%&                 .",
"                 +#%#++$%&                  .",
"                  +#%*$%&                   .",
"                   +*=-;                    .",
"                   +$-%#+                   .",
"                  +$%;#%#+                  .",
"                 +$%& +#%#+                 .",
"                +$%&   +#%#                 .",
"                .@&     +#>                 .",
"                                            .",
"                                            .",
"                                            .",
"                                            .",
"                                            .",
"                                            .",
"                                            .",
"                                            .",
"                                            .",
"............................................,",
"=============================================",
"'''''''''''''''''''''''''''''''''''''''''''')",
"'''''''''''''''''''''''''''''''''''''''''''')",
"'''''''''''''''''''''''''''''''''''''''''''')",
"'''''''''''''''''''''''''''''''''''''''''''')",
"'''''''''''''''''''''''''''''''''''''''''''')",
"'''''''''''''''''''''''''''''''''''''''''''')",
"'''''''''''''''''''''''''''''''''''''''''''')",
"'''''''''''''''''''''''''''''''''''''''''''')",
"'''''''''''''''''))''''''))''''''''''''''''')",
"'''''''''''''''')!~)''''){!''''''''''''''''')",
"'''''''''''''''')~-~)''){-]''''''''''''''''')",
"''''''''''''''''')~-~)){-]'''''''''''''''''')",
"'''''''''''''''''')~-^{-]''''''''''''''''''')",
"''''''''''''''''''')^=-/'''''''''''''''''''')",
"'''''''''''''''''''){--~)''''''''''''''''''')",
"''''''''''''''''''){-/~-~)'''''''''''''''''')",
"'''''''''''''''''){-]')~-~)''''''''''''''''')",
"''''''''''''''''){-]''')~-~''''''''''''''''')",
"'''''''''''''''')!]''''')~(''''''''''''''''')",
"'''''''''''''''''''''''''''''''''''''''''''')",
"'''''''''''''''''''''''''''''''''''''''''''')",
"'''''''''''''''''''''''''''''''''''''''''''')",
"'''''''''''''''''''''''''''''''''''''''''''')",
"'''''''''''''''''''''''''''''''''''''''''''')",
"'''''''''''''''''''''''''''''''''''''''''''')",
"'''''''''''''''''''''''''''''''''''''''''''')",
"'''''''''''''''''''''''''''''''''''''''''''')",
"'''''''''''''''''''''''''''''''''''''''''''')",
"))))))))))))))))))))))))))))))))))))))))))))_",
"============================================="};
