/* XPM */
static char * closeI_xpm[] = {
"45 60 9 1",
" 	c #FFFFFF",
".	c #FDFDFD",
"+	c #9A9A9A",
"@	c #EAEAEA",
"#	c #E9E9E9",
"$	c #9C9D9D",
"%	c #EBEBEB",
"&	c #9B9C9C",
"*	c #9B9B9B",
"                                             ",
"                                             ",
"                                             ",
"                                             ",
"                                             ",
"                                             ",
"                                             ",
"                                             ",
"                 .        .                  ",
"                .+@      #+                  ",
"                 @$@    #$%                  ",
"                  @$@  #$%                   ",
"                   @$@#$%                    ",
"                    @&$%                     ",
"                    #$$@                     ",
"                   #$%@$@                    ",
"                  #$%  @$@                   ",
"                 #$%    @$@                  ",
"                .+%      @*                  ",
"                                             ",
"                                             ",
"                                             ",
"                                             ",
"                                             ",
"                                             ",
"                                             ",
"                                             ",
"                                             ",
"                                             ",
"                                             ",
"                                             ",
"                                             ",
"                                             ",
"                                             ",
"                                             ",
"                                             ",
"                                             ",
"                                             ",
"                 .        .                  ",
"                .+@      #+                  ",
"                 @$@    #$%                  ",
"                  @$@  #$%                   ",
"                   @$@#$%                    ",
"                    @&$%                     ",
"                    #$$@                     ",
"                   #$%@$@                    ",
"                  #$%  @$@                   ",
"                 #$%    @$@                  ",
"                .+%      @*                  ",
"                                             ",
"                                             ",
"                                             ",
"                                             ",
"                                             ",
"                                             ",
"                                             ",
"                                             ",
"                                             ",
"                                             ",
"                                             "};
