/* XPM */
static char * closeA_xpm[] = {
"45 60 13 1",
" 	c #FFFFFF",
".	c #FDFDFD",
"+	c #030303",
"@	c #CBCBCB",
"#	c #FEFEFE",
"$	c #C9C9C9",
"%	c #040404",
"&	c #080A0B",
"*	c #CDCDCD",
"=	c #CACACA",
"-	c #050708",
";	c #07090A",
">	c #CCCCCC",
"                                             ",
"                                             ",
"                                             ",
"                                             ",
"                                             ",
"                                             ",
"                                             ",
"                                             ",
"                 .        .                  ",
"                .+@     #$%                  ",
"                 @&@   #$&*                  ",
"                  @&@ #$&*                   ",
"                   @&=$&*                    ",
"                    =-;>                     ",
"                   #$;&@                     ",
"                  #$&>@&@                    ",
"                 #$&*  @&@                   ",
"                 $&*    @&@                  ",
"                .%*      @%                  ",
"                                             ",
"                                             ",
"                                             ",
"                                             ",
"                                             ",
"                                             ",
"                                             ",
"                                             ",
"                                             ",
"                                             ",
"                                             ",
"                                             ",
"                                             ",
"                                             ",
"                                             ",
"                                             ",
"                                             ",
"                                             ",
"                                             ",
"                 .        .                  ",
"                .+@     #$%                  ",
"                 @&@   #$&*                  ",
"                  @&@ #$&*                   ",
"                   @&=$&*                    ",
"                    =-;>                     ",
"                   #$;&@                     ",
"                  #$&>@&@                    ",
"                 #$&*  @&@                   ",
"                 $&*    @&@                  ",
"                .%*      @%                  ",
"                                             ",
"                                             ",
"                                             ",
"                                             ",
"                                             ",
"                                             ",
"                                             ",
"                                             ",
"                                             ",
"                                             ",
"                                             "};
