/* XPM */
static char * frameIR_xpm[] = {
"8 113 24 1",
" 	c #C3D1DF",
".	c #E9ECF3",
"+	c #4D4D4D",
"@	c #C4D2E0",
"#	c #C5D3E1",
"$	c #C6D4E2",
"%	c #C7D5E3",
"&	c #C8D6E4",
"*	c #C9D7E5",
"=	c #CBD8E6",
"-	c #CCDAE7",
";	c #CDDBE8",
">	c #CEDCE9",
",	c #CFDDEA",
"'	c #D0DEEB",
")	c #D1DFEC",
"!	c #D2E0ED",
"~	c #D3E1EE",
"{	c #D4E2EF",
"]	c #D5E2F0",
"^	c #D6E3F1",
"/	c #D6E4F1",
"(	c #D7E4F2",
"_	c #4C4C4C",
"      .+",
"@@@@@@.+",
"######.+",
"$$$$$$.+",
"%%%%%%.+",
"&&&&&&.+",
"******.+",
"======.+",
"------.+",
";;;;;;.+",
">>>>>>.+",
",,,,,,.+",
"''''''.+",
")))))).+",
"!!!!!!.+",
"~~~~~~.+",
"{{{{{{.+",
"]]]]]].+",
"^^^^^^.+",
"//////.+",
"((((((.+",
"((((((._",
"((((((._",
"((((((._",
"((((((._",
"((((((._",
"((((((._",
"((((((._",
"((((((._",
"((((((._",
"((((((._",
"((((((._",
"((((((._",
"((((((._",
"((((((._",
"((((((._",
"((((((._",
"((((((._",
"((((((._",
"((((((._",
"((((((._",
"((((((._",
"((((((._",
"((((((._",
"((((((._",
"((((((._",
"((((((._",
"((((((._",
"((((((._",
"((((((._",
"((((((._",
"((((((._",
"((((((._",
"((((((._",
"((((((._",
"((((((._",
"((((((._",
"((((((._",
"((((((._",
"((((((._",
"((((((._",
"((((((._",
"((((((._",
"((((((._",
"((((((._",
"((((((._",
"((((((._",
"((((((._",
"((((((._",
"((((((._",
"((((((._",
"((((((._",
"((((((._",
"((((((._",
"((((((._",
"((((((._",
"((((((._",
"((((((._",
"((((((._",
"((((((._",
"((((((._",
"((((((._",
"((((((._",
"((((((._",
"((((((._",
"((((((._",
"((((((._",
"((((((._",
"((((((._",
"((((((._",
"((((((._",
"((((((._",
"((((((._",
"((((((._",
"((((((._",
"((((((._",
"((((((._",
"((((((._",
"((((((._",
"((((((._",
"((((((._",
"((((((._",
"((((((._",
"((((((._",
"((((((._",
"((((((._",
"((((((._",
"((((((._",
"((((((._",
"((((((._",
"((((((._",
"((((((._",
"((((((._"};
