/* XPM */
static char * frameATR_xpm[] = {
"8 8 23 1",
" 	c None",
".	c #343434",
"+	c #1C1C1C",
"@	c #181818",
"#	c #FFFFFF",
"$	c #FCFCFC",
"%	c #DBE9EC",
"&	c #1B434A",
"*	c #141616",
"=	c #98B4D0",
"-	c #D2F0F7",
";	c #A9D6E0",
">	c #99B4D1",
",	c #C1EEF5",
"'	c #1C545B",
")	c #99B5D1",
"!	c #AEE9F4",
"~	c #9AB6D2",
"{	c #AAE9F5",
"]	c #9BB7D3",
"^	c #A6E7F4",
"/	c #9DB8D4",
"(	c #A1E6F4",
"..+@    ",
"##$%&*  ",
"====-;* ",
">>>>>,' ",
"))))))!@",
"~~~~~~{+",
"]]]]]]^.",
"//////(."};
