/* XPM */
static char * maximizeO_xpm[] = {
"45 60 11 1",
" 	c #E5E5E5",
".	c #E3E3E3",
"+	c #000000",
"@	c #020202",
"#	c #E1E1E1",
"$	c #040404",
"%	c #FFFFFF",
"&	c #CCCCCC",
"*	c #CACACA",
"=	c #C9C9C9",
"-	c #030303",
"                                             ",
"                                             ",
"                                             ",
"                                             ",
"                                             ",
"                                             ",
"                                             ",
"                                             ",
"                 .........                   ",
"                +@@@@@@@@@                   ",
"                @       .@                   ",
"                @       .@                   ",
"                @       .@                   ",
"                @       .@                   ",
"                @       .@                   ",
"                @       .@                   ",
"                @       .@                   ",
"                @.......#@                   ",
"                @@@@@@@@@$                   ",
"                                             ",
"                                             ",
"                                             ",
"                                             ",
"                                             ",
"                                             ",
"                                             ",
"                                             ",
"                                             ",
"                                             ",
"%%%%%%%%%%%%%%%%%%%%%%%%%%%%%%%%%%%%%%%%%%%%%",
"&&&&&&&&&&&&&&&&&&&&&&&&&&&&&&&&&&&&&&&&&&&&&",
"&&&&&&&&&&&&&&&&&&&&&&&&&&&&&&&&&&&&&&&&&&&&&",
"&&&&&&&&&&&&&&&&&&&&&&&&&&&&&&&&&&&&&&&&&&&&&",
"&&&&&&&&&&&&&&&&&&&&&&&&&&&&&&&&&&&&&&&&&&&&&",
"&&&&&&&&&&&&&&&&&&&&&&&&&&&&&&&&&&&&&&&&&&&&&",
"&&&&&&&&&&&&&&&&&&&&&&&&&&&&&&&&&&&&&&&&&&&&&",
"&&&&&&&&&&&&&&&&&&&&&&&&&&&&&&&&&&&&&&&&&&&&&",
"&&&&&&&&&&&&&&&&&&&&&&&&&&&&&&&&&&&&&&&&&&&&&",
"&&&&&&&&&&&&&&&&&*********&&&&&&&&&&&&&&&&&&&",
"&&&&&&&&&&&&&&&&+@@@@@@@@@&&&&&&&&&&&&&&&&&&&",
"&&&&&&&&&&&&&&&&@&&&&&&&*@&&&&&&&&&&&&&&&&&&&",
"&&&&&&&&&&&&&&&&@&&&&&&&*@&&&&&&&&&&&&&&&&&&&",
"&&&&&&&&&&&&&&&&@&&&&&&&*@&&&&&&&&&&&&&&&&&&&",
"&&&&&&&&&&&&&&&&@&&&&&&&*@&&&&&&&&&&&&&&&&&&&",
"&&&&&&&&&&&&&&&&@&&&&&&&*@&&&&&&&&&&&&&&&&&&&",
"&&&&&&&&&&&&&&&&@&&&&&&&*@&&&&&&&&&&&&&&&&&&&",
"&&&&&&&&&&&&&&&&@&&&&&&&*@&&&&&&&&&&&&&&&&&&&",
"&&&&&&&&&&&&&&&&@*******=@&&&&&&&&&&&&&&&&&&&",
"&&&&&&&&&&&&&&&&@@@@@@@@@-&&&&&&&&&&&&&&&&&&&",
"&&&&&&&&&&&&&&&&&&&&&&&&&&&&&&&&&&&&&&&&&&&&&",
"&&&&&&&&&&&&&&&&&&&&&&&&&&&&&&&&&&&&&&&&&&&&&",
"&&&&&&&&&&&&&&&&&&&&&&&&&&&&&&&&&&&&&&&&&&&&&",
"&&&&&&&&&&&&&&&&&&&&&&&&&&&&&&&&&&&&&&&&&&&&&",
"&&&&&&&&&&&&&&&&&&&&&&&&&&&&&&&&&&&&&&&&&&&&&",
"&&&&&&&&&&&&&&&&&&&&&&&&&&&&&&&&&&&&&&&&&&&&&",
"&&&&&&&&&&&&&&&&&&&&&&&&&&&&&&&&&&&&&&&&&&&&&",
"&&&&&&&&&&&&&&&&&&&&&&&&&&&&&&&&&&&&&&&&&&&&&",
"&&&&&&&&&&&&&&&&&&&&&&&&&&&&&&&&&&&&&&&&&&&&&",
"&&&&&&&&&&&&&&&&&&&&&&&&&&&&&&&&&&&&&&&&&&&&&",
"%%%%%%%%%%%%%%%%%%%%%%%%%%%%%%%%%%%%%%%%%%%%%"};
