/* XPM */
static char * maximizeI_xpm[] = {
"45 60 6 1",
" 	c #FFFFFF",
".	c #FDFDFD",
"+	c #999999",
"@	c #9A9A9A",
"#	c #FEFEFE",
"$	c #9B9B9B",
"                                             ",
"                                             ",
"                                             ",
"                                             ",
"                                             ",
"                                             ",
"                                             ",
"                                             ",
"                ..........                   ",
"               .+@@@@@@@@@                   ",
"               .@       #@                   ",
"               .@       #@                   ",
"               .@       #@                   ",
"               .@       #@                   ",
"               .@       #@                   ",
"               .@       #@                   ",
"               .@       #@                   ",
"               .@#######.@                   ",
"               .@@@@@@@@@$                   ",
"                                             ",
"                                             ",
"                                             ",
"                                             ",
"                                             ",
"                                             ",
"                                             ",
"                                             ",
"                                             ",
"                                             ",
"                                             ",
"                                             ",
"                                             ",
"                                             ",
"                                             ",
"                                             ",
"                                             ",
"                                             ",
"                                             ",
"                ..........                   ",
"               .+@@@@@@@@@                   ",
"               .@       #@                   ",
"               .@       #@                   ",
"               .@       #@                   ",
"               .@       #@                   ",
"               .@       #@                   ",
"               .@       #@                   ",
"               .@       #@                   ",
"               .@#######.@                   ",
"               .@@@@@@@@@$                   ",
"                                             ",
"                                             ",
"                                             ",
"                                             ",
"                                             ",
"                                             ",
"                                             ",
"                                             ",
"                                             ",
"                                             ",
"                                             "};
