/* XPM */
static char * restoreI_xpm[] = {
"45 60 6 1",
" 	c #FFFFFF",
".	c #FDFDFD",
"+	c #FEFEFE",
"@	c #999999",
"#	c #9A9A9A",
"$	c #9B9B9B",
"                                             ",
"                                             ",
"                                             ",
"                                             ",
"                                             ",
"                                             ",
"                                             ",
"                                             ",
"                ..........                   ",
"               . +@#######                   ",
"               .+.#++++++#                   ",
"               .@#######+#                   ",
"               .#     +#+#                   ",
"               .#     +#+#                   ",
"               .#     +#+#                   ",
"               .#     +#.#                   ",
"               .#     +@#$                   ",
"               .#+++++.#                     ",
"               .#######$                     ",
"                                             ",
"                                             ",
"                                             ",
"                                             ",
"                                             ",
"                                             ",
"                                             ",
"                                             ",
"                                             ",
"                                             ",
"                                             ",
"                                             ",
"                                             ",
"                                             ",
"                                             ",
"                                             ",
"                                             ",
"                                             ",
"                                             ",
"                ..........                   ",
"               . +@#######                   ",
"               .+.#++++++#                   ",
"               .@#######+#                   ",
"               .#     +#+#                   ",
"               .#     +#+#                   ",
"               .#     +#+#                   ",
"               .#     +#.#                   ",
"               .#     +@#$                   ",
"               .#+++++.#                     ",
"               .#######$                     ",
"                                             ",
"                                             ",
"                                             ",
"                                             ",
"                                             ",
"                                             ",
"                                             ",
"                                             ",
"                                             ",
"                                             ",
"                                             "};
