/* XPM */
static char * restoreA_xpm[] = {
"45 60 6 1",
" 	c #FFFFFF",
".	c #FDFDFD",
"+	c #000000",
"@	c #020202",
"#	c #FBFBFB",
"$	c #040404",
"                                             ",
"                                             ",
"                                             ",
"                                             ",
"                                             ",
"                                             ",
"                                             ",
"                                             ",
"                ..........                   ",
"               . .+@@@@@@@                   ",
"               ..#@......@                   ",
"               .+@@@@@@@.@                   ",
"               .@     .@.@                   ",
"               .@     .@.@                   ",
"               .@     .@.@                   ",
"               .@     .@#@                   ",
"               .@     .+@$                   ",
"               .@.....#@                     ",
"               .@@@@@@@$                     ",
"                                             ",
"                                             ",
"                                             ",
"                                             ",
"                                             ",
"                                             ",
"                                             ",
"                                             ",
"                                             ",
"                                             ",
"                                             ",
"                                             ",
"                                             ",
"                                             ",
"                                             ",
"                                             ",
"                                             ",
"                                             ",
"                                             ",
"                ..........                   ",
"               . .+@@@@@@@                   ",
"               ..#@......@                   ",
"               .+@@@@@@@.@                   ",
"               .@     .@.@                   ",
"               .@     .@.@                   ",
"               .@     .@.@                   ",
"               .@     .@#@                   ",
"               .@     .+@$                   ",
"               .@.....#@                     ",
"               .@@@@@@@$                     ",
"                                             ",
"                                             ",
"                                             ",
"                                             ",
"                                             ",
"                                             ",
"                                             ",
"                                             ",
"                                             ",
"                                             ",
"                                             "};
