/* XPM */
static char * closeI_xpm[] = {
"24 52 385 2",
"  	c #7DA1E2",
". 	c #7C9FE1",
"+ 	c #7C9DE1",
"@ 	c #7B9AE1",
"# 	c #7B99E1",
"$ 	c #7B98E0",
"% 	c #7B97E0",
"& 	c #7A96DF",
"* 	c #7996DE",
"= 	c #7993DE",
"- 	c #7891DD",
"; 	c #788EDB",
"> 	c #7A99E0",
", 	c #7999DE",
"' 	c #7895DD",
") 	c #7793DB",
"! 	c #778EDB",
"~ 	c #778BDB",
"{ 	c #7689D9",
"] 	c #7686D9",
"^ 	c #7584D8",
"/ 	c #A1B7E9",
"( 	c #BCCBF0",
"_ 	c #BDCCF0",
": 	c #BDCBEF",
"< 	c #BDCAEF",
"[ 	c #BDCAEE",
"} 	c #BCC9EE",
"| 	c #BCC8EE",
"1 	c #BCC8ED",
"2 	c #BCC7ED",
"3 	c #A0B0E5",
"4 	c #7680D6",
"5 	c #747CD5",
"6 	c #A0B4E7",
"7 	c #B9BBDC",
"8 	c #B28FA8",
"9 	c #B1869E",
"0 	c #AF8198",
"a 	c #AF7D94",
"b 	c #AF7B91",
"c 	c #AE788E",
"d 	c #AE798F",
"e 	c #AE768C",
"f 	c #AD758B",
"g 	c #AD758A",
"h 	c #AD7186",
"i 	c #AC7086",
"j 	c #AC6E84",
"k 	c #AB6A80",
"l 	c #A9657B",
"m 	c #A36B85",
"n 	c #B2AED4",
"o 	c #9DAAE3",
"p 	c #BBC8EE",
"q 	c #B28EA8",
"r 	c #B399B5",
"s 	c #B49BB7",
"t 	c #B294AF",
"u 	c #B18DA7",
"v 	c #B189A4",
"w 	c #B186A1",
"x 	c #B0849F",
"y 	c #B0829D",
"z 	c #AF819C",
"A 	c #AF819B",
"B 	c #AF7F99",
"C 	c #AF7D97",
"D 	c #AE7A94",
"E 	c #AE7790",
"F 	c #AD728B",
"G 	c #AB6B84",
"H 	c #A2637C",
"I 	c #956582",
"J 	c #B8BEEA",
"K 	c #BBC7ED",
"L 	c #B086A0",
"M 	c #B49BB9",
"N 	c #B49CBA",
"O 	c #B295B1",
"P 	c #B28FA9",
"Q 	c #B18BA5",
"R 	c #B187A3",
"S 	c #B085A0",
"T 	c #AF839F",
"U 	c #B0819D",
"V 	c #B0809D",
"W 	c #AF7E9B",
"X 	c #AF7C99",
"Y 	c #AE7995",
"Z 	c #AE7691",
"` 	c #AD738D",
" .	c #AB6D86",
"..	c #A3647E",
"+.	c #8F5875",
"@.	c #B9BDEA",
"#.	c #767FD8",
"$.	c #7990DE",
"%.	c #B0809A",
"&.	c #B395B2",
"*.	c #B396B3",
"=.	c #B290AC",
"-.	c #B18AA5",
";.	c #B187A1",
">.	c #B0839F",
",.	c #B0809C",
"'.	c #AF7D99",
").	c #AF7B97",
"!.	c #AE7692",
"~.	c #AD738E",
"{.	c #AD718B",
"].	c #AC6F89",
"^.	c #AB6B85",
"/.	c #A46580",
"(.	c #905A77",
"_.	c #BABEEA",
":.	c #BBC7EE",
"<.	c #AF7E97",
"[.	c #B28FAA",
"}.	c #B28FAB",
"|.	c #E0CED9",
"1.	c #FFFFFF",
"2.	c #AF7B96",
"3.	c #AE7894",
"4.	c #AD7590",
"5.	c #AD728D",
"6.	c #AD7089",
"7.	c #AD6E88",
"8.	c #DEC4CE",
"9.	c #AC6C85",
"0.	c #AA6A84",
"a.	c #A46782",
"b.	c #915C7A",
"c.	c #BABEEB",
"d.	c #BCC7EE",
"e.	c #AF7B95",
"f.	c #B28AA5",
"g.	c #B18BA6",
"h.	c #B187A2",
"i.	c #AE738D",
"j.	c #AD708A",
"k.	c #AC6D87",
"l.	c #AC6A83",
"m.	c #AB6A83",
"n.	c #A56782",
"o.	c #915D7A",
"p.	c #BABFEB",
"q.	c #7683D9",
"r.	c #BCC6EE",
"s.	c #AF7991",
"t.	c #B186A2",
"u.	c #B084A0",
"v.	c #AE748F",
"w.	c #AE728C",
"x.	c #AD6F88",
"y.	c #AD6981",
"z.	c #AD6A82",
"A.	c #AB6A82",
"B.	c #A56781",
"C.	c #925D7A",
"D.	c #BBC0EC",
"E.	c #7783DA",
"F.	c #B0839E",
"G.	c #B0829E",
"H.	c #B07F9C",
"I.	c #B07C98",
"J.	c #AD718A",
"K.	c #AD687F",
"L.	c #AD677E",
"M.	c #AD6880",
"N.	c #AC6A81",
"O.	c #A66781",
"P.	c #935D7A",
"Q.	c #7A90DF",
"R.	c #AE758C",
"S.	c #B0809B",
"T.	c #B07E9B",
"U.	c #AF7C97",
"V.	c #AE7A95",
"W.	c #AE6B81",
"X.	c #AE697F",
"Y.	c #AD687E",
"Z.	c #AC697F",
"`.	c #A6667F",
" +	c #935C79",
".+	c #7784DB",
"++	c #7A93DF",
"@+	c #BCC7EF",
"#+	c #AE738A",
"$+	c #B07D97",
"%+	c #B07F9A",
"&+	c #B07F9B",
"*+	c #B07E9A",
"=+	c #AF7A94",
"-+	c #AE7891",
";+	c #AF6F84",
">+	c #AF6D81",
",+	c #AF6A7F",
"'+	c #AF697D",
")+	c #AD697E",
"!+	c #A7667E",
"~+	c #935C78",
"{+	c #BBC0ED",
"]+	c #BDC8EF",
"^+	c #AE7188",
"/+	c #AF7B94",
"(+	c #B07F99",
"_+	c #B07E99",
":+	c #AF7C95",
"<+	c #B06E82",
"[+	c #B06C7F",
"}+	c #AF6A7C",
"|+	c #AF697C",
"1+	c #AE687C",
"2+	c #A7657C",
"3+	c #945B77",
"4+	c #BCC1EE",
"5+	c #7987DE",
"6+	c #7786DC",
"7+	c #7D97E4",
"8+	c #BDC9F0",
"9+	c #AE7086",
"0+	c #AF7A92",
"a+	c #B07D96",
"b+	c #B17F98",
"c+	c #B17E99",
"d+	c #B07E98",
"e+	c #B0788D",
"f+	c #FAF6F7",
"g+	c #B16E7F",
"h+	c #B16C7D",
"i+	c #B06B7B",
"j+	c #AF697B",
"k+	c #A8647A",
"l+	c #955B76",
"m+	c #BCC3EE",
"n+	c #7A8BDE",
"o+	c #7D99E3",
"p+	c #BECAF1",
"q+	c #AE6F83",
"r+	c #AF798F",
"s+	c #B07C94",
"t+	c #B17E97",
"u+	c #B17B91",
"v+	c #B1798E",
"w+	c #B1768A",
"x+	c #B26D7C",
"y+	c #B16C7A",
"z+	c #AF6879",
"A+	c #A96477",
"B+	c #965B74",
"C+	c #BCC4EF",
"D+	c #7B8EE1",
"E+	c #7E9BE5",
"F+	c #BECBF1",
"G+	c #AE6D80",
"H+	c #AF778C",
"I+	c #B07B92",
"J+	c #B17D95",
"K+	c #B17C93",
"L+	c #B27C91",
"M+	c #B17A8E",
"N+	c #B2788B",
"O+	c #B37686",
"P+	c #B26B79",
"Q+	c #B16877",
"R+	c #A96376",
"S+	c #965B73",
"T+	c #BDC6F0",
"U+	c #7F9FE6",
"V+	c #BECCF2",
"W+	c #AE6C7E",
"X+	c #AF7589",
"Y+	c #B07A8E",
"Z+	c #B17C92",
"`+	c #E0CBD4",
" @	c #B27D93",
".@	c #B17D92",
"+@	c #B17C90",
"@@	c #B27A8D",
"#@	c #B2798A",
"$@	c #B37786",
"%@	c #B37583",
"&@	c #E1C5CA",
"*@	c #B36B78",
"=@	c #B16775",
"-@	c #AA6273",
";@	c #965A72",
">@	c #BEC6F0",
",@	c #7C91E1",
"'@	c #7FA0E7",
")@	c #BFCEF2",
"!@	c #AE6B7C",
"~@	c #AF7385",
"{@	c #AF778A",
"]@	c #B17B8F",
"^@	c #B17B8E",
"/@	c #B17A8D",
"(@	c #B2798B",
"_@	c #B27888",
":@	c #B37684",
"<@	c #B37481",
"[@	c #B3727E",
"}@	c #B36E7A",
"|@	c #B36B77",
"1@	c #B16774",
"2@	c #AA6272",
"3@	c #965B72",
"4@	c #BEC7F1",
"5@	c #7D94E4",
"6@	c #80A5E7",
"7@	c #BFCFF3",
"8@	c #AC6A7A",
"9@	c #AD7080",
"0@	c #AE7486",
"a@	c #AE778A",
"b@	c #AF788C",
"c@	c #AF798C",
"d@	c #AF788B",
"e@	c #AF7789",
"f@	c #B07687",
"g@	c #B17585",
"h@	c #B17482",
"i@	c #B2717F",
"j@	c #B26F7C",
"k@	c #B26C79",
"l@	c #B16976",
"m@	c #AF6673",
"n@	c #A76172",
"o@	c #945B72",
"p@	c #BEC9F2",
"q@	c #BFCFF2",
"r@	c #A67487",
"s@	c #A66B7C",
"t@	c #A66E80",
"u@	c #A77183",
"v@	c #A77285",
"w@	c #A77286",
"x@	c #A77185",
"y@	c #A87184",
"z@	c #A87083",
"A@	c #A86F81",
"B@	c #AA6F80",
"C@	c #AA6E7D",
"D@	c #AA6C7C",
"E@	c #AA6A79",
"F@	c #AA6877",
"G@	c #AA6674",
"H@	c #A86373",
"I@	c #A06072",
"J@	c #956882",
"K@	c #BECAF2",
"L@	c #A4BCED",
"M@	c #B7BBDB",
"N@	c #9A7287",
"O@	c #936579",
"P@	c #96687B",
"Q@	c #95677C",
"R@	c #94687D",
"S@	c #94677C",
"T@	c #96677C",
"U@	c #97667B",
"V@	c #986579",
"W@	c #986477",
"X@	c #996376",
"Y@	c #986275",
"Z@	c #986074",
"`@	c #996073",
" #	c #965E72",
".#	c #956A82",
"+#	c #B4B5DA",
"@#	c #A3B4EC",
"##	c #7FA0E5",
"$#	c #A4BAED",
"%#	c #BFCEF3",
"&#	c #BFCDF3",
"*#	c #BFCDF2",
"=#	c #BFCCF2",
"-#	c #7D92E4",
";#	c #7C94E2",
">#	c #7B93E1",
",#	c #798DDE",
"'#	c #788DDD",
")#	c #788ADD",
"!#	c #7789DB",
"    . + @ # # $ $ % % % & & & * = = - ; ; ; ; ; ",
"> , * * ' = - ) - ; ; ! ! ! ! ! ! ~ { { ] ^ ^ ^ ",
"= = / ( _ _ _ : : : : : < [ [ } | 1 2 2 3 4 5 5 ",
"- 6 7 8 9 0 a b c d e e f g h i j k l m n o 5 5 ",
"- p q r s t u v w x y z A B C D E F G H I J 5 5 ",
"- K L M N O P Q R S T U V W X Y Z `  ...+.@.#.5 ",
"$.K %.&.*.=.-.;.>.,.'.).Y !.Z ~.{.].^./.(._.#.#.",
"$.:.<.[.}.-.|.1.'.2.3.4.5.6.7.1.8.9.0.a.b.c.#.#.",
"$.d.e.f.g.h.1.1.1.3.Z i.j.k.1.1.1.l.m.n.o.p.q.#.",
"$.r.s.t.R u.V 1.1.1.v.w.x.1.1.1.y.z.A.B.C.D.E.E.",
"$.r.s.F.x G.H.I.1.1.1.J.1.1.1.K.L.M.N.O.P.D.E.E.",
"Q.d.R.S.U V T.U.V.1.1.1.1.1.W.X.Y.Y.Z.`. +D..+E.",
"++@+#+$+%+&+*+U.=+-+1.1.1.;+>+,+'+'+)+!+~+{+.+.+",
"% ]+^+/+(+%+_+$+:+1.1.1.1.1.<+[+}+|+1+2+3+4+5+6+",
"7+8+9+0+a+b+c+d+1.1.1.e+1.1.f+g+h+i+j+k+l+m+n+5+",
"o+p+q+r+s+t+b+1.1.1.u+v+w+1.1.1.x+y+z+A+B+C+D+D+",
"E+F+G+H+I+J+1.1.1.K+L+M+N+O+1.1.1.P+Q+R+S+T+D+D+",
"U+V+W+X+Y+Z+`+1. @.@+@@@#@$@%@1.&@*@=@-@;@>@,@D+",
"'@)@!@~@{@Y++@+@]@^@/@(@_@:@<@[@}@|@1@2@3@4@5@5@",
"6@7@8@9@0@a@b@c@d@d@e@f@g@h@i@j@k@l@m@n@o@p@5@5@",
"6@q@r@s@t@u@v@w@x@y@z@A@B@C@D@E@F@G@H@I@J@K@7+5@",
"6@L@M@N@O@P@Q@R@S@T@T@U@V@W@X@Y@Z@`@ #.#+#@#7+5@",
"'@##$#7@7@7@7@7@7@%#%#&#*#*#*#=#=#=#=#p+@#-#5@5@",
"o+o+o+7+7+7+7+5@5@5@5@;#;#>#,@,@,@,@,@D+D+D+D+D+",
"Q.Q.Q.Q.,#,#,#,#,#,#,#,#,#'#n+n+n+)#)#)#)#)#!#6+",
"Q.Q.Q.Q.,#,#,#,#,#,#,#,#,#'#n+n+n+)#)#)#)#)#!#6+",
"    . + @ # # $ $ % % % & & & * = = - ; ; ; ; ; ",
"> , * * ' = - ) - ; ; ! ! ! ! ! ! ~ { { ] ^ ^ ^ ",
"= = / ( _ _ _ : : : : : < [ [ } | 1 2 2 3 4 5 5 ",
"- 6 7 8 9 0 a b c d e e f g h i j k l m n o 5 5 ",
"- p q r s t u v w x y z A B C D E F G H I J 5 5 ",
"- K L M N O P Q R S T U V W X Y Z `  ...+.@.#.5 ",
"$.K %.&.*.=.-.;.>.,.'.).Y !.Z ~.{.].^./.(._.#.#.",
"$.:.<.[.}.-.|.1.'.2.3.4.5.6.7.1.8.9.0.a.b.c.#.#.",
"$.d.e.f.g.h.1.1.1.3.Z i.j.k.1.1.1.l.m.n.o.p.q.#.",
"$.r.s.t.R u.V 1.1.1.v.w.x.1.1.1.y.z.A.B.C.D.E.E.",
"$.r.s.F.x G.H.I.1.1.1.J.1.1.1.K.L.M.N.O.P.D.E.E.",
"Q.d.R.S.U V T.U.V.1.1.1.1.1.W.X.Y.Y.Z.`. +D..+E.",
"++@+#+$+%+&+*+U.=+-+1.1.1.;+>+,+'+'+)+!+~+{+.+.+",
"% ]+^+/+(+%+_+$+:+1.1.1.1.1.<+[+}+|+1+2+3+4+5+6+",
"7+8+9+0+a+b+c+d+1.1.1.e+1.1.f+g+h+i+j+k+l+m+n+5+",
"o+p+q+r+s+t+b+1.1.1.u+v+w+1.1.1.x+y+z+A+B+C+D+D+",
"E+F+G+H+I+J+1.1.1.K+L+M+N+O+1.1.1.P+Q+R+S+T+D+D+",
"U+V+W+X+Y+Z+`+1. @.@+@@@#@$@%@1.&@*@=@-@;@>@,@D+",
"'@)@!@~@{@Y++@+@]@^@/@(@_@:@<@[@}@|@1@2@3@4@5@5@",
"6@7@8@9@0@a@b@c@d@d@e@f@g@h@i@j@k@l@m@n@o@p@5@5@",
"6@q@r@s@t@u@v@w@x@y@z@A@B@C@D@E@F@G@H@I@J@K@7+5@",
"6@L@M@N@O@P@Q@R@S@T@T@U@V@W@X@Y@Z@`@ #.#+#@#7+5@",
"'@##$#7@7@7@7@7@7@%#%#&#*#*#*#=#=#=#=#p+@#-#5@5@",
"o+o+o+7+7+7+7+5@5@5@5@;#;#>#,@,@,@,@,@D+D+D+D+D+",
"Q.Q.Q.Q.,#,#,#,#,#,#,#,#,#'#n+n+n+)#)#)#)#)#!#6+",
"Q.Q.Q.Q.,#,#,#,#,#,#,#,#,#'#n+n+n+)#)#)#)#)#!#6+"};
