/* XPM */
static char * closeO_xpm[] = {
"24 52 497 2",
"  	c #016AFA",
". 	c #0265F9",
"+ 	c #0368F4",
"@ 	c #0365F1",
"# 	c #0160F5",
"$ 	c #005FF2",
"% 	c #005AF5",
"& 	c #005BF2",
"* 	c #0060EE",
"= 	c #005CEC",
"- 	c #0055EA",
"; 	c #0058EB",
"> 	c #0054E3",
", 	c #0361EB",
"' 	c #0161EA",
") 	c #025DE9",
"! 	c #005AE7",
"~ 	c #0058E6",
"{ 	c #0055E5",
"] 	c #0053E1",
"^ 	c #0050E0",
"/ 	c #014DDC",
"( 	c #004ADC",
"_ 	c #004AD8",
": 	c #0047D7",
"< 	c #0043D3",
"[ 	c #0556E3",
"} 	c #7D8FBC",
"| 	c #EDEDEE",
"1 	c #FFFFFF",
"2 	c #EEEEEE",
"3 	c #7D8BB7",
"4 	c #0540CD",
"5 	c #003DCC",
"6 	c #0037CB",
"7 	c #7D8EBB",
"8 	c #FFE4E1",
"9 	c #FF9285",
"0 	c #FF8C7F",
"a 	c #FF8375",
"b 	c #FF7B6C",
"c 	c #FF7868",
"d 	c #FF7362",
"e 	c #FF7363",
"f 	c #FF705F",
"g 	c #FF6F5F",
"h 	c #FF6E5D",
"i 	c #FF6B5A",
"j 	c #FF6655",
"k 	c #FF6250",
"l 	c #FF5D4A",
"m 	c #FA5643",
"n 	c #EB6151",
"o 	c #F5DAD7",
"p 	c #7D8AB7",
"q 	c #0031C6",
"r 	c #0032C1",
"s 	c #FF9386",
"t 	c #FFAEA5",
"u 	c #FFB2A9",
"v 	c #FFA99F",
"w 	c #FF9E93",
"x 	c #FF998D",
"y 	c #FF9488",
"z 	c #FF9083",
"A 	c #FF8E80",
"B 	c #FF8B7D",
"C 	c #FF887A",
"D 	c #FF8475",
"E 	c #FF8172",
"F 	c #FF7C6D",
"G 	c #FF7666",
"H 	c #FC6352",
"I 	c #EE5544",
"J 	c #D3594B",
"K 	c #FF8D80",
"L 	c #FFB3AB",
"M 	c #FFB8B0",
"N 	c #FFB0A6",
"O 	c #FFA49A",
"P 	c #FF988D",
"Q 	c #FF9184",
"R 	c #FF8E81",
"S 	c #FF8C7E",
"T 	c #FF8576",
"U 	c #FF7F70",
"V 	c #FF796A",
"W 	c #FF7161",
"X 	c #FC6857",
"Y 	c #ED5948",
"Z 	c #CB4233",
"` 	c #002CC8",
" .	c #004BE0",
"..	c #FF8577",
"+.	c #FFAAA0",
"@.	c #FFA89E",
"#.	c #FF8D7F",
"$.	c #FF8879",
"%.	c #FF8071",
"&.	c #FF7A6B",
"*.	c #FF7969",
"=.	c #FF7464",
"-.	c #FF7060",
";.	c #FF6C5B",
">.	c #FC6655",
",.	c #EF5C4B",
"'.	c #CC4636",
").	c #FFA095",
"!.	c #FFA59B",
"~.	c #FF9F94",
"{.	c #C99792",
"].	c #FF8A7C",
"^.	c #FF7E6F",
"/.	c #C98682",
"(.	c #FF6554",
"_.	c #FC6453",
":.	c #EE5D4D",
"<.	c #CD4939",
"[.	c #0036D2",
"}.	c #FF998E",
"|.	c #FF9D92",
"1.	c #FF6F5E",
"2.	c #FF6A58",
"3.	c #FF6451",
"4.	c #FD6451",
"5.	c #EE5E4D",
"6.	c #CE4A3A",
"7.	c #FF968A",
"8.	c #FF9487",
"9.	c #FF8F82",
"0.	c #FF7968",
"a.	c #FF7463",
"b.	c #FF6F5D",
"c.	c #FF6450",
"d.	c #FF6552",
"e.	c #FD6653",
"f.	c #F0604E",
"g.	c #CE4A3B",
"h.	c #0029D0",
"i.	c #FF7565",
"j.	c #FF8677",
"k.	c #FF7664",
"l.	c #FF6A53",
"m.	c #FF6953",
"n.	c #FF6B55",
"o.	c #FD6B56",
"p.	c #F06350",
"q.	c #CF4C3B",
"r.	c #0035D8",
"s.	c #004BE3",
"t.	c #FF6D5D",
"u.	c #FF8B7C",
"v.	c #FF775D",
"w.	c #FF745A",
"x.	c #FF7359",
"y.	c #FF735A",
"z.	c #FD715A",
"A.	c #F16752",
"B.	c #D24E3C",
"C.	c #004DE3",
"D.	c #FF6A59",
"E.	c #FF8778",
"F.	c #FF8374",
"G.	c #FF8171",
"H.	c #FF8271",
"I.	c #FF8369",
"J.	c #FF8165",
"K.	c #FF7E61",
"L.	c #FF7D5F",
"M.	c #FF7B5F",
"N.	c #FD775D",
"O.	c #F36A53",
"P.	c #D34E3C",
"Q.	c #003AD9",
"R.	c #0051EB",
"S.	c #FF6553",
"T.	c #FF8273",
"U.	c #FF8C6C",
"V.	c #FF8969",
"W.	c #FF8665",
"X.	c #FF8262",
"Y.	c #FD7C5E",
"Z.	c #F46D54",
"`.	c #D64F3B",
" +	c #003BE0",
".+	c #0051F0",
"++	c #FF5F4D",
"@+	c #FF8070",
"#+	c #FF9279",
"$+	c #EEE9E8",
"%+	c #FF936F",
"&+	c #FF906C",
"*+	c #FF8967",
"=+	c #FE7F5F",
"-+	c #F56E52",
";+	c #D84F39",
">+	c #0040E1",
",+	c #0055F1",
"'+	c #FF5C4A",
")+	c #FF7D6E",
"!+	c #FF907A",
"~+	c #FF957C",
"{+	c #FF9A7E",
"]+	c #FF9670",
"^+	c #FF8E68",
"/+	c #FE815E",
"(+	c #F66C4F",
"_+	c #DA4D36",
":+	c #0041E8",
"<+	c #003BE2",
"[+	c #0055F4",
"}+	c #FF5744",
"|+	c #FF6857",
"1+	c #FF8672",
"2+	c #FF8F78",
"3+	c #FF967C",
"4+	c #FF9C7E",
"5+	c #FFA07E",
"6+	c #FF8E66",
"7+	c #FE7F5A",
"8+	c #F76A4B",
"9+	c #DA4A33",
"0+	c #0046EA",
"a+	c #0058F7",
"b+	c #FF523F",
"c+	c #FF7160",
"d+	c #C98A86",
"e+	c #FF836F",
"f+	c #FF8B74",
"g+	c #FF9379",
"h+	c #FF9A7C",
"i+	c #FF9E7C",
"j+	c #FFA07A",
"k+	c #C99788",
"l+	c #FF8B62",
"m+	c #FE7C56",
"n+	c #F76545",
"o+	c #DB4931",
"p+	c #0047EF",
"q+	c #005CF9",
"r+	c #FF4F3A",
"s+	c #FF5C49",
"t+	c #FF6452",
"u+	c #FF6E5E",
"v+	c #FF7462",
"w+	c #FF7C68",
"x+	c #FF846D",
"y+	c #FF8B71",
"z+	c #FF9174",
"A+	c #FF9674",
"B+	c #FF9571",
"C+	c #FF946D",
"D+	c #FF8D66",
"E+	c #FF855C",
"F+	c #FE7650",
"G+	c #F66141",
"H+	c #DA462F",
"I+	c #0060FC",
"J+	c #FA4935",
"K+	c #FB5441",
"L+	c #FC5C4A",
"M+	c #FB6150",
"N+	c #FC6554",
"O+	c #FC6756",
"P+	c #FC6A58",
"Q+	c #FC715C",
"R+	c #FC7761",
"S+	c #FD7E64",
"T+	c #FD8367",
"U+	c #FE8566",
"V+	c #FE8664",
"W+	c #FE8460",
"X+	c #FE7651",
"Y+	c #FC6B47",
"Z+	c #F2573A",
"`+	c #D4402A",
" @	c #004CF3",
".@	c #E85848",
"+@	c #ED4A37",
"@@	c #EC4F3D",
"#@	c #EE5443",
"$@	c #ED5746",
"%@	c #EE5A48",
"&@	c #EF5E4B",
"*@	c #F0644E",
"=@	c #F16750",
"-@	c #F46C52",
";@	c #F66D51",
">@	c #F66E51",
",@	c #F66C4E",
"'@	c #F86A4A",
")@	c #F76343",
"!@	c #F3583A",
"~@	c #E54930",
"{@	c #CD5140",
"]@	c #7D91C2",
"^@	c #F6D9D6",
"/@	c #D25344",
"(@	c #C93C2B",
"_@	c #CA3F2F",
":@	c #CA4131",
"<@	c #CA4333",
"[@	c #CC4332",
"}@	c #CF4434",
"|@	c #D24936",
"1@	c #D34936",
"2@	c #D84B37",
"3@	c #DA4C36",
"4@	c #DC4D36",
"5@	c #D94933",
"6@	c #DE4A32",
"7@	c #DD482F",
"8@	c #D6402A",
"9@	c #CF5140",
"0@	c #F1D8D5",
"a@	c #7D8FC1",
"b@	c #055BF6",
"c@	c #7D8EC1",
"d@	c #054FF2",
"e@	c #0057F6",
"f@	c #0051F4",
"g@	c #004CEF",
"h@	c #0046E0",
"i@	c #0043DC",
"j@	c #0040DC",
"k@	c #003DDC",
"l@	c #003EDA",
"m@	c #0038D8",
"n@	c #0043CF",
"o@	c #DAD2D0",
"p@	c #643529",
"q@	c #5A1D0D",
"r@	c #5D1E0D",
"s@	c #5F1E0E",
"t@	c #63200E",
"u@	c #68210F",
"v@	c #6F2310",
"w@	c #732511",
"x@	c #752511",
"y@	c #7C2712",
"z@	c #822912",
"A@	c #852A13",
"B@	c #892B13",
"C@	c #8A2B14",
"D@	c #8E2D14",
"E@	c #8C2C14",
"F@	c #9D4732",
"G@	c #EBD8D3",
"H@	c #69220F",
"I@	c #782611",
"J@	c #7E2812",
"K@	c #932E15",
"L@	c #9A3016",
"M@	c #9C3116",
"N@	c #A03217",
"O@	c #A43418",
"P@	c #A73518",
"Q@	c #AA3618",
"R@	c #AB3618",
"S@	c #AD3719",
"T@	c #AC3618",
"U@	c #B24E35",
"V@	c #591C0D",
"W@	c #792711",
"X@	c #8D2C14",
"Y@	c #962E15",
"Z@	c #9A2F16",
"`@	c #A13117",
" #	c #A63317",
".#	c #AA3418",
"+#	c #AF3619",
"@#	c #B23719",
"##	c #B5391A",
"$#	c #B73A1B",
"%#	c #B93B1B",
"&#	c #BA3B1B",
"*#	c #BB3B1B",
"=#	c #802812",
"-#	c #962F15",
";#	c #9E3016",
">#	c #A43216",
",#	c #AA3317",
"'#	c #AE3518",
")#	c #B5381A",
"!#	c #B8391A",
"~#	c #BA3A1B",
"{#	c #BC3B1C",
"]#	c #BD3C1C",
"^#	c #BE3D1C",
"/#	c #BF3D1C",
"(#	c #5B1D0D",
"_#	c #9C3016",
":#	c #A43217",
"<#	c #9F5A46",
"[#	c #D59485",
"}#	c #B33619",
"|#	c #B53719",
"1#	c #B8381A",
"2#	c #B9391B",
"3#	c #BA391B",
"4#	c #BC3B1B",
"5#	c #DC9887",
"6#	c #A86149",
"7#	c #611F0E",
"8#	c #A23217",
"9#	c #D79585",
"0#	c #D89585",
"a#	c #B8371A",
"b#	c #BA391A",
"c#	c #BB3A1B",
"d#	c #DD9887",
"e#	c #C03E1D",
"f#	c #65200E",
"g#	c #902D15",
"h#	c #A73418",
"i#	c #AF3518",
"j#	c #B43619",
"k#	c #D99585",
"l#	c #DA9686",
"m#	c #DB9686",
"n#	c #BC3A1B",
"o#	c #BD3B1B",
"p#	c #BE3C1C",
"q#	c #DE9987",
"r#	c #C03F1D",
"s#	c #6A220F",
"t#	c #952F15",
"u#	c #AC3518",
"v#	c #B63719",
"w#	c #DC9786",
"x#	c #C2401D",
"y#	c #C2401E",
"z#	c #C13F1D",
"A#	c #702410",
"B#	c #9B3016",
"C#	c #B03619",
"D#	c #B9381A",
"E#	c #DF9A88",
"F#	c #C4421E",
"G#	c #C5431E",
"H#	c #C5431F",
"I#	c #9E3217",
"J#	c #B4381A",
"K#	c #DF9A87",
"L#	c #C6441F",
"M#	c #C74520",
"N#	c #C7451F",
"O#	c #7B2711",
"P#	c #A13217",
"Q#	c #B7391A",
"R#	c #E09B88",
"S#	c #E29D89",
"T#	c #C94621",
"U#	c #CA4721",
"V#	c #CA4821",
"W#	c #C94620",
"X#	c #C84620",
"Y#	c #A53418",
"Z#	c #B83A1B",
"`#	c #E19D89",
" $	c #E39E89",
".$	c #E0957D",
"+$	c #CC4A22",
"@$	c #CD4A22",
"#$	c #CB4922",
"$$	c #C3411E",
"%$	c #A93618",
"&$	c #DD9987",
"*$	c #E39F8A",
"=$	c #E59F8B",
"-$	c #E5A08B",
";$	c #CE4C23",
">$	c #882B13",
",$	c #E6A08B",
"'$	c #E6A18B",
")$	c #CE4B23",
"!$	c #8B2C14",
"~$	c #AC3619",
"{$	c #B16E4F",
"]$	c #CF4C23",
"^$	c #C94721",
"/$	c #BB3C1B",
"($	c #BF3E1D",
"_$	c #CB4821",
":$	c #CD4B23",
"<$	c #CC4922",
"[$	c #8D2D14",
"}$	c #BC3C1B",
"|$	c #C84520",
"1$	c #AE3719",
"2$	c #C94720",
"3$	c #C95839",
"4$	c #EAD7D3",
"5$	c #B34E35",
"6$	c #C03E1C",
"7$	c #C9583A",
"8$	c #F3DBD4",
"  . + @ # $ % $ & # # $ * * * = * $ - ; ; = = > ",
", ' ) ) ! ~ ~ { { { > > > ] ] ^ ^ / ( _ : : _ < ",
"{ [ } | 1 1 1 1 1 1 1 1 1 1 1 1 1 1 1 2 3 4 5 6 ",
"^ 7 8 9 0 a b c d e f g h i j j k l m n o p q r ",
"/ 2 s t u v w x y z A B C D E F G h H I J | q r ",
"/ 1 K L M N O w P y Q R S C T U V W X Y Z 1 q ` ",
" .1 ..+.N @.w P 9 #.$.a %.&.*.=.-.;.>.,.'.1 6 ` ",
" .1 U ).!.~.{.1 ].D ^.c e h ;.1 /.(._.:.<.1 [.` ",
" .1 &.}.|.x 1 1 1 %.&.=.1.2.1 1 1 3.4.5.6.1 [.` ",
" .1 G 9 7.8.9.1 1 1 0.a.b.1 1 1 c.d.e.f.g.1 [.h.",
" .1 i.S z R B j.1 1 1 k.1 1 1 l.m.n.o.p.q.1 r.h.",
"s.1 t...B u.C T E 1 1 1 1 1 v.w.x.y.z.A.B.1 r.[.",
"C.1 D.U T E.j.F.G.H.1 1 1 I.J.K.L.M.N.O.P.1 Q.r.",
"R.1 S.V G.F.F.T.H.1 1 1 1 1 U.V.W.X.Y.Z.`.1  +r.",
".+1 ++e b U E @+1 1 1 #+1 1 $+%+&+*+=+-+;+1 >+ +",
",+1 '+h G &.)+1 1 1 !+~+{+1 1 1 ]+^+/+(+_+1 :+<+",
"[+1 }+|+W G 1 1 1 1+2+3+4+5+1 1 1 6+7+8+9+1 0+:+",
"a+1 b+k i c+d+1 0.e+f+g+h+i+j+1 k+l+m+n+o+1 p+:+",
"q+1 r+s+t+D.u+f v+w+x+y+z+A+B+C+D+E+F+G+H+1 p+0+",
"I+1 J+K+L+M+N+O+P+Q+R+S+T+U+V+W+7+X+Y+Z+`+1  @p+",
"I+| .@+@@@#@$@Y %@&@*@=@-@;@>@,@'@)@!@~@{@2  @p+",
"I+]@^@/@(@_@:@<@[@}@|@1@2@3@4@5@6@7@8@9@0@a@ @p+",
"q+b@]@2 1 1 1 1 1 1 1 1 1 1 1 1 1 1 1 | c@d@p+0+",
"a+e@[+f@[+f@f@[+[+[+[+.+g@.+[+f@ @ @p+p+p+p+p+p+",
"h@i@j@j@k@k@k@l@j@k@j@j@j@l@j@l@Q.Q.m@Q.r.m@r. +",
"n@n@n@n@n@n@n@n@n@n@n@n@n@n@n@n@n@n@n@n@n@n@n@ +",
"  . + @ # $ % $ & # # $ * * * = * $ - ; ; = = > ",
", ' ) ) ! ~ ~ { { { > > > ] ] ^ ^ / ( _ : : _ < ",
"{ [ } | 1 1 1 1 1 1 1 1 1 1 1 1 1 1 1 2 3 4 5 6 ",
"^ 7 o@p@q@r@s@t@u@v@w@x@y@z@A@B@C@D@E@F@G@p q r ",
"/ 2 p@H@I@J@z@C@D@K@L@M@N@O@P@Q@R@S@T@S@U@| q r ",
"/ 1 V@W@X@Y@Z@`@ #.#+#@###$#%#&#&#*#*#*#&#1 q ` ",
" .1 V@=#-#;#>#,#'#@#)#!#~#{#]#^#^#^#/#/#/#1 6 ` ",
" .1 (#A@_#:#<#[#}#|#1#2#3#4#]#5#6#^#/#/#/#1 [.` ",
" .1 7#E@8#,#[#9#0#a#b#c#4#]#d#d#d#^#e#/#/#1 [.` ",
" .1 f#g#h#i#j#k#l#m#n#o#p#d#q#q#r#e#e#e#/#1 [.h.",
" .1 s#t#u#@#v#1#m#w#w#p#d#q#q#x#y#y#x#z#e#1 r.h.",
"s.1 A#B#C#)#D#3#n#w#d#q#q#E#F#G#H#F#F#y#e#1 r.[.",
"C.1 x@I#J#!#3#c#o#p#q#K#E#H#L#M#M#N#L#F#z#1 Q.r.",
"R.1 O#P#Q#~#~#4#p#d#K#E#R#S#T#U#V#W#X#H#x#1  +r.",
".+1 =#Y#Z#{#4#]#d#q#E#H#`# $.$+$@$#$U#N#$$1 >+ +",
",+1 A@%$&#]#]#d#&$K#F#L#T#*$=$-$;$@$#$X#$$1 :+<+",
"[+1 >$Q@&#^#d#d#q#x#H#M#U#+$-$,$'$)$+$W#F#1 0+:+",
"a+1 !$~$*#^#6#&$r#y#H#M#U#+$)$'${$]$@$^$F#1 p+:+",
"q+1 !$S@/$^#^#($e#x#F#L#W#_$@$:$]$;$<$W#F#1 p+0+",
"I+1 [$S@}$/#/#e#e#x#F#H#|$U##$<$@$<$V#M#$$1  @p+",
"I+| F@1$}$/#/#/#/#e#x#F#H#M#|$2$U#^$M#H#3$2  @p+",
"I+]@4$5$&#/#/#/#/#6$z#z#x#$$$$F#F#F#$$7$8$a@ @p+",
"q+b@]@2 1 1 1 1 1 1 1 1 1 1 1 1 1 1 1 | c@d@p+0+",
"a+e@[+f@[+f@f@[+[+[+[+.+g@.+[+f@ @ @p+p+p+p+p+p+",
"h@i@j@j@k@k@k@l@j@k@j@j@j@l@j@l@Q.Q.m@Q.r.m@r. +",
"n@n@n@n@n@n@n@n@n@n@n@n@n@n@n@n@n@n@n@n@n@n@n@ +"};
