/* XPM */
static char * closeA_xpm[] = {
"24 52 358 2",
"  	c #016AFA",
". 	c #0265F9",
"+ 	c #0368F4",
"@ 	c #0365F1",
"# 	c #0160F5",
"$ 	c #005FF2",
"% 	c #005AF5",
"& 	c #005BF2",
"* 	c #0060EE",
"= 	c #005CEC",
"- 	c #0055EA",
"; 	c #0058EB",
"> 	c #0054E3",
", 	c #0361EB",
"' 	c #0161EA",
") 	c #025DE9",
"! 	c #005AE7",
"~ 	c #0058E6",
"{ 	c #0055E5",
"] 	c #0053E1",
"^ 	c #0050E0",
"/ 	c #014DDC",
"( 	c #004ADC",
"_ 	c #004AD8",
": 	c #0047D7",
"< 	c #0043D3",
"[ 	c #0556E3",
"} 	c #6693E9",
"| 	c #E5ECFB",
"1 	c #FFFFFF",
"2 	c #668AE0",
"3 	c #0540CD",
"4 	c #003DCC",
"5 	c #0037CB",
"6 	c #6691E7",
"7 	c #FAE1DC",
"8 	c #EB8B73",
"9 	c #E97B60",
"0 	c #E77155",
"a 	c #E66A4D",
"b 	c #E56648",
"c 	c #E46142",
"d 	c #E46344",
"e 	c #E45F3E",
"f 	c #E35C3B",
"g 	c #E25633",
"h 	c #E25330",
"i 	c #E04D28",
"j 	c #DC451F",
"k 	c #D05334",
"l 	c #EFD8D2",
"m 	c #6687DF",
"n 	c #0031C6",
"o 	c #0032C1",
"p 	c #EC8D76",
"q 	c #EFA390",
"r 	c #F0A694",
"s 	c #EE9A85",
"t 	c #EB8D75",
"u 	c #EA876E",
"v 	c #EA8168",
"w 	c #E97F66",
"x 	c #E97C62",
"y 	c #E8795F",
"z 	c #E8795E",
"A 	c #E87559",
"B 	c #E77256",
"C 	c #E66E50",
"D 	c #E56849",
"E 	c #E4603F",
"F 	c #E05532",
"G 	c #D04623",
"H 	c #B64B30",
"I 	c #E5EAF9",
"J 	c #E97F65",
"K 	c #F0A997",
"L 	c #F1AC9A",
"M 	c #EE9D89",
"N 	c #EC917A",
"O 	c #EB8B72",
"P 	c #EA856D",
"Q 	c #E98168",
"R 	c #E87E65",
"S 	c #E97B61",
"T 	c #E8775D",
"U 	c #E87459",
"V 	c #E66F52",
"W 	c #E56A4C",
"X 	c #E46343",
"Y 	c #E15937",
"Z 	c #D24A28",
"` 	c #AA3315",
" .	c #002CC8",
"..	c #004BE0",
"+.	c #E87458",
"@.	c #EFA18D",
"#.	c #ED957F",
"$.	c #EB8A71",
"%.	c #EA836A",
"&.	c #E97D64",
"*.	c #E8785E",
"=.	c #E77359",
"-.	c #E76F54",
";.	c #E66D51",
">.	c #E5684B",
",.	c #E5684A",
"'.	c #E35C3A",
").	c #E05634",
"!.	c #D24C2A",
"~.	c #AC3618",
"{.	c #E76F52",
"].	c #EC9179",
"^.	c #EC937C",
"/.	c #F7CCC2",
"(.	c #E77259",
"_.	c #E76D53",
":.	c #E5684D",
"<.	c #E46446",
"[.	c #E45F41",
"}.	c #E35B3A",
"|.	c #E35938",
"1.	c #F3BBAD",
"2.	c #E25531",
"3.	c #DF5330",
"4.	c #D34E2C",
"5.	c #AD3A1D",
"6.	c #0036D2",
"7.	c #EB876E",
"8.	c #EB8A70",
"9.	c #E46447",
"0.	c #E45F40",
"a.	c #E25634",
"b.	c #E2522D",
"c.	c #DF522E",
"d.	c #D34D2C",
"e.	c #E56546",
"f.	c #E97E65",
"g.	c #E8775E",
"h.	c #E46143",
"i.	c #E45D3D",
"j.	c #E35836",
"k.	c #E24E27",
"l.	c #E2502A",
"m.	c #E0512C",
"n.	c #D34D2A",
"o.	c #AD391C",
"p.	c #0029D0",
"q.	c #E87A60",
"r.	c #E87C62",
"s.	c #E8745B",
"t.	c #E76E54",
"u.	c #E24D24",
"v.	c #E24B22",
"w.	c #E24D25",
"x.	c #E05029",
"y.	c #D44C29",
"z.	c #AE391B",
"A.	c #0035D8",
"B.	c #004BE3",
"C.	c #E35D3C",
"D.	c #E8765D",
"E.	c #E66F53",
"F.	c #E56B4E",
"G.	c #E45127",
"H.	c #E44F23",
"I.	c #E34C20",
"J.	c #E34D22",
"K.	c #E14F25",
"L.	c #D54A25",
"M.	c #AF3719",
"N.	c #004DE3",
"O.	c #E35937",
"P.	c #E76D51",
"Q.	c #E87257",
"R.	c #E87359",
"S.	c #E77157",
"T.	c #E66E52",
"U.	c #E56747",
"V.	c #E5572C",
"W.	c #E55326",
"X.	c #E55022",
"Y.	c #E54D1E",
"Z.	c #E54D1F",
"`.	c #E24E21",
" +	c #D64921",
".+	c #AF3516",
"++	c #003AD9",
"@+	c #0051EB",
"#+	c #E25432",
"$+	c #E5694B",
"%+	c #E77054",
"&+	c #E77156",
"*+	c #E87055",
"=+	c #E66C4D",
"-+	c #E75526",
";+	c #E75221",
">+	c #E64E1C",
",+	c #E64D1C",
"'+	c #E34C1C",
")+	c #D6461C",
"!+	c #B03312",
"~+	c #003BE0",
"{+	c #0051F0",
"]+	c #E14F2B",
"^+	c #E66B4E",
"/+	c #E76F53",
"(+	c #E66E51",
"_+	c #E7653D",
":+	c #FEF5F1",
"<+	c #E85421",
"[+	c #E8501B",
"}+	c #E74D18",
"|+	c #E44A18",
"1+	c #D74216",
"2+	c #B2310F",
"3+	c #0040E1",
"4+	c #0055F1",
"5+	c #E04B25",
"6+	c #E35E3D",
"7+	c #E56748",
"8+	c #E66C4E",
"9+	c #E66D50",
"0+	c #E76842",
"a+	c #E7653C",
"b+	c #E86236",
"c+	c #E95019",
"d+	c #E84C16",
"e+	c #E44713",
"f+	c #D83F10",
"g+	c #B12D0A",
"h+	c #0041E8",
"i+	c #003BE2",
"j+	c #0055F4",
"k+	c #DF451E",
"l+	c #E25836",
"m+	c #E46242",
"n+	c #E56749",
"o+	c #E66845",
"p+	c #E76741",
"q+	c #E7643B",
"r+	c #E86235",
"s+	c #EA5E2D",
"t+	c #E94A11",
"u+	c #E6440D",
"v+	c #D73B0B",
"w+	c #B12B06",
"x+	c #0046EA",
"y+	c #0058F7",
"z+	c #DE4018",
"A+	c #E1512E",
"B+	c #F5C1B5",
"C+	c #E66543",
"D+	c #E66541",
"E+	c #E6643D",
"F+	c #E76238",
"G+	c #E86032",
"H+	c #E95C2A",
"I+	c #EA5924",
"J+	c #F7B8A1",
"K+	c #E9480E",
"L+	c #E54009",
"M+	c #D73605",
"N+	c #B02702",
"O+	c #0047EF",
"P+	c #005CF9",
"Q+	c #DD3C14",
"R+	c #E15431",
"S+	c #E35B39",
"T+	c #E45E3D",
"U+	c #E45F3D",
"V+	c #E45E3B",
"W+	c #E55E39",
"X+	c #E55E37",
"Y+	c #E65D32",
"Z+	c #E75B2C",
"`+	c #E85725",
" @	c #E9541F",
".@	c #E8440B",
"+@	c #E43D05",
"@@	c #D63302",
"#@	c #AF2601",
"$@	c #0060FC",
"%@	c #D8370E",
"&@	c #DB431C",
"*@	c #DD4C28",
"=@	c #DE522F",
"-@	c #DF5533",
";@	c #E05734",
">@	c #E05531",
",@	c #E05631",
"'@	c #E1562E",
")@	c #E2552A",
"!@	c #E45325",
"~@	c #E4501F",
"{@	c #E54C19",
"]@	c #E54813",
"^@	c #E5430D",
"/@	c #E43E07",
"(@	c #E03802",
"_@	c #D12F00",
":@	c #AA2300",
"<@	c #004CF3",
"[@	c #E5EDFD",
"}@	c #CD4928",
"|@	c #CC3813",
"1@	c #CC3E1B",
"2@	c #CF4421",
"3@	c #CF4725",
"4@	c #CF4726",
"5@	c #CF4624",
"6@	c #D04723",
"7@	c #D14621",
"8@	c #D2451E",
"9@	c #D5451B",
"0@	c #D54216",
"a@	c #D64013",
"b@	c #D53D0E",
"c@	c #D63909",
"d@	c #D53504",
"e@	c #D13001",
"f@	c #C22A00",
"g@	c #AB3C1F",
"h@	c #6697F3",
"i@	c #EED6D0",
"j@	c #B54428",
"k@	c #A62B0D",
"l@	c #AC3011",
"m@	c #AB3112",
"n@	c #A93214",
"o@	c #A93012",
"p@	c #AC3213",
"q@	c #AD3213",
"r@	c #AE3110",
"s@	c #B1300D",
"t@	c #B22E0A",
"u@	c #B42D08",
"v@	c #B12A06",
"w@	c #B12803",
"x@	c #B42701",
"y@	c #AE2400",
"z@	c #AC3C1F",
"A@	c #EAD4CF",
"B@	c #6693F1",
"C@	c #055BF6",
"D@	c #6696F2",
"E@	c #E5ECFC",
"F@	c #6690F1",
"G@	c #054FF2",
"H@	c #0057F6",
"I@	c #0051F4",
"J@	c #004CEF",
"K@	c #0046E0",
"L@	c #0043DC",
"M@	c #0040DC",
"N@	c #003DDC",
"O@	c #003EDA",
"P@	c #0038D8",
"Q@	c #0043CF",
"  . + @ # $ % $ & # # $ * * * = * $ - ; ; = = > ",
", ' ) ) ! ~ ~ { { { > > > ] ] ^ ^ / ( _ : : _ < ",
"{ [ } | 1 1 1 1 1 1 1 1 1 1 1 1 1 1 1 1 2 3 4 5 ",
"^ 6 7 8 9 0 a b c d e e f f g g h i j k l m n o ",
"/ 1 p q r s t u v w x y z A B C D E F G H I n o ",
"/ 1 J K L M N O P Q R x S T U V W X Y Z ` 1 n  .",
"..1 +.M @.#.$.%.&.*.=.-.;.>.,.d E '.).!.~.1 5  .",
"..1 {.].^.$./.1 (._.:.<.[.}.|.1 1.2.3.4.5.1 6. .",
"..1 a 7.8.%.1 1 1 :.9.0.}.a.1 1 1 b.c.d.5.1 6. .",
"..1 e.Q %.f.g.1 1 1 h.i.j.1 1 1 k.l.m.n.o.1 6.p.",
"..1 e.q.r.q.s.t.1 1 1 '.1 1 1 u.v.w.x.y.z.1 A.p.",
"B.1 C.U T D.(.E.F.1 1 1 1 1 G.H.I.J.K.L.M.1 A.6.",
"N.1 O.P.Q.R.S.T.a U.1 1 1 V.W.X.Y.Z.`. +.+1 ++A.",
"@+1 #+$+%+&+*+{.=+1 1 1 1 1 -+;+>+,+'+)+!+1 ~+A.",
"{+1 ]+d ^+{./+(+1 1 1 _+1 1 :+<+[+}+|+1+2+1 3+~+",
"4+1 5+6+7+8+9+1 1 1 0+a+b+1 1 1 c+d+e+f+g+1 h+i+",
"j+1 k+l+m+n+1 1 1 o+p+q+r+s+1 1 1 t+u+v+w+1 x+h+",
"y+1 z+A+'.m+B+1 C+D+E+F+G+H+I+1 J+K+L+M+N+1 O+h+",
"P+1 Q+5+R+S+T+U+V+W+X+Y+Z+`+ @c+t+.@+@@@#@1 O+x+",
"$@1 %@&@*@=@-@;@>@,@'@)@!@~@{@]@^@/@(@_@:@1 <@O+",
"$@[@}@|@1@2@3@4@5@6@7@8@9@0@a@b@c@d@e@f@g@1 <@O+",
"$@h@i@j@k@l@m@n@o@p@q@r@s@t@u@v@w@x@y@z@A@B@<@O+",
"P+C@D@1 1 1 1 1 1 1 1 1 1 1 1 1 1 1 1 E@F@G@O+x+",
"y+H@j+I@j+I@I@j+j+j+j+{+J@{+j+I@<@<@O+O+O+O+O+O+",
"K@L@M@M@N@N@N@O@M@N@M@M@M@O@M@O@++++P@++A.P@A.~+",
"Q@Q@Q@Q@Q@Q@Q@Q@Q@Q@Q@Q@Q@Q@Q@Q@Q@Q@Q@Q@Q@Q@Q@~+",
"  . + @ # $ % $ & # # $ * * * = * $ - ; ; = = > ",
", ' ) ) ! ~ ~ { { { > > > ] ] ^ ^ / ( _ : : _ < ",
"{ [ } | 1 1 1 1 1 1 1 1 1 1 1 1 1 1 1 1 2 3 4 5 ",
"^ 6 7 8 9 0 a b c d e e f f g g h i j k l m n o ",
"/ 1 p q r s t u v w x y z A B C D E F G H I n o ",
"/ 1 J K L M N O P Q R x S T U V W X Y Z ` 1 n  .",
"..1 +.M @.#.$.%.&.*.=.-.;.>.,.d E '.).!.~.1 5  .",
"..1 {.].^.$./.1 (._.:.<.[.}.|.1 1.2.3.4.5.1 6. .",
"..1 a 7.8.%.1 1 1 :.9.0.}.a.1 1 1 b.c.d.5.1 6. .",
"..1 e.Q %.f.g.1 1 1 h.i.j.1 1 1 k.l.m.n.o.1 6.p.",
"..1 e.q.r.q.s.t.1 1 1 '.1 1 1 u.v.w.x.y.z.1 A.p.",
"B.1 C.U T D.(.E.F.1 1 1 1 1 G.H.I.J.K.L.M.1 A.6.",
"N.1 O.P.Q.R.S.T.a U.1 1 1 V.W.X.Y.Z.`. +.+1 ++A.",
"@+1 #+$+%+&+*+{.=+1 1 1 1 1 -+;+>+,+'+)+!+1 ~+A.",
"{+1 ]+d ^+{./+(+1 1 1 _+1 1 :+<+[+}+|+1+2+1 3+~+",
"4+1 5+6+7+8+9+1 1 1 0+a+b+1 1 1 c+d+e+f+g+1 h+i+",
"j+1 k+l+m+n+1 1 1 o+p+q+r+s+1 1 1 t+u+v+w+1 x+h+",
"y+1 z+A+'.m+B+1 C+D+E+F+G+H+I+1 J+K+L+M+N+1 O+h+",
"P+1 Q+5+R+S+T+U+V+W+X+Y+Z+`+ @c+t+.@+@@@#@1 O+x+",
"$@1 %@&@*@=@-@;@>@,@'@)@!@~@{@]@^@/@(@_@:@1 <@O+",
"$@[@}@|@1@2@3@4@5@6@7@8@9@0@a@b@c@d@e@f@g@1 <@O+",
"$@h@i@j@k@l@m@n@o@p@q@r@s@t@u@v@w@x@y@z@A@B@<@O+",
"P+C@D@1 1 1 1 1 1 1 1 1 1 1 1 1 1 1 1 E@F@G@O+x+",
"y+H@j+I@j+I@I@j+j+j+j+{+J@{+j+I@<@<@O+O+O+O+O+O+",
"K@L@M@M@N@N@N@O@M@N@M@M@M@O@M@O@++++P@++A.P@A.~+",
"Q@Q@Q@Q@Q@Q@Q@Q@Q@Q@Q@Q@Q@Q@Q@Q@Q@Q@Q@Q@Q@Q@Q@~+"};
