/* XPM */
static char * frameIBL_xpm[] = {
"6 6 5 1",
" 	c #5B68CD",
".	c #7480DC",
"+	c #7589DE",
"@	c #6D74CD",
"#	c #4F53BC",
"  ..++",
"  ..++",
"  @@@@",
"  @@@@",
"  ####",
"  ####"};
