/* XPM */
static char * frameATR_xpm[] = {
"6 6 18 1",
" 	c None",
".	c #003FD2",
"+	c #066CFC",
"@	c #0031C6",
"#	c #076FFD",
"$	c #0058F3",
"%	c #003BD2",
"&	c #005CEC",
"*	c #0054E3",
"=	c #0043D3",
"-	c #003DDC",
";	c #0047D7",
">	c #004AD8",
",	c #0037CB",
"'	c #0018AB",
")	c #003DCC",
"!	c #0032C1",
"~	c #0015A0",
".     ",
"+.@   ",
"##$%  ",
"&&*=- ",
";>=,' ",
")),!!~"};
