/* XPM */
static char * frameITR_xpm[] = {
"6 6 23 1",
" 	c None",
".	c #4D6BD1",
"+	c #7993DE",
"@	c #5E7DD8",
"#	c #485ECA",
"$	c #81A2E6",
"%	c #7B97E0",
"&	c #7084D7",
"*	c #5063CC",
"=	c #7C9DE1",
"-	c #7B99E1",
";	c #768EDB",
">	c #6B78D0",
",	c #4756C8",
"'	c #788EDB",
")	c #7689D9",
"!	c #707AD2",
"~	c #5B68CD",
"{	c #7584D8",
"]	c #767FD8",
"^	c #727AD2",
"/	c #6F71CD",
"(	c #5B5EC5",
".     ",
"+@#   ",
"$%&*  ",
"=-;>, ",
"'')!~ ",
"{{]^/("};
