/* XPM */
static char * frameATL_xpm[] = {
"6 6 13 1",
" 	c None",
".	c #004BCD",
"+	c #014CD0",
"@	c #0667F4",
"#	c #025DE9",
"$	c #026CF1",
"%	c #0041CA",
"&	c #0050E2",
"*	c #0053DA",
"=	c #0165EB",
"-	c #005ADF",
";	c #0032C1",
">	c #004ADC",
"     .",
"   ++@",
"  +#@$",
" %&*==",
" %.---",
";>.***"};
