/* XPM */
static char * frameITL_xpm[] = {
"6 6 18 1",
" 	c None",
".	c #4D6BD1",
"+	c #485ECA",
"@	c #5E7DD8",
"#	c #7793DB",
"$	c #5063CC",
"%	c #6585DC",
"&	c #7999DE",
"*	c #7DA4E3",
"=	c #7A9DDF",
"-	c #7BA0E1",
";	c #5B6FCF",
">	c #7084D7",
",	c #7895DD",
"'	c #5B68CD",
")	c #6B78D0",
"!	c #7689D9",
"~	c #768ED8",
"     .",
"   +@#",
"  $%&*",
" +%#=-",
" ;>#,,",
"')!~~#"};
