/* XPM */
static char * frameIBR_xpm[] = {
"6 6 3 1",
" 	c #7382D9",
".	c #6D74CD",
"+	c #4F53BC",
"  ..++",
"  ..++",
"....++",
"....++",
"++++++",
"++++++"};
