/* XPM */
static char * frameABL_xpm[] = {
"6 6 7 1",
" 	c #0019CF",
".	c #0831D9",
"+	c #1252E5",
"@	c #0016AE",
"#	c #001EA0",
"$	c #001499",
"%	c #00138C",
"  ..++",
"  ..++",
"@@####",
"@@####",
"$$%%%%",
"$$%%%%"};
