/* XPM */
static char * frameIB_xpm[] = {
"3 3 4 1",
" 	c #7586DC",
".	c #7587DD",
"+	c #6D74CD",
"@	c #4F53BC",
"  .",
"+++",
"@@@"};
