/* XPM */
static char * frameABR_xpm[] = {
"6 6 5 1",
" 	c #002DBE",
".	c #001DA0",
"+	c #00138C",
"@	c #001EA1",
"#	c #001B9B",
"  ..++",
"  ..++",
"@@##++",
"@@##++",
"++++++",
"++++++"};
