/* XPM */
static char * frameAB_xpm[] = {
"3 3 4 1",
" 	c #0048F1",
".	c #001EA1",
"+	c #001EA0",
"@	c #00138C",
"   ",
"..+",
"@@@"};
