/* XPM */
static char * maximizeA_xpm[] = {
"23 52 325 2",
"  	c #016CFE",
". 	c #0372FF",
"+ 	c #0073FD",
"@ 	c #0365F1",
"# 	c #0363EC",
"$ 	c #005CE9",
"% 	c #0059E2",
"& 	c #6F83BE",
"* 	c #E8E9ED",
"= 	c #FFFFFF",
"- 	c #6E80B9",
"; 	c #0056DF",
"> 	c #0058E6",
", 	c #6E81BB",
"' 	c #DCE5FD",
") 	c #739AF8",
"! 	c #608CF7",
"~ 	c #5584F6",
"{ 	c #4D7EF6",
"] 	c #487AF5",
"^ 	c #4276F5",
"/ 	c #4478F5",
"( 	c #3E73F5",
"_ 	c #3B71F5",
": 	c #336CF4",
"< 	c #306AF4",
"[ 	c #2864F4",
"} 	c #1F5DEF",
"| 	c #3467E0",
"1 	c #D2DBF2",
"2 	c #6E7DB5",
"3 	c #0050E2",
"4 	c #0053E1",
"5 	c #769CF8",
"6 	c #90AFF9",
"7 	c #94B2F9",
"8 	c #85A7F8",
"9 	c #759CF8",
"0 	c #6E97F8",
"a 	c #6892F7",
"b 	c #6690F7",
"c 	c #628EF7",
"d 	c #5F8CF7",
"e 	c #5E8BF7",
"f 	c #5988F6",
"g 	c #5685F6",
"h 	c #5082F6",
"i 	c #497CF5",
"j 	c #3F75F5",
"k 	c #326BF2",
"l 	c #235CE3",
"m 	c #305CC5",
"n 	c #E8E9EC",
"o 	c #0050E0",
"p 	c #6590F7",
"q 	c #97B4F9",
"r 	c #9AB7FA",
"s 	c #89AAF9",
"t 	c #7AA0F8",
"u 	c #729AF8",
"v 	c #6D95F8",
"w 	c #6892F8",
"x 	c #658FF7",
"y 	c #618DF7",
"z 	c #5D8AF7",
"A 	c #5987F6",
"B 	c #5283F6",
"C 	c #4C7EF6",
"D 	c #4377F5",
"E 	c #376EF2",
"F 	c #285FE3",
"G 	c #1546B9",
"H 	c #5886F6",
"I 	c #8DADF9",
"J 	c #7FA3F8",
"K 	c #7199F8",
"L 	c #6A93F8",
"M 	c #648EF7",
"N 	c #5E8AF7",
"O 	c #5986F7",
"P 	c #5482F6",
"Q 	c #5180F6",
"R 	c #4B7CF5",
"S 	c #4A7CF5",
"T 	c #3A72F4",
"U 	c #346CF2",
"V 	c #2A61E3",
"W 	c #1848BB",
"X 	c #004BE0",
"Y 	c #0055E5",
"Z 	c #5282F6",
"` 	c #799FF8",
" .	c #7CA1F8",
"..	c #316BF4",
"+.	c #3069F1",
"@.	c #2C62E4",
"#.	c #1D4CBC",
"$.	c #0051E5",
"%.	c #7099F8",
"&.	c #2D69F5",
"*.	c #2E69F2",
"=.	c #2C63E5",
"-.	c #4679F5",
";.	c #658FF8",
">.	c #2A68F5",
",.	c #2C69F2",
"'.	c #2A62E4",
").	c #1C4CBD",
"!.	c #628DF8",
"~.	c #608BF7",
"{.	c #5482F7",
"].	c #4E7CF6",
"^.	c #4778F6",
"/.	c #4174F5",
"(.	c #3A71F5",
"_.	c #346EF4",
":.	c #2D6BF5",
"<.	c #2869F5",
"[.	c #2467F5",
"}.	c #2567F5",
"|.	c #2968F2",
"1.	c #2963E4",
"2.	c #1B4BBD",
"3.	c #0055EA",
"4.	c #3C72F4",
"5.	c #5D89F7",
"6.	c #5381F6",
"7.	c #4E7EF6",
"8.	c #477AF5",
"9.	c #4178F5",
"0.	c #3A74F5",
"a.	c #3472F5",
"b.	c #2C6FF5",
"c.	c #276CF5",
"d.	c #236AF6",
"e.	c #2268F5",
"f.	c #2569F2",
"g.	c #2562E6",
"h.	c #194BBE",
"i.	c #004DE3",
"j.	c #376EF4",
"k.	c #5181F6",
"l.	c #5785F7",
"m.	c #5281F6",
"n.	c #477BF6",
"o.	c #4179F6",
"p.	c #3B77F5",
"q.	c #3474F5",
"r.	c #2C72F6",
"s.	c #266FF6",
"t.	c #226DF6",
"u.	c #1F6AF6",
"v.	c #216AF3",
"w.	c #2162E6",
"x.	c #1649BE",
"y.	c #0058EE",
"z.	c #326BF4",
"A.	c #4B7DF5",
"B.	c #5483F6",
"C.	c #5684F7",
"D.	c #4D80F6",
"E.	c #487DF6",
"F.	c #427CF6",
"G.	c #3C7AF6",
"H.	c #3478F6",
"I.	c #2D76F6",
"J.	c #2673F7",
"K.	c #2171F7",
"L.	c #1C6DF6",
"M.	c #1C6AF4",
"N.	c #1C61E6",
"O.	c #1248BF",
"P.	c #0051EB",
"Q.	c #0058F3",
"R.	c #2B66F4",
"S.	c #4E7FF6",
"T.	c #5182F6",
"U.	c #4D81F7",
"V.	c #487FF6",
"W.	c #437FF6",
"X.	c #3D7EF6",
"Y.	c #357CF6",
"Z.	c #2D7AF7",
"`.	c #2677F7",
" +	c #2174F7",
".+	c #186EF7",
"++	c #186AF4",
"@+	c #165FE7",
"#+	c #0F47C0",
"$+	c #0051F0",
"%+	c #005AF5",
"&+	c #2562F3",
"*+	c #3D73F4",
"=+	c #487BF5",
"-+	c #4E80F6",
";+	c #4E81F6",
">+	c #4B80F6",
",+	c #477FF6",
"'+	c #427FF6",
")+	c #3C7FF6",
"!+	c #367FF7",
"~+	c #2D7CF7",
"{+	c #2679F8",
"]+	c #2077F7",
"^+	c #166FF7",
"/+	c #1369F4",
"(+	c #105DE8",
"_+	c #0A44BF",
":+	c #0055F1",
"<+	c #0060F9",
"[+	c #1E5DF3",
"}+	c #366EF4",
"|+	c #497BF5",
"1+	c #4A7EF7",
"2+	c #487EF6",
"3+	c #457FF6",
"4+	c #4180F6",
"5+	c #3B7FF6",
"6+	c #357FF7",
"7+	c #2D7DF7",
"8+	c #257AF8",
"9+	c #1E77F8",
"0+	c #116DF7",
"a+	c #0D66F4",
"b+	c #0B59E7",
"c+	c #0641C0",
"d+	c #0055F4",
"e+	c #0060FC",
"f+	c #1859F3",
"g+	c #2E68F4",
"h+	c #3A71F4",
"i+	c #4277F5",
"j+	c #0E6CF8",
"k+	c #0963F4",
"l+	c #0556E7",
"m+	c #023FBF",
"n+	c #0059F8",
"o+	c #0065FD",
"p+	c #1456F3",
"q+	c #2562F4",
"r+	c #3971F4",
"s+	c #3D74F5",
"t+	c #3D74F6",
"u+	c #3B75F5",
"v+	c #3976F5",
"w+	c #3777F5",
"x+	c #3278F6",
"y+	c #2C78F7",
"z+	c #2577F7",
"A+	c #1F76F7",
"B+	c #1972F7",
"C+	c #116EF8",
"D+	c #0B68F7",
"E+	c #0560F4",
"F+	c #0253E6",
"G+	c #013DBE",
"H+	c #005CF9",
"I+	c #026AFE",
"J+	c #0E50ED",
"K+	c #1C5BEF",
"L+	c #2863F0",
"M+	c #2F68F0",
"N+	c #336BF1",
"O+	c #346CF1",
"P+	c #316CF2",
"Q+	c #316DF2",
"R+	c #2E6FF2",
"S+	c #2A70F2",
"T+	c #2570F3",
"U+	c #1F6FF3",
"V+	c #196DF4",
"W+	c #136AF4",
"X+	c #0760F3",
"Y+	c #025AF0",
"Z+	c #004DE2",
"`+	c #003AB9",
" @	c #E8E9EE",
".@	c #285EDF",
"+@	c #134FDF",
"@@	c #1B55DF",
"#@	c #215AE2",
"$@	c #255CE1",
"%@	c #265DE0",
"&@	c #245CE1",
"*@	c #235EE2",
"=@	c #215EE2",
"-@	c #1E5EE2",
";@	c #1B5FE5",
">@	c #165EE5",
",@	c #135DE6",
"'@	c #0E5BE5",
")@	c #0958E6",
"!@	c #0454E6",
"~@	c #014EE2",
"{@	c #0045D3",
"]@	c #1F4EB8",
"^@	c #6F86C8",
"/@	c #D0DAF1",
"(@	c #2856C3",
"_@	c #0D3FB6",
":@	c #1144BD",
"<@	c #1245BB",
"[@	c #1445B9",
"}@	c #1244B9",
"|@	c #1345BC",
"1@	c #1346BD",
"2@	c #1045BE",
"3@	c #0D45C0",
"4@	c #0A45C1",
"5@	c #0844C3",
"6@	c #033FC0",
"7@	c #013FC3",
"8@	c #003BBE",
"9@	c #1F4EB9",
"0@	c #CFD8ED",
"a@	c #6E81C5",
"b@	c #0061F5",
"c@	c #6E85C7",
"d@	c #005BF1",
"e@	c #0057F6",
"f@	c #0058F7",
"g@	c #0046E0",
"h@	c #004BE3",
"i@	c #0143CF",
"j@	c #0043CF",
"                              .   + . + + + + ",
"@ @ @ @ @ @ @ @ @ @ @ @ @ @ @ @ @ @ @ @ @ # # ",
"$ % & * = = = = = = = = = = = = = = = = - ; > ",
"> , ' ) ! ~ { ] ^ / ( ( _ _ : : < [ } | 1 2 3 ",
"4 = 5 6 7 8 9 0 a b c d e f g h i j k l m n o ",
"4 = p q r s t u v w x c y z A B C D E F G = o ",
"4 = H s I J K L M N O P Q R S / j T U V W = X ",
"Y = Z `  .K = = = = = = = = = = = ..+.@.#.= X ",
"$.= { 0 %.L = = = = = = = = = = = &.*.=.#.= X ",
"Y = -.w L ;.= = = = = = = = = = = >.,.'.).= X ",
"Y = -.! !.~.= {.].^./.(._.:.<.[.= }.|.1.2.= X ",
"3.= 4.A z 5.= 6.7.8.9.0.a.b.c.d.= e.f.g.h.= i.",
"3.= j.k.l.O = m.{ n.o.p.q.r.s.t.= u.v.w.x.= $.",
"y.= z.A.B.C.= Z D.E.F.G.H.I.J.K.= L.M.N.O.= P.",
"Q.= R./ S.Z = T.U.V.W.X.Y.Z.`. += .+++@+#+= $+",
"%+= &+*+=+-+= ;+>+,+'+)+!+~+{+]+= ^+/+(+_+= :+",
"<+= [+}+^ |+= 1+2+3+4+5+6+7+8+9+= 0+a+b+c+= d+",
"e+= f+g+h+i+= = = = = = = = = = = j+k+l+m+= n+",
"o+= p+q+..r+s+t+u+v+w+x+y+z+A+B+C+D+E+F+G+= H+",
"I+= J+K+L+M+N+O+P+Q+R+S+T+U+V+W+a+X+Y+Z+`+= e+",
"I+ @.@+@@@#@$@%@&@*@=@-@;@>@,@'@)@!@~@{@]@= e+",
"I+^@/@(@_@:@<@[@}@|@1@2@3@4@5@c+6@7@8@9@0@a@e+",
"o+b@c@= = = = = = = = = = = = = = = =  @a@d@H+",
"<+<+<+<+<+<+<+<+<+<+<+<+<+<+<+H+e+H+n+%+Q.e@f@",
"g@g@g@g@g@g@g@g@g@g@g@g@g@g@g@X h@g@g@g@g@g@g@",
"i@i@i@i@i@i@i@i@i@i@i@i@i@i@i@i@j@j@j@j@j@j@j@",
"                              .   + . + + + + ",
"@ @ @ @ @ @ @ @ @ @ @ @ @ @ @ @ @ @ @ @ @ # # ",
"$ % & * = = = = = = = = = = = = = = = = - ; > ",
"> , ' ) ! ~ { ] ^ / ( ( _ _ : : < [ } | 1 2 3 ",
"4 = 5 6 7 8 9 0 a b c d e f g h i j k l m n o ",
"4 = p q r s t u v w x c y z A B C D E F G = o ",
"4 = H s I J K L M N O P Q R S / j T U V W = X ",
"Y = Z `  .K = = = = = = = = = = = ..+.@.#.= X ",
"$.= { 0 %.L = = = = = = = = = = = &.*.=.#.= X ",
"Y = -.w L ;.= = = = = = = = = = = >.,.'.).= X ",
"Y = -.! !.~.= {.].^./.(._.:.<.[.= }.|.1.2.= X ",
"3.= 4.A z 5.= 6.7.8.9.0.a.b.c.d.= e.f.g.h.= i.",
"3.= j.k.l.O = m.{ n.o.p.q.r.s.t.= u.v.w.x.= $.",
"y.= z.A.B.C.= Z D.E.F.G.H.I.J.K.= L.M.N.O.= P.",
"Q.= R./ S.Z = T.U.V.W.X.Y.Z.`. += .+++@+#+= $+",
"%+= &+*+=+-+= ;+>+,+'+)+!+~+{+]+= ^+/+(+_+= :+",
"<+= [+}+^ |+= 1+2+3+4+5+6+7+8+9+= 0+a+b+c+= d+",
"e+= f+g+h+i+= = = = = = = = = = = j+k+l+m+= n+",
"o+= p+q+..r+s+t+u+v+w+x+y+z+A+B+C+D+E+F+G+= H+",
"I+= J+K+L+M+N+O+P+Q+R+S+T+U+V+W+a+X+Y+Z+`+= e+",
"I+ @.@+@@@#@$@%@&@*@=@-@;@>@,@'@)@!@~@{@]@= e+",
"I+^@/@(@_@:@<@[@}@|@1@2@3@4@5@c+6@7@8@9@0@a@e+",
"o+b@c@= = = = = = = = = = = = = = = =  @a@d@H+",
"<+<+<+<+<+<+<+<+<+<+<+<+<+<+<+H+e+H+n+%+Q.e@f@",
"g@g@g@g@g@g@g@g@g@g@g@g@g@g@g@X h@g@g@g@g@g@g@",
"i@i@i@i@i@i@i@i@i@i@i@i@i@i@i@i@j@j@j@j@j@j@j@"};
