/* XPM */
static char * maximizeI_xpm[] = {
"23 52 368 2",
"  	c #7EA2E4",
". 	c #7B9AE1",
"+ 	c #7A9AE0",
"@ 	c #7999DE",
"# 	c #A1B7E9",
"$ 	c #BCCBF0",
"% 	c #BDCCF0",
"& 	c #BDCBEF",
"* 	c #BDCAEF",
"= 	c #BDCAEE",
"- 	c #BCC9EE",
"; 	c #BCC8EE",
"> 	c #BCC8ED",
", 	c #BCC7ED",
"' 	c #A0B1E5",
") 	c #7A94DD",
"! 	c #7A96DF",
"~ 	c #7996DE",
"{ 	c #A0B5E8",
"] 	c #AABDED",
"^ 	c #7597EB",
"/ 	c #6C8FEA",
"( 	c #668BE9",
"_ 	c #6287E9",
": 	c #6085E8",
"< 	c #5D82E8",
"[ 	c #5D83E8",
"} 	c #5A80E8",
"| 	c #597FE8",
"1 	c #557CE7",
"2 	c #547BE7",
"3 	c #537AE7",
"4 	c #4E76E6",
"5 	c #4A71E3",
"6 	c #5475DC",
"7 	c #A4B0E4",
"8 	c #9EACE4",
"9 	c #7993DE",
"0 	c #7895DD",
"a 	c #BBC8EE",
"b 	c #7696EA",
"c 	c #849FEA",
"d 	c #86A1EA",
"e 	c #7E9BE9",
"f 	c #7695E9",
"g 	c #7292E9",
"h 	c #6F8FE9",
"i 	c #6E8DE8",
"j 	c #6C8CE8",
"k 	c #6A8BE8",
"l 	c #6A8AE8",
"m 	c #6788E8",
"n 	c #6686E8",
"o 	c #6384E7",
"p 	c #5F81E6",
"q 	c #5A7CE6",
"r 	c #5376E4",
"s 	c #4B6EDC",
"t 	c #526DCD",
"u 	c #B8BEEA",
"v 	c #7891DD",
"w 	c #BBC7ED",
"x 	c #6E8FE9",
"y 	c #87A1EA",
"z 	c #88A2EA",
"A 	c #809BEA",
"B 	c #7996E9",
"C 	c #7493E9",
"D 	c #7290E9",
"E 	c #6F8EE9",
"F 	c #6D8CE8",
"G 	c #6C8BE8",
"H 	c #6B8AE8",
"I 	c #6988E8",
"J 	c #6786E8",
"K 	c #6483E7",
"L 	c #6180E7",
"M 	c #5C7DE6",
"N 	c #5677E4",
"O 	c #4E6FDC",
"P 	c #4461C7",
"Q 	c #B9BDEA",
"R 	c #6789E9",
"S 	c #829CEA",
"T 	c #7B97E9",
"U 	c #7492E9",
"V 	c #708FE9",
"W 	c #6D8CE9",
"X 	c #6A8AE9",
"Y 	c #6887E9",
"Z 	c #6584E8",
"` 	c #6382E8",
" .	c #6080E7",
"..	c #5D7DE7",
"+.	c #5A7BE7",
"@.	c #577AE6",
"#.	c #5476E5",
"$.	c #4F70DD",
"%.	c #4663C8",
"&.	c #BABEEA",
"*.	c #7990DE",
"=.	c #BBC7EE",
"-.	c #6487E9",
";.	c #7896EA",
">.	c #7A96EA",
",.	c #FFFFFF",
"'.	c #5377E7",
").	c #5275E5",
"!.	c #5071DE",
"~.	c #4965C9",
"{.	c #BABEEB",
"].	c #BCC7EE",
"^.	c #6285EA",
"/.	c #7392EB",
"(.	c #7393EA",
"_.	c #708FEA",
":.	c #5176E8",
"<.	c #5275E6",
"[.	c #5172DF",
"}.	c #4966CA",
"|.	c #BABFEB",
"1.	c #7A96E0",
"2.	c #BCC6EE",
"3.	c #5F83E9",
"4.	c #708FEB",
"5.	c #7190EA",
"6.	c #6E8DEA",
"7.	c #5076E8",
"8.	c #5176E6",
"9.	c #5072DF",
"0.	c #4966CB",
"a.	c #BBC0EC",
"b.	c #7B97E0",
"c.	c #6C8CEA",
"d.	c #6D8DEB",
"e.	c #6C8BEA",
"f.	c #6686EA",
"g.	c #6282E9",
"h.	c #5F80E9",
"i.	c #5C7DE9",
"j.	c #587BE8",
"k.	c #557AE8",
"l.	c #5278E8",
"m.	c #4F76E8",
"n.	c #4D75E8",
"o.	c #4E75E8",
"p.	c #5076E6",
"q.	c #5073DF",
"r.	c #7A90DF",
"s.	c #5A7FE9",
"t.	c #6889EA",
"u.	c #6A8BEA",
"v.	c #6A8AEA",
"w.	c #6585E9",
"x.	c #6283E9",
"y.	c #5C7FE9",
"z.	c #587DE9",
"A.	c #557CE9",
"B.	c #517AE9",
"C.	c #4F78E9",
"D.	c #4D77E9",
"E.	c #4C76E8",
"F.	c #4E72E0",
"G.	c #4866CC",
"H.	c #7A93DF",
"I.	c #7B99E1",
"J.	c #BCC7EF",
"K.	c #577DE9",
"L.	c #6487EA",
"M.	c #6789EA",
"N.	c #6586E9",
"O.	c #6284E9",
"P.	c #5F82E9",
"Q.	c #5C81E9",
"R.	c #5980E9",
"S.	c #567EE9",
"T.	c #527DEA",
"U.	c #4F7BEA",
"V.	c #4D79E9",
"W.	c #4B77E9",
"X.	c #4C77E8",
"Y.	c #4C73E1",
"Z.	c #4666CC",
"`.	c #BBC0ED",
" +	c #7B93E1",
".+	c #7D9BE3",
"++	c #BDC8EF",
"@+	c #557DEA",
"#+	c #6688EA",
"$+	c #6788EB",
"%+	c #6587EA",
"&+	c #6286EA",
"*+	c #6084EA",
"=+	c #5D83EA",
"-+	c #5A82EA",
";+	c #5680EA",
">+	c #537FEA",
",+	c #4F7DEB",
"'+	c #4C7CEA",
")+	c #4A79EA",
"!+	c #4A77E9",
"~+	c #4A73E2",
"{+	c #4566CE",
"]+	c #BCC1EE",
"^+	c #7D97E4",
"/+	c #BDC9F0",
"(+	c #527CEB",
"_+	c #5F84EB",
":+	c #6487EB",
"<+	c #6688EB",
"[+	c #6588EB",
"}+	c #6387EB",
"|+	c #6086EA",
"1+	c #5E85EA",
"2+	c #5B84EA",
"3+	c #5783EA",
"4+	c #5381EB",
"5+	c #4F80EB",
"6+	c #4D7EEB",
"7+	c #487BEB",
"8+	c #4879E9",
"9+	c #4773E3",
"0+	c #4366CF",
"a+	c #BCC3EE",
"b+	c #7D99E3",
"c+	c #7E9DE5",
"d+	c #BECAF1",
"e+	c #507BEB",
"f+	c #5C83EB",
"g+	c #6186EB",
"h+	c #6488EC",
"i+	c #6489EB",
"j+	c #6388EB",
"k+	c #6187EB",
"l+	c #5E86EB",
"m+	c #5B86EB",
"n+	c #5785EB",
"o+	c #5383EB",
"p+	c #5081EC",
"q+	c #4D80EB",
"r+	c #487DEB",
"s+	c #4679EA",
"t+	c #4573E4",
"u+	c #4266CF",
"v+	c #BCC4EF",
"w+	c #7FA2E6",
"x+	c #BECBF1",
"y+	c #4D79EB",
"z+	c #5982EC",
"A+	c #5F85EC",
"B+	c #6287EC",
"C+	c #6389ED",
"D+	c #6288EC",
"E+	c #6088EC",
"F+	c #5E88EC",
"G+	c #5B87EC",
"H+	c #5887EC",
"I+	c #5485EC",
"J+	c #5084ED",
"K+	c #4C82ED",
"L+	c #467DEC",
"M+	c #4479EB",
"N+	c #4372E4",
"O+	c #4066D0",
"P+	c #BDC6F0",
"Q+	c #7E9BE5",
"R+	c #80A5E7",
"S+	c #BECCF2",
"T+	c #4A79EC",
"U+	c #5580EC",
"V+	c #5B84EC",
"W+	c #5F87EC",
"X+	c #457DED",
"Y+	c #4279EB",
"Z+	c #4072E5",
"`+	c #3F66D0",
" @	c #BEC6F0",
".@	c #7F9FE6",
"+@	c #81A7E8",
"@@	c #BFCEF2",
"#@	c #4978EC",
"$@	c #517EED",
"%@	c #5783EC",
"&@	c #5B85EC",
"*@	c #5D87ED",
"=@	c #5D86ED",
"-@	c #5C87ED",
";@	c #5B87ED",
">@	c #5A87ED",
",@	c #5787ED",
"'@	c #5487EE",
")@	c #5186EE",
"!@	c #4E85EE",
"~@	c #4B83EE",
"{@	c #4780EE",
"]@	c #447DED",
"^@	c #4178EC",
"/@	c #3F72E5",
"(@	c #BEC7F1",
"_@	c #81A2E6",
":@	c #82A9E9",
"<@	c #BFCFF3",
"[@	c #4676EA",
"}@	c #4D7CEA",
"|@	c #5380EB",
"1@	c #5682EB",
"2@	c #5883EB",
"3@	c #5983EB",
"4@	c #5584EC",
"5@	c #5484EC",
"6@	c #5184EC",
"7@	c #4E83EC",
"8@	c #4B82ED",
"9@	c #4880ED",
"0@	c #427AEC",
"a@	c #3F77EB",
"b@	c #3E70E3",
"c@	c #3F66CF",
"d@	c #BEC9F2",
"e@	c #BFCFF2",
"f@	c #537EE3",
"g@	c #4977E2",
"h@	c #4D7AE2",
"i@	c #507CE4",
"j@	c #527DE3",
"k@	c #517CE3",
"l@	c #517DE3",
"m@	c #4F7CE3",
"n@	c #4E7CE3",
"o@	c #4C7CE5",
"p@	c #4A7CE5",
"q@	c #487BE6",
"r@	c #4679E5",
"s@	c #4378E6",
"t@	c #4176E6",
"u@	c #3F72E3",
"v@	c #3F6DDC",
"w@	c #4E71CE",
"x@	c #BECAF2",
"y@	c #A4BCED",
"z@	c #A8BDEC",
"A@	c #537BD5",
"B@	c #466FCE",
"C@	c #4872D1",
"D@	c #4871D0",
"E@	c #4971CF",
"F@	c #4871CF",
"G@	c #4971D1",
"H@	c #4770D2",
"I@	c #4570D2",
"J@	c #4470D3",
"K@	c #436FD4",
"L@	c #426DD2",
"M@	c #406CD2",
"N@	c #3F6CD4",
"O@	c #3F69D1",
"P@	c #4E73CF",
"Q@	c #A7B7E9",
"R@	c #A3B5EC",
"S@	c #7FA3E5",
"T@	c #A4BBED",
"U@	c #BFCEF3",
"V@	c #BFCDF3",
"W@	c #BFCDF2",
"X@	c #BFCCF2",
"Y@	c #A3B6EC",
"Z@	c #7F9FE5",
"`@	c #7FA0E7",
"                                              ",
". . . . . . . . . . . . . . . . + + + . . . + ",
"@ @ # $ % % % & & & & & * = = - ; > , , ' ) ! ",
"~ { ] ^ / ( _ : < [ } } | | 1 2 3 4 5 6 7 8 9 ",
"0 a b c d e f g h i j k l m n o p q r s t u v ",
"~ w x y z A B C D E F G H I J K L M N O P Q v ",
"! w R A S T U V W X Y Z `  . ...+.@.#.$.%.&.*.",
"! =.-.;.>.U ,.,.,.,.,.,.,.,.,.,.,.'.).!.~.{.*.",
"! ].^./.(._.,.,.,.,.,.,.,.,.,.,.,.:.<.[.}.|.*.",
"1.2.3.4.5.6.,.,.,.,.,.,.,.,.,.,.,.7.8.9.0.a.*.",
"b.2.3.c.d.e.,.f.g.h.i.j.k.l.m.n.,.o.p.q.0.a.r.",
"b.].s.t.u.v.,.w.x.h.y.z.A.B.C.D.,.E.4 F.G.a.H.",
"I.J.K.L.M.t.,.N.O.P.Q.R.S.T.U.V.,.W.X.Y.Z.`. +",
".+++@+^.#+$+,.%+&+*+=+-+;+>+,+'+,.)+!+~+{+]+^+",
".+/+(+_+:+<+,.[+}+|+1+2+3+4+5+6+,.7+8+9+0+a+b+",
"c+d+e+f+g+h+,.i+j+k+l+m+n+o+p+q+,.r+s+t+u+v+b+",
"w+x+y+z+A+B+,.C+D+E+F+G+H+I+J+K+,.L+M+N+O+P+Q+",
"R+S+T+U+V+W+,.,.,.,.,.,.,.,.,.,.,.X+Y+Z+`+ @.@",
"+@@@#@$@%@&@*@=@-@;@>@,@'@)@!@~@{@]@^@/@`+(@_@",
":@<@[@}@|@1@2@3@%@%@4@5@6@7@8@9@X+0@a@b@c@d@R+",
":@e@f@g@h@i@j@j@k@l@m@n@o@p@q@r@s@t@u@v@w@x@R+",
"+@y@z@A@B@C@D@E@F@G@G@H@I@J@K@L@M@N@O@P@Q@R@R+",
"R+S@T@<@<@<@<@<@<@U@U@V@W@W@W@X@X@X@X@d+Y@Z@`@",
"c+c+c+c+c+c+c+c+c+c+c+c+c+c+c+c+c+c+.+.+.+.+.+",
"H.H.H.H.H.H.H.H.H.H.H.H.H.H.H.H.H.H.H.H.9 *.*.",
"H.H.H.H.H.H.H.H.H.H.H.H.H.H.H.H.H.H.H.H.9 *.*.",
"                                              ",
". . . . . . . . . . . . . . . . + + + . . . + ",
"@ @ # $ % % % & & & & & * = = - ; > , , ' ) ! ",
"~ { ] ^ / ( _ : < [ } } | | 1 2 3 4 5 6 7 8 9 ",
"0 a b c d e f g h i j k l m n o p q r s t u v ",
"~ w x y z A B C D E F G H I J K L M N O P Q v ",
"! w R A S T U V W X Y Z `  . ...+.@.#.$.%.&.*.",
"! =.-.;.>.U ,.,.,.,.,.,.,.,.,.,.,.'.).!.~.{.*.",
"! ].^./.(._.,.,.,.,.,.,.,.,.,.,.,.:.<.[.}.|.*.",
"1.2.3.4.5.6.,.,.,.,.,.,.,.,.,.,.,.7.8.9.0.a.*.",
"b.2.3.c.d.e.,.f.g.h.i.j.k.l.m.n.,.o.p.q.0.a.r.",
"b.].s.t.u.v.,.w.x.h.y.z.A.B.C.D.,.E.4 F.G.a.H.",
"I.J.K.L.M.t.,.N.O.P.Q.R.S.T.U.V.,.W.X.Y.Z.`. +",
".+++@+^.#+$+,.%+&+*+=+-+;+>+,+'+,.)+!+~+{+]+^+",
".+/+(+_+:+<+,.[+}+|+1+2+3+4+5+6+,.7+8+9+0+a+b+",
"c+d+e+f+g+h+,.i+j+k+l+m+n+o+p+q+,.r+s+t+u+v+b+",
"w+x+y+z+A+B+,.C+D+E+F+G+H+I+J+K+,.L+M+N+O+P+Q+",
"R+S+T+U+V+W+,.,.,.,.,.,.,.,.,.,.,.X+Y+Z+`+ @.@",
"+@@@#@$@%@&@*@=@-@;@>@,@'@)@!@~@{@]@^@/@`+(@_@",
":@<@[@}@|@1@2@3@%@%@4@5@6@7@8@9@X+0@a@b@c@d@R+",
":@e@f@g@h@i@j@j@k@l@m@n@o@p@q@r@s@t@u@v@w@x@R+",
"+@y@z@A@B@C@D@E@F@G@G@H@I@J@K@L@M@N@O@P@Q@R@R+",
"R+S@T@<@<@<@<@<@<@U@U@V@W@W@W@X@X@X@X@d+Y@Z@`@",
"c+c+c+c+c+c+c+c+c+c+c+c+c+c+c+c+c+c+.+.+.+.+.+",
"H.H.H.H.H.H.H.H.H.H.H.H.H.H.H.H.H.H.H.H.9 *.*.",
"H.H.H.H.H.H.H.H.H.H.H.H.H.H.H.H.H.H.H.H.9 *.*."};
