/* XPM */
static char * maximizeO_xpm[] = {
"23 52 449 2",
"  	c #016CFE",
". 	c #0372FF",
"+ 	c #0073FD",
"@ 	c #0365F1",
"# 	c #0363EC",
"$ 	c #005CE9",
"% 	c #0059E2",
"& 	c #8088A4",
"* 	c #EDEDED",
"= 	c #FFFFFF",
"- 	c #EEEEEE",
"; 	c #8087A2",
"> 	c #0056DF",
", 	c #0058E6",
"' 	c #8087A3",
") 	c #DCE7FF",
"! 	c #72A1FF",
"~ 	c #6A9CFF",
"{ 	c #5F94FF",
"] 	c #558EFF",
"^ 	c #518BFF",
"/ 	c #4A86FF",
"( 	c #4B87FF",
"_ 	c #4684FF",
": 	c #4482FF",
"< 	c #4080FF",
"[ 	c #3B7CFF",
"} 	c #3A7BFF",
"| 	c #3678FF",
"1 	c #2E73FF",
"2 	c #276CF9",
"3 	c #3A73E7",
"4 	c #D3DDF3",
"5 	c #8086A0",
"6 	c #0050E2",
"7 	c #0053E1",
"8 	c #73A1FF",
"9 	c #97B9FF",
"0 	c #9CBDFF",
"a 	c #90B5FF",
"b 	c #82ACFF",
"c 	c #7BA7FF",
"d 	c #75A3FF",
"e 	c #6F9FFF",
"f 	c #6C9DFF",
"g 	c #689BFF",
"h 	c #6599FF",
"i 	c #6095FF",
"j 	c #5D93FF",
"k 	c #568EFF",
"l 	c #4F8AFF",
"m 	c #3878FB",
"n 	c #2969EB",
"o 	c #3566CB",
"p 	c #0050E0",
"q 	c #9EBEFF",
"r 	c #A4C2FF",
"s 	c #99BAFF",
"t 	c #8AB0FF",
"u 	c #82ABFF",
"v 	c #79A6FF",
"w 	c #74A3FF",
"x 	c #71A0FF",
"y 	c #6D9EFF",
"z 	c #699BFF",
"A 	c #5A91FF",
"B 	c #538CFF",
"C 	c #4986FF",
"D 	c #3D7CFC",
"E 	c #2E6CEA",
"F 	c #1B52C2",
"G 	c #6296FF",
"H 	c #91B5FF",
"I 	c #8FB4FF",
"J 	c #7AA6FF",
"K 	c #6B9DFF",
"L 	c #6598FF",
"M 	c #5F95FF",
"N 	c #5B92FF",
"O 	c #548DFF",
"P 	c #528CFF",
"Q 	c #4C88FF",
"R 	c #4785FF",
"S 	c #4280FF",
"T 	c #3B7AFB",
"U 	c #316FEC",
"V 	c #1F55C3",
"W 	c #004BE0",
"X 	c #0055E5",
"Y 	c #5990FF",
"Z 	c #85ADFF",
"` 	c #8BB1FF",
" .	c #84ACFF",
"..	c #397AFF",
"+.	c #3979FC",
"@.	c #3370EC",
"#.	c #2357C3",
"$.	c #0051E5",
"%.	c #81AAFF",
"&.	c #7AA7FF",
"*.	c #3679FF",
"=.	c #3879FC",
"-.	c #2358C5",
";.	c #4E89FF",
">.	c #71A1FF",
",.	c #77A5FF",
"'.	c #74A2FF",
").	c #337AFF",
"!.	c #367BFC",
"~.	c #3372ED",
"{.	c #2359C5",
"].	c #4D88FF",
"^.	c #699CFF",
"/.	c #6398FF",
"(.	c #5C93FF",
"_.	c #548FFF",
":.	c #4D8CFF",
"<.	c #468AFF",
"[.	c #3F86FF",
"}.	c #3983FF",
"|.	c #3380FF",
"1.	c #2F7FFF",
"2.	c #3280FF",
"3.	c #3580FC",
"4.	c #3276ED",
"5.	c #235AC6",
"6.	c #0055EA",
"7.	c #6196FF",
"8.	c #689AFF",
"9.	c #5B93FF",
"0.	c #5491FF",
"a.	c #4F90FF",
"b.	c #4890FF",
"c.	c #428EFF",
"d.	c #3B8DFF",
"e.	c #348AFF",
"f.	c #3189FF",
"g.	c #3188FF",
"h.	c #3385FC",
"i.	c #3079ED",
"j.	c #215CC8",
"k.	c #004DE3",
"l.	c #3F7FFF",
"m.	c #6397FF",
"n.	c #5993FF",
"o.	c #5492FF",
"p.	c #5093FF",
"q.	c #4A95FF",
"r.	c #4496FF",
"s.	c #3D96FF",
"t.	c #3694FF",
"u.	c #3193FF",
"v.	c #3090FF",
"w.	c #328CFC",
"x.	c #2E7DEF",
"y.	c #1E5DC9",
"z.	c #0058EE",
"A.	c #5C92FF",
"B.	c #5792FF",
"C.	c #5594FF",
"D.	c #5298FF",
"E.	c #4D9CFF",
"F.	c #479EFF",
"G.	c #409FFF",
"H.	c #379FFF",
"I.	c #339DFF",
"J.	c #2E97FF",
"K.	c #2E91FC",
"L.	c #2A80F0",
"M.	c #1B5DCB",
"N.	c #0051EB",
"O.	c #0058F3",
"P.	c #3275FF",
"Q.	c #5991FF",
"R.	c #5596FF",
"S.	c #529CFF",
"T.	c #4FA1FF",
"U.	c #4AA6FF",
"V.	c #42A9FF",
"W.	c #3AA9FF",
"X.	c #34A7FF",
"Y.	c #2CA0FF",
"Z.	c #2A96FD",
"`.	c #2581F1",
" +	c #185DCC",
".+	c #0051F0",
"++	c #005AF5",
"@+	c #2D72FF",
"#+	c #5790FF",
"$+	c #5490FF",
"%+	c #5597FF",
"&+	c #539FFF",
"*+	c #4FA4FF",
"=+	c #4AAAFF",
"-+	c #44AFFF",
";+	c #3EB1FF",
">+	c #37AFFF",
",+	c #29A4FF",
"'+	c #2599FD",
")+	c #1E80F2",
"!+	c #145BCD",
"~+	c #0055F1",
"{+	c #0060F9",
"]+	c #276EFF",
"^+	c #3D7DFF",
"/+	c #4985FF",
"(+	c #528DFF",
"_+	c #518FFF",
":+	c #5196FF",
"<+	c #509FFF",
"[+	c #4EA6FF",
"}+	c #49ACFF",
"|+	c #43B1FF",
"1+	c #3EB4FF",
"2+	c #35B2FF",
"3+	c #24A5FF",
"4+	c #1F97FD",
"5+	c #1980F3",
"6+	c #105ACE",
"7+	c #0055F4",
"8+	c #0060FC",
"9+	c #216AFF",
"0+	c #3578FF",
"a+	c #4885FF",
"b+	c #21A3FF",
"c+	c #1A95FD",
"d+	c #137CF2",
"e+	c #0C59CF",
"f+	c #0059F8",
"g+	c #0065FD",
"h+	c #1C66FF",
"i+	c #3879FF",
"j+	c #3F7EFF",
"k+	c #4483FF",
"l+	c #4584FF",
"m+	c #4587FF",
"n+	c #468EFF",
"o+	c #4696FF",
"p+	c #439CFF",
"q+	c #3FA3FF",
"r+	c #3BA8FF",
"s+	c #33AAFF",
"t+	c #2DA9FF",
"u+	c #24A6FF",
"v+	c #1D9EFF",
"w+	c #1690FD",
"x+	c #1078F1",
"y+	c #0B57CE",
"z+	c #005CF9",
"A+	c #026AFE",
"B+	c #1761F9",
"C+	c #246BFA",
"D+	c #2F72FB",
"E+	c #3676FB",
"F+	c #3A7AFB",
"G+	c #3B7BFC",
"H+	c #3B7EFC",
"I+	c #3C84FC",
"J+	c #3B8AFC",
"K+	c #3990FC",
"L+	c #3695FC",
"M+	c #3299FC",
"N+	c #2C9CFD",
"O+	c #259BFD",
"P+	c #1E97FD",
"Q+	c #1790FC",
"R+	c #1184FA",
"S+	c #0C6DED",
"T+	c #0850C8",
"U+	c #2F6AE4",
"V+	c #1B5FE9",
"W+	c #2163E8",
"X+	c #2868EB",
"Y+	c #2C6AEA",
"Z+	c #2E6DEA",
"`+	c #2D6DEB",
" @	c #2C71EC",
".@	c #2C76EC",
"+@	c #2A79ED",
"@@	c #287EEF",
"#@	c #2481F1",
"$@	c #2182F1",
"%@	c #1C80F1",
"&@	c #1880F3",
"*@	c #117AF2",
"=@	c #0C6EED",
"-@	c #0A5DDD",
";@	c #265DC1",
">@	c #8089AA",
",@	c #D1DDF4",
"'@	c #2E61CA",
")@	c #134BBF",
"!@	c #164FC2",
"~@	c #1950C1",
"{@	c #1B52C1",
"]@	c #1A52C3",
"^@	c #1954C6",
"/@	c #1B58C9",
"(@	c #1858C8",
"_@	c #165BCD",
":@	c #145CD0",
"<@	c #135CD0",
"[@	c #0F58CC",
"}@	c #0D5AD2",
"|@	c #0B58D1",
"1@	c #0951CB",
"2@	c #265EC3",
"3@	c #D0DAEE",
"4@	c #8087A8",
"5@	c #0061F5",
"6@	c #8089A9",
"7@	c #005BF1",
"8@	c #0057F6",
"9@	c #0058F7",
"0@	c #0046E0",
"a@	c #004BE3",
"b@	c #0143CF",
"c@	c #0043CF",
"d@	c #CFD3DA",
"e@	c #1F3B5F",
"f@	c #002453",
"g@	c #002557",
"h@	c #002658",
"i@	c #00285C",
"j@	c #002A61",
"k@	c #002D67",
"l@	c #002F6B",
"m@	c #002F6C",
"n@	c #003273",
"o@	c #003478",
"p@	c #00357B",
"q@	c #00377F",
"r@	c #003780",
"s@	c #003984",
"t@	c #003882",
"u@	c #1F5295",
"v@	c #CFDAE9",
"w@	c #002A62",
"x@	c #003070",
"y@	c #003275",
"z@	c #003883",
"A@	c #003A88",
"B@	c #003D8F",
"C@	c #003E90",
"D@	c #004094",
"E@	c #004299",
"F@	c #00439B",
"G@	c #00449E",
"H@	c #00459F",
"I@	c #0045A1",
"J@	c #0045A0",
"K@	c #1F5AA8",
"L@	c #002452",
"M@	c #003170",
"N@	c #003B8B",
"O@	c #003C8F",
"P@	c #003E94",
"Q@	c #004099",
"R@	c #00429D",
"S@	c #0044A2",
"T@	c #0046A5",
"U@	c #0048A8",
"V@	c #0049AB",
"W@	c #004AAC",
"X@	c #004AAD",
"Y@	c #004BAE",
"Z@	c #004BAF",
"`@	c #004BAD",
" #	c #003377",
".#	c #003D92",
"+#	c #003F97",
"@#	c #00419D",
"##	c #0043A1",
"$#	c #0045A4",
"%#	c #0047A8",
"&#	c #0048AB",
"*#	c #0049AD",
"=#	c #004AAE",
"-#	c #004CB0",
";#	c #004DB1",
">#	c #004DB2",
",#	c #002555",
"'#	c #003D90",
")#	c #78A2D8",
"!#	c #00275A",
"~#	c #003781",
"{#	c #003F95",
"]#	c #004EB3",
"^#	c #00295F",
"/#	c #003985",
"(#	c #00419B",
"_#	c #0043A2",
":#	c #004FB4",
"<#	c #002B63",
"[#	c #003B8A",
"}#	c #00439F",
"|#	c #0045A5",
"1#	c #0047AB",
"2#	c #0049AE",
"3#	c #004AAF",
"4#	c #004CB1",
"5#	c #0050B5",
"6#	c #002D68",
"7#	c #0045A3",
"8#	c #0048AD",
"9#	c #004BB0",
"0#	c #0052B7",
"a#	c #0053B8",
"b#	c #0054B9",
"c#	c #0051B6",
"d#	c #003F93",
"e#	c #0047A7",
"f#	c #0055BA",
"g#	c #0056BB",
"h#	c #0057BC",
"i#	c #003172",
"j#	c #004095",
"k#	c #0048AA",
"l#	c #0049AC",
"m#	c #0058BD",
"n#	c #0059BE",
"o#	c #005ABF",
"p#	c #0055B9",
"q#	c #005CC1",
"r#	c #005DC2",
"s#	c #00449D",
"t#	c #004EB2",
"u#	c #005EC3",
"v#	c #005FC4",
"w#	c #00367E",
"x#	c #004FB3",
"y#	c #0060C5",
"z#	c #0059BD",
"A#	c #005ABE",
"B#	c #0054B8",
"C#	c #003881",
"D#	c #0046A1",
"E#	c #005CC0",
"F#	c #005FC3",
"G#	c #0060C4",
"H#	c #0058BC",
"I#	c #005BC0",
"J#	c #1F5294",
"K#	c #0046A2",
"L#	c #1F66BE",
"M#	c #CFDAE8",
"N#	c #1F5BA9",
"O#	c #1F66BF",
"P#	c #CFDEF1",
"                              .   + . + + + + ",
"@ @ @ @ @ @ @ @ @ @ @ @ @ @ @ @ @ @ @ @ @ # # ",
"$ % & * = = = = = = = = = = = = = = = - ; > , ",
", ' ) ! ~ { ] ^ / ( _ _ : < [ } | 1 2 3 4 5 6 ",
"7 - 8 9 0 a b c d e f g h i j k l : m n o * p ",
"7 = f q r s t u v w x y z h i A B C D E F = p ",
"7 = G H s I b J ! K L M N O P Q R S T U V = W ",
"X = Y Z `  .= = = = = = = = = = = ..+.@.#.= W ",
"$.= O c %.&.= = = = = = = = = = = *.=.@.-.= W ",
"X = ;.>.,.'.= = = = = = = = = = = ).!.~.{.= W ",
"X = ].^.e y = /.(._.:.<.[.}.|.1.= 2.3.4.5.= W ",
"6.= : 7.g 8.= 7.9.0.a.b.c.d.e.f.= g.h.i.j.= k.",
"6.= l.A 7.m.= M n.o.p.q.r.s.t.u.= v.w.x.y.= $.",
"z.= ..B A.{ = (.B.C.D.E.F.G.H.I.= J.K.L.M.= N.",
"O.= P.( ] A = Q.B.R.S.T.U.V.W.X.= Y.Z.`. += .+",
"++= @+: l O = #+$+%+&+*+=+-+;+>+= ,+'+)+!+= ~+",
"{+= ]+^+/+l = (+_+:+<+[+}+|+1+2+= 3+4+5+6+= 7+",
"8+= 9+0+< a+= = = = = = = = = = = b+c+d+e+= f+",
"g+= h+@+i+j+k+l+m+n+o+p+q+r+s+t+u+v+w+x+y+= z+",
"A+= B+C+D+E+F+G+H+I+J+K+L+M+N+O+P+Q+R+S+T+= 8+",
"A+* U+V+W+X+Y+Z+`+ @.@+@@@#@$@%@&@*@=@-@;@- 8+",
"A+>@,@'@)@!@~@{@]@^@/@(@_@:@<@[@}@|@1@2@3@4@8+",
"g+5@6@- = = = = = = = = = = = = = = = * 4@7@z+",
"{+{+{+{+{+{+{+{+{+{+{+{+{+{+{+z+8+z+f+++O.8@9@",
"0@0@0@0@0@0@0@0@0@0@0@0@0@0@0@W a@0@0@0@0@0@0@",
"b@b@b@b@b@b@b@b@b@b@b@b@b@b@b@b@c@c@c@c@c@c@c@",
"                              .   + . + + + + ",
"@ @ @ @ @ @ @ @ @ @ @ @ @ @ @ @ @ @ @ @ @ # # ",
"$ % & * = = = = = = = = = = = = = = = - ; > , ",
", ' d@e@f@g@h@i@j@k@l@m@n@o@p@q@r@s@t@u@v@5 6 ",
"7 - e@w@x@y@o@q@z@A@B@C@D@E@F@G@H@I@J@I@K@* p ",
"7 = L@M@t@N@O@P@Q@R@S@T@U@V@W@X@Y@Y@Z@Y@`@= p ",
"7 = f@ #N@.#+#@###$#%#&#*#=#-#;#;#;#>#>#>#= W ",
"X = ,#p@'#+#)#)#)#)#)#)#)#)#)#)#)#;#>#>#>#= W ",
"$.= !#~#{#@#)#)#)#)#)#)#)#)#)#)#)#;#]#>#>#= W ",
"X = ^#/#(#_#)#)#)#)#)#)#)#)#)#)#)#:#:#]#>#= W ",
"X = <#[#}#|#)#1#2#2#3#4#>#:#5#5#)#5#5#:#]#= W ",
"6.= 6#B@7#%#)#8#3#9#4#]#5#0#a#b#)#a#a#c#:#= k.",
"6.= m@d#e#&#)#2#Z@4#]#5#0#f#g#h#)#g#f#a#5#= $.",
"z.= i#j#k#l#)#=#-#>#5#0#f#m#n#o#)#n#m#f#c#= N.",
"O.=  #E@l#=#)#9#;#:#0#p#h#o#q#r#)#q#o#g#c#= .+",
"++= p@s#`@-#)#;#t#5#a#g#n#q#u#v#)#u#q#m#0#= ~+",
"{+= w#G@Y@;#)#;#x#c#b#h#o#r#v#y#)#v#r#z#a#= 7+",
"8+= ~#J@Y@;#)#)#)#)#)#)#)#)#)#)#)#y#u#A#B#= f+",
"g+= C#D#Y@;#;#t#]#5#a#g#n#E#u#F#y#G#r#n#a#= z+",
"A+= z@I@Z@>#>#]#]#5#a#f#H#o#q#r#u#r#I#h#c#= 8+",
"A+* J#K#Z@>#>#>#>#:#c#a#f#h#m#n#o#n#h#b#L#- 8+",
"A+>@M#N#`@>#>#>#>#]#:#5#c#0#0#a#b#a#0#O#P#4@8+",
"g+5@6@- = = = = = = = = = = = = = = = * 4@7@z+",
"{+{+{+{+{+{+{+{+{+{+{+{+{+{+{+z+8+z+f+++O.8@9@",
"0@0@0@0@0@0@0@0@0@0@0@0@0@0@0@W a@0@0@0@0@0@0@",
"b@b@b@b@b@b@b@b@b@b@b@b@b@b@b@b@c@c@c@c@c@c@c@"};
