/* XPM */
static char * menuButtonO_xpm[] = {
"26 52 74 1",
" 	c #0053DA",
".	c #0165EB",
"+	c #0067ED",
"@	c #026CF1",
"#	c #036EF5",
"$	c #036FFA",
"%	c #0774FE",
"&	c #0073FD",
"*	c #0372FF",
"=	c #0671FE",
"-	c #0772FD",
";	c #005ADF",
">	c #005EE7",
",	c #0062E9",
"'	c #0368F4",
")	c #0365F1",
"!	c #0069F2",
"~	c #0060EE",
"{	c #005CEC",
"]	c #014CD0",
"^	c #0161EA",
"/	c #005EE9",
"(	c #005CE9",
"_	c #005AE7",
":	c #0058E6",
"<	c #005AE4",
"[	c #0055E5",
"}	c #0245D0",
"|	c #0054E3",
"1	c #0047D7",
"2	c #0361EB",
"3	c #025DE9",
"4	c #004AD8",
"5	c #0050E0",
"6	c #004ADC",
"7	c #0053E1",
"8	c #0059E8",
"9	c #0051E5",
"0	c #0363EC",
"a	c #0563EE",
"b	c #035DEC",
"c	c #0050E2",
"d	c #0360F1",
"e	c #0058EB",
"f	c #0055EA",
"g	c #0667F4",
"h	c #005FF2",
"i	c #0160F5",
"j	c #005BF2",
"k	c #0058EE",
"l	c #0361F6",
"m	c #0164F9",
"n	c #0265F9",
"o	c #0368FA",
"p	c #066AF9",
"q	c #005AF5",
"r	c #0051EB",
"s	c #036BFB",
"t	c #026AFE",
"u	c #066CFC",
"v	c #0060F9",
"w	c #076FFD",
"x	c #036EFF",
"y	c #016AFA",
"z	c #0065FD",
"A	c #016CFE",
"B	c #066FFA",
"C	c #004DE3",
"D	c #004BE0",
"E	c #003DCC",
"F	c #0043CF",
"G	c #0144D0",
"H	c #014DDC",
"I	c #0143CF",
" ..+++@#$%&**%&%%&*%&&%=-*",
";;;;>,.+@@@#########@'''')",
"   ;;>,,.+++!!!!++++.~~~{{",
"]  ;;>,,....++++..,^//(__:",
"]  ;<>,,......,,^/>>___::[",
"}  ;<>^,^,..^^,^/(___:::||",
"1 ;<>/^^^^2^^3^///(__:::[[",
"45|_(//^^^22^333/(___::[[[",
"67[_(3/^^222223333___::[[[",
"6|[8(/^222222233333888::[[",
"69[8{~~~00aaa22bbbbb(88::[",
"c:8({~~daaaaaa2bbbbb{e888f",
"9fe{~dd)))ggg)adddbbb{eeee",
"9e{~hii)''ggggg)ddddjjkkkk",
"[e{hilmnnoppppgglllliqqjjj",
"f{hhmnnooopppppponnllliiii",
"rhhimnostsuuuuuuuoonnmmvvv",
"ehilnossuuuwwwwwwxttyyzzmm",
"khinossuw==-%%-===xxAAtttt",
"kilnosBw==-%%%%%==***xxxxt",
"kiiloouww--%%%%%%==***xxxx",
"kjilnnopuww---====***xxxtt",
"kjkjddl'opppuuusssssssttoo",
"C|::e{~h)))''''oyyyyyyzmmv",
"DEFG}}444HHH5Cccc7cccccCCC",
"DFFIGG}}}}}}}}}GGGIIGIIGGG",
" ..+++@#$%&**%&%%&*%&&%=-*",
";;;;>,.+@@@#########@'''')",
"   ;;>,,.+++!!!!++++.~~~{{",
"]  ;;>,,....++++..,^//(__:",
"]  ;<>,,......,,^/>>___::[",
"}  ;<>^,^,..^^,^/(___:::||",
"1 ;<>/^^^^2^^3^///(__:::[[",
"45|_(//^^^22^333/(___::[[[",
"67[_(3/^^222223333___::[[[",
"6|[8(/^222222233333888::[[",
"69[8{~~~00aaa22bbbbb(88::[",
"c:8({~~daaaaaa2bbbbb{e888f",
"9fe{~dd)))ggg)adddbbb{eeee",
"9e{~hii)''ggggg)ddddjjkkkk",
"[e{hilmnnoppppgglllliqqjjj",
"f{hhmnnooopppppponnllliiii",
"rhhimnostsuuuuuuuoonnmmvvv",
"ehilnossuuuwwwwwwxttyyzzmm",
"khinossuw==-%%-===xxAAtttt",
"kilnosBw==-%%%%%==***xxxxt",
"kiiloouww--%%%%%%==***xxxx",
"kjilnnopuww---====***xxxtt",
"kjkjddl'opppuuusssssssttoo",
"C|::e{~h)))''''oyyyyyyzmmv",
"DEFG}}444HHH5Cccc7cccccCCC",
"DFFIGG}}}}}}}}}GGGIIGIIGGG"};
