/* XPM */
static char * menuButtonI_xpm[] = {
"26 52 57 1",
" 	c #7793DB",
".	c #7A9DDF",
"+	c #7BA0E1",
"@	c #7DA1E2",
"#	c #7DA4E3",
"$	c #80A6E5",
"%	c #82AAE7",
"&	c #85ABE8",
"*	c #8AACE7",
"=	c #8BB0E9",
"-	c #7895DD",
";	c #7999DE",
">	c #80A5E6",
",	c #7FA2E5",
"'	c #768ED8",
")	c #7D9FE4",
"!	c #7C9DE2",
"~	c #7689D9",
"{	c #7B9DE1",
"]	c #7B9AE1",
"^	c #7A9AE0",
"/	c #7A99E0",
"(	c #7686D9",
"_	c #7C9FE1",
":	c #7A96DF",
"<	c #768EDB",
"[	c #7996DE",
"}	c #7B97E0",
"|	c #7993DE",
"1	c #7C9DE1",
"2	c #778EDB",
"3	c #7891DD",
"4	c #7789DB",
"5	c #7B99E1",
"6	c #778BDB",
"7	c #7990DE",
"8	c #788DDD",
"9	c #7A93DF",
"0	c #7A96E0",
"a	c #7B98E0",
"b	c #7EA2E4",
"c	c #7D9BE3",
"d	c #7A90DF",
"e	c #80A5E7",
"f	c #7FA2E6",
"g	c #7F9FE6",
"h	c #7E9DE5",
"i	c #80A7E8",
"j	c #81A7E8",
"k	c #82A9E9",
"l	c #7D99E3",
"m	c #81A6E6",
"n	c #83ABE9",
"o	c #85ADE9",
"p	c #87AEEA",
"q	c #83A7E7",
"r	c #7FA0E7",
" .+@#$$%&*===============*",
" ---;..@##$%%%%%%$$$$$$>,,",
"''   -;.++########@@@@)!!!",
"~''  -;.+++@###@@++{{{{]^^",
"~''  -;;.++@@@@++{{^^^^//;",
"(''  -;^..+++__+{{]^^^//;:",
"('< -[;^.{{____{{{]^^^/};:",
"(< |-[;^{{___111{{]^^//};:",
"(23-[;^^{{____1{]]]^^//}/}",
"423[:/^{{_____1{]]]]]5/}}}",
"67|:}]{{___@@_1]]]]]]]5/}}",
"8|:}5]!!@@@@@_!!!!!]]]]555",
"790a]!)@@bbbbb)!!!!!!!c]]5",
"d05]!))bb,##,,,))))))!cccc",
"9}]!)b,#>>>ee>>fffgggghhhh",
"0]!)b,>eiiiiieieeeffffgggg",
"}c),>>jjjkkkkkkkjiieefffff",
"l),>mjkknnnnnnnnkkkiiieeee",
"cg>mj%noooooooonnnkkkkijjj",
"c,>jnnooppppppoonnnnnkkkkk",
"c,mqnoopppppppppooonnnkkkk",
"c,>j%nooppppppppoooonnkkkj",
"c),,mm%n&nooo&nnnnnkkkjjii",
"}55c!@b,,>>>>>>>>>ffffrghh",
"<<23|9::}aa55555555}}}}099",
"<<23|9::}aa55555555}}}}099",
" .+@#$$%&*===============*",
" ---;..@##$%%%%%%$$$$$$>,,",
"''   -;.++########@@@@)!!!",
"~''  -;.+++@###@@++{{{{]^^",
"~''  -;;.++@@@@++{{^^^^//;",
"(''  -;^..+++__+{{]^^^//;:",
"('< -[;^.{{____{{{]^^^/};:",
"(< |-[;^{{___111{{]^^//};:",
"(23-[;^^{{____1{]]]^^//}/}",
"423[:/^{{_____1{]]]]]5/}}}",
"67|:}]{{___@@_1]]]]]]]5/}}",
"8|:}5]!!@@@@@_!!!!!]]]]555",
"790a]!)@@bbbbb)!!!!!!!c]]5",
"d05]!))bb,##,,,))))))!cccc",
"9}]!)b,#>>>ee>>fffgggghhhh",
"0]!)b,>eiiiiieieeeffffgggg",
"}c),>>jjjkkkkkkkjiieefffff",
"l),>mjkknnnnnnnnkkkiiieeee",
"cg>mj%noooooooonnnkkkkijjj",
"c,>jnnooppppppoonnnnnkkkkk",
"c,mqnoopppppppppooonnnkkkk",
"c,>j%nooppppppppoooonnkkkj",
"c),,mm%n&nooo&nnnnnkkkjjii",
"}55c!@b,,>>>>>>>>>ffffrghh",
"<<23|9::}aa55555555}}}}099",
"<<23|9::}aa55555555}}}}099"};
