/* XPM */
static char * minimizeI_xpm[] = {
"23 52 383 2",
"  	c #7EA2E4",
". 	c #7B9AE1",
"+ 	c #7999DE",
"@ 	c #A1B7E9",
"# 	c #BCCBF0",
"$ 	c #BDCCF0",
"% 	c #BDCBEF",
"& 	c #BDCAEF",
"* 	c #BDCAEE",
"= 	c #BCC9EE",
"- 	c #BCC8EE",
"; 	c #BCC8ED",
"> 	c #BCC7ED",
", 	c #A0B1E5",
"' 	c #7997DC",
") 	c #7996DE",
"! 	c #A0B5E8",
"~ 	c #AABDED",
"{ 	c #7597EB",
"] 	c #6C8FEA",
"^ 	c #668BE9",
"/ 	c #6287E9",
"( 	c #6085E8",
"_ 	c #5D82E8",
": 	c #5D83E8",
"< 	c #5A80E8",
"[ 	c #597FE8",
"} 	c #557CE7",
"| 	c #547BE7",
"1 	c #537AE7",
"2 	c #4E76E6",
"3 	c #4A71E3",
"4 	c #5475DC",
"5 	c #A4B0E4",
"6 	c #9EACE4",
"7 	c #7895DD",
"8 	c #BBC8EE",
"9 	c #7696EA",
"0 	c #849FEA",
"a 	c #86A1EA",
"b 	c #7E9BE9",
"c 	c #7695E9",
"d 	c #7292E9",
"e 	c #6F8FE9",
"f 	c #6E8DE8",
"g 	c #6C8CE8",
"h 	c #6A8BE8",
"i 	c #6A8AE8",
"j 	c #6788E8",
"k 	c #6686E8",
"l 	c #6384E7",
"m 	c #5F81E6",
"n 	c #5A7CE6",
"o 	c #5376E4",
"p 	c #4B6EDC",
"q 	c #526DCD",
"r 	c #B8BEEA",
"s 	c #BBC7ED",
"t 	c #6E8FE9",
"u 	c #87A1EA",
"v 	c #88A2EA",
"w 	c #809BEA",
"x 	c #7996E9",
"y 	c #7493E9",
"z 	c #7290E9",
"A 	c #6F8EE9",
"B 	c #6D8CE8",
"C 	c #6C8BE8",
"D 	c #6B8AE8",
"E 	c #6988E8",
"F 	c #6786E8",
"G 	c #6483E7",
"H 	c #6180E7",
"I 	c #5C7DE6",
"J 	c #5677E4",
"K 	c #4E6FDC",
"L 	c #4461C7",
"M 	c #B9BDEA",
"N 	c #7A96DF",
"O 	c #6789E9",
"P 	c #829CEA",
"Q 	c #7B97E9",
"R 	c #7492E9",
"S 	c #708FE9",
"T 	c #6D8CE9",
"U 	c #6A8AE9",
"V 	c #6887E9",
"W 	c #6584E8",
"X 	c #6382E8",
"Y 	c #6080E7",
"Z 	c #5D7DE7",
"` 	c #5A7BE7",
" .	c #577AE6",
"..	c #5476E5",
"+.	c #4F70DD",
"@.	c #4663C8",
"#.	c #BABEEA",
"$.	c #BBC7EE",
"%.	c #6487E9",
"&.	c #7896EA",
"*.	c #7A96EA",
"=.	c #6B8BE9",
"-.	c #6585E8",
";.	c #6281E9",
">.	c #5E7FE8",
",.	c #5B7CE8",
"'.	c #587AE7",
").	c #5779E7",
"!.	c #5578E7",
"~.	c #5477E7",
"{.	c #5377E7",
"].	c #5275E5",
"^.	c #5071DE",
"/.	c #4965C9",
"(.	c #BABEEB",
"_.	c #BCC7EE",
":.	c #6285EA",
"<.	c #7392EB",
"[.	c #7393EA",
"}.	c #708FEA",
"|.	c #6C8BEA",
"1.	c #6988E9",
"2.	c #6584E9",
"3.	c #6282E9",
"4.	c #5F7FE9",
"5.	c #587AE8",
"6.	c #5579E7",
"7.	c #5176E7",
"8.	c #5176E8",
"9.	c #5275E6",
"0.	c #5172DF",
"a.	c #4966CA",
"b.	c #BABFEB",
"c.	c #7A96E0",
"d.	c #BCC6EE",
"e.	c #5F83E9",
"f.	c #708FEB",
"g.	c #7190EA",
"h.	c #6E8DEA",
"i.	c #6A89EA",
"j.	c #6786EA",
"k.	c #6383E9",
"l.	c #6080E9",
"m.	c #5D7EE8",
"n.	c #5A7CE8",
"o.	c #567AE8",
"p.	c #5378E8",
"q.	c #4F75E8",
"r.	c #5076E8",
"s.	c #5176E6",
"t.	c #5072DF",
"u.	c #4966CB",
"v.	c #BBC0EC",
"w.	c #7B97E0",
"x.	c #6C8CEA",
"y.	c #6D8DEB",
"z.	c #6988EA",
"A.	c #6686EA",
"B.	c #5F80E9",
"C.	c #5C7DE9",
"D.	c #587BE8",
"E.	c #557AE8",
"F.	c #5278E8",
"G.	c #4F76E8",
"H.	c #4D75E8",
"I.	c #4C75E8",
"J.	c #4E75E8",
"K.	c #5076E6",
"L.	c #5073DF",
"M.	c #5A7FE9",
"N.	c #6889EA",
"O.	c #6A8BEA",
"P.	c #6A8AEA",
"Q.	c #6888EA",
"R.	c #6585E9",
"S.	c #6283E9",
"T.	c #5C7FE9",
"U.	c #587DE9",
"V.	c #557CE9",
"W.	c #517AE9",
"X.	c #4F78E9",
"Y.	c #4D77E9",
"Z.	c #4B76E9",
"`.	c #4C76E8",
" +	c #4E72E0",
".+	c #4866CC",
"++	c #7B99E1",
"@+	c #BCC7EF",
"#+	c #577DE9",
"$+	c #6487EA",
"%+	c #6789EA",
"&+	c #6788EA",
"*+	c #6586E9",
"=+	c #6284E9",
"-+	c #5F82E9",
";+	c #5C81E9",
">+	c #5980E9",
",+	c #567EE9",
"'+	c #527DEA",
")+	c #4F7BEA",
"!+	c #4D79E9",
"~+	c #4B78EA",
"{+	c #4B77E9",
"]+	c #4C77E8",
"^+	c #4C73E1",
"/+	c #4666CC",
"(+	c #BBC0ED",
"_+	c #7D9BE3",
":+	c #BDC8EF",
"<+	c #557DEA",
"[+	c #6688EA",
"}+	c #6788EB",
"|+	c #6687EA",
"1+	c #6587EA",
"2+	c #6286EA",
"3+	c #6084EA",
"4+	c #5D83EA",
"5+	c #5A82EA",
"6+	c #5680EA",
"7+	c #537FEA",
"8+	c #4F7DEB",
"9+	c #4C7CEA",
"0+	c #4A7AEA",
"a+	c #4A79EA",
"b+	c #4A77E9",
"c+	c #4A73E2",
"d+	c #4566CE",
"e+	c #BCC1EE",
"f+	c #BDC9F0",
"g+	c #527CEB",
"h+	c #5F84EB",
"i+	c #6487EB",
"j+	c #6688EB",
"k+	c #6588EB",
"l+	c #6387EB",
"m+	c #6086EA",
"n+	c #5E85EA",
"o+	c #5B84EA",
"p+	c #5783EA",
"q+	c #5381EB",
"r+	c #4F80EB",
"s+	c #4D7EEB",
"t+	c #4A7CEB",
"u+	c #487BEB",
"v+	c #4879E9",
"w+	c #4773E3",
"x+	c #4366CF",
"y+	c #BCC3EE",
"z+	c #7E9DE5",
"A+	c #BECAF1",
"B+	c #507BEB",
"C+	c #5C83EB",
"D+	c #6186EB",
"E+	c #6488EC",
"F+	c #FFFFFF",
"G+	c #5383EB",
"H+	c #5081EC",
"I+	c #4D80EB",
"J+	c #497FEC",
"K+	c #487DEB",
"L+	c #4679EA",
"M+	c #4573E4",
"N+	c #4266CF",
"O+	c #BCC4EF",
"P+	c #7FA2E6",
"Q+	c #BECBF1",
"R+	c #4D79EB",
"S+	c #5982EC",
"T+	c #5F85EC",
"U+	c #6287EC",
"V+	c #5485EC",
"W+	c #5084ED",
"X+	c #4C82ED",
"Y+	c #4980ED",
"Z+	c #467DEC",
"`+	c #4479EB",
" @	c #4372E4",
".@	c #4066D0",
"+@	c #BDC6F0",
"@@	c #80A5E7",
"#@	c #BECCF2",
"$@	c #4A79EC",
"%@	c #5580EC",
"&@	c #5B84EC",
"*@	c #5F87EC",
"=@	c #5387ED",
"-@	c #5086ED",
";@	c #4C84ED",
">@	c #4881ED",
",@	c #457DED",
"'@	c #4279EB",
")@	c #4072E5",
"!@	c #3F66D0",
"~@	c #BEC6F0",
"{@	c #81A7E8",
"]@	c #BFCEF2",
"^@	c #4978EC",
"/@	c #517EED",
"(@	c #5783EC",
"_@	c #5B85EC",
":@	c #5D87ED",
"<@	c #5D86ED",
"[@	c #5C87ED",
"}@	c #5B87ED",
"|@	c #5A87ED",
"1@	c #5787ED",
"2@	c #5487EE",
"3@	c #5186EE",
"4@	c #4E85EE",
"5@	c #4B83EE",
"6@	c #4780EE",
"7@	c #447DED",
"8@	c #4178EC",
"9@	c #3F72E5",
"0@	c #BEC7F1",
"a@	c #82A9E9",
"b@	c #BFCFF3",
"c@	c #4676EA",
"d@	c #4D7CEA",
"e@	c #5380EB",
"f@	c #5682EB",
"g@	c #5883EB",
"h@	c #5983EB",
"i@	c #5584EC",
"j@	c #5484EC",
"k@	c #5184EC",
"l@	c #4E83EC",
"m@	c #4B82ED",
"n@	c #4880ED",
"o@	c #427AEC",
"p@	c #3F77EB",
"q@	c #3E70E3",
"r@	c #3F66CF",
"s@	c #BEC9F2",
"t@	c #BFCFF2",
"u@	c #537EE3",
"v@	c #4977E2",
"w@	c #4D7AE2",
"x@	c #507CE4",
"y@	c #527DE3",
"z@	c #517CE3",
"A@	c #517DE3",
"B@	c #4F7CE3",
"C@	c #4E7CE3",
"D@	c #4C7CE5",
"E@	c #4A7CE5",
"F@	c #487BE6",
"G@	c #4679E5",
"H@	c #4378E6",
"I@	c #4176E6",
"J@	c #3F72E3",
"K@	c #3F6DDC",
"L@	c #4E71CE",
"M@	c #BECAF2",
"N@	c #A4BCED",
"O@	c #A8BDEC",
"P@	c #537BD5",
"Q@	c #466FCE",
"R@	c #4872D1",
"S@	c #4871D0",
"T@	c #4971CF",
"U@	c #4871CF",
"V@	c #4971D1",
"W@	c #4770D2",
"X@	c #4570D2",
"Y@	c #4470D3",
"Z@	c #436FD4",
"`@	c #426DD2",
" #	c #406CD2",
".#	c #3F6CD4",
"+#	c #3F69D1",
"@#	c #4E73CF",
"##	c #A7B7E9",
"$#	c #A3B5EC",
"%#	c #7FA3E5",
"&#	c #A4BBED",
"*#	c #BFCEF3",
"=#	c #BFCDF3",
"-#	c #BFCDF2",
";#	c #BFCCF2",
">#	c #A3B6EC",
",#	c #7FA1E5",
"'#	c #7A93DF",
"                                              ",
". . . . . . . . . . . . . . . . . . . . . . . ",
"+ + @ # $ $ $ % % % % % & * * = - ; > > , ' + ",
") ! ~ { ] ^ / ( _ : < < [ [ } | 1 2 3 4 5 6 ) ",
"7 8 9 0 a b c d e f g h i j k l m n o p q r 7 ",
") s t u v w x y z A B C D E F G H I J K L M ) ",
"N s O w P Q R S T U V W X Y Y Z `  ...+.@.#.N ",
"N $.%.&.*.R A =.V -.;.>.,.'.).!.~.{.].^./.(.N ",
"N _.:.<.[.}.|.1.2.3.4.,.5.6.{.7.8.8.9.0.a.b.N ",
"c.d.e.f.g.h.i.j.k.l.m.n.o.p.8.q.q.r.s.t.u.v.c.",
"w.d.e.x.y.|.z.A.3.B.C.D.E.F.G.H.I.J.K.L.u.v.w.",
"w._.M.N.O.P.Q.R.S.B.T.U.V.W.X.Y.Z.`.2  +.+v.w.",
"++@+#+$+%+N.&+*+=+-+;+>+,+'+)+!+~+{+]+^+/+(+++",
"_+:+<+:.[+}+|+1+2+3+4+5+6+7+8+9+0+a+b+c+d+e+_+",
"_+f+g+h+i+j+j+k+l+m+n+o+p+q+r+s+t+u+v+w+x+y+_+",
"z+A+B+C+D+E+F+F+F+F+F+F+F+G+H+I+J+K+L+M+N+O+z+",
"P+Q+R+S+T+U+F+F+F+F+F+F+F+V+W+X+Y+Z+`+ @.@+@P+",
"@@#@$@%@&@*@F+F+F+F+F+F+F+=@-@;@>@,@'@)@!@~@@@",
"{@]@^@/@(@_@:@<@[@}@|@1@2@3@4@5@6@7@8@9@!@0@{@",
"a@b@c@d@e@f@g@h@(@(@i@j@k@l@m@n@,@o@p@q@r@s@a@",
"a@t@u@v@w@x@y@y@z@A@B@C@D@E@F@G@H@I@J@K@L@M@a@",
"{@N@O@P@Q@R@S@T@U@V@V@W@X@Y@Z@`@ #.#+#@###$#{@",
"@@%#&#b@b@b@b@b@b@*#*#=#-#-#-#;#;#;#;#A+>#,#@@",
"z+z+z+z+z+z+z+z+z+z+z+z+z+z+z+z+z+z+z+z+z+z+z+",
"'#'#'#'#'#'#'#'#'#'#'#'#'#'#'#'#'#'#'#'#'#'#'#",
"'#'#'#'#'#'#'#'#'#'#'#'#'#'#'#'#'#'#'#'#'#'#'#",
"                                              ",
". . . . . . . . . . . . . . . . . . . . . . . ",
"+ + @ # $ $ $ % % % % % & * * = - ; > > , ' + ",
") ! ~ { ] ^ / ( _ : < < [ [ } | 1 2 3 4 5 6 ) ",
"7 8 9 0 a b c d e f g h i j k l m n o p q r 7 ",
") s t u v w x y z A B C D E F G H I J K L M ) ",
"N s O w P Q R S T U V W X Y Y Z `  ...+.@.#.N ",
"N $.%.&.*.R A =.V -.;.>.,.'.).!.~.{.].^./.(.N ",
"N _.:.<.[.}.|.1.2.3.4.,.5.6.{.7.8.8.9.0.a.b.N ",
"c.d.e.f.g.h.i.j.k.l.m.n.o.p.8.q.q.r.s.t.u.v.c.",
"w.d.e.x.y.|.z.A.3.B.C.D.E.F.G.H.I.J.K.L.u.v.w.",
"w._.M.N.O.P.Q.R.S.B.T.U.V.W.X.Y.Z.`.2  +.+v.w.",
"++@+#+$+%+N.&+*+=+-+;+>+,+'+)+!+~+{+]+^+/+(+++",
"_+:+<+:.[+}+|+1+2+3+4+5+6+7+8+9+0+a+b+c+d+e+_+",
"_+f+g+h+i+j+j+k+l+m+n+o+p+q+r+s+t+u+v+w+x+y+_+",
"z+A+B+C+D+E+F+F+F+F+F+F+F+G+H+I+J+K+L+M+N+O+z+",
"P+Q+R+S+T+U+F+F+F+F+F+F+F+V+W+X+Y+Z+`+ @.@+@P+",
"@@#@$@%@&@*@F+F+F+F+F+F+F+=@-@;@>@,@'@)@!@~@@@",
"{@]@^@/@(@_@:@<@[@}@|@1@2@3@4@5@6@7@8@9@!@0@{@",
"a@b@c@d@e@f@g@h@(@(@i@j@k@l@m@n@,@o@p@q@r@s@a@",
"a@t@u@v@w@x@y@y@z@A@B@C@D@E@F@G@H@I@J@K@L@M@a@",
"{@N@O@P@Q@R@S@T@U@V@V@W@X@Y@Z@`@ #.#+#@###$#{@",
"@@%#&#b@b@b@b@b@b@*#*#=#-#-#-#;#;#;#;#A+>#,#@@",
"z+z+z+z+z+z+z+z+z+z+z+z+z+z+z+z+z+z+z+z+z+z+z+",
"'#'#'#'#'#'#'#'#'#'#'#'#'#'#'#'#'#'#'#'#'#'#'#",
"'#'#'#'#'#'#'#'#'#'#'#'#'#'#'#'#'#'#'#'#'#'#'#"};
