/* XPM */
static char * minimizeO_xpm[] = {
"23 52 455 2",
"  	c #016CFE",
". 	c #0365F1",
"+ 	c #005CE9",
"@ 	c #055EE8",
"# 	c #7D91BE",
"$ 	c #EDEDEE",
"% 	c #FFFFFF",
"& 	c #EEEEEE",
"* 	c #0058E6",
"= 	c #DCE7FF",
"- 	c #72A1FF",
"; 	c #6A9CFF",
"> 	c #5F94FF",
", 	c #558EFF",
"' 	c #518BFF",
") 	c #4A86FF",
"! 	c #4B87FF",
"~ 	c #4684FF",
"{ 	c #4482FF",
"] 	c #4080FF",
"^ 	c #3B7CFF",
"/ 	c #3A7BFF",
"( 	c #3678FF",
"_ 	c #2E73FF",
": 	c #276CF9",
"< 	c #3A73E7",
"[ 	c #D3DDF3",
"} 	c #0053E1",
"| 	c #73A1FF",
"1 	c #97B9FF",
"2 	c #9CBDFF",
"3 	c #90B5FF",
"4 	c #82ACFF",
"5 	c #7BA7FF",
"6 	c #75A3FF",
"7 	c #6F9FFF",
"8 	c #6C9DFF",
"9 	c #689BFF",
"0 	c #6599FF",
"a 	c #6095FF",
"b 	c #5D93FF",
"c 	c #568EFF",
"d 	c #4F8AFF",
"e 	c #3878FB",
"f 	c #2969EB",
"g 	c #3566CB",
"h 	c #9EBEFF",
"i 	c #A4C2FF",
"j 	c #99BAFF",
"k 	c #8AB0FF",
"l 	c #82ABFF",
"m 	c #79A6FF",
"n 	c #74A3FF",
"o 	c #71A0FF",
"p 	c #6D9EFF",
"q 	c #699BFF",
"r 	c #5A91FF",
"s 	c #538CFF",
"t 	c #4986FF",
"u 	c #3D7CFC",
"v 	c #2E6CEA",
"w 	c #1B52C2",
"x 	c #6296FF",
"y 	c #91B5FF",
"z 	c #8FB4FF",
"A 	c #7AA6FF",
"B 	c #6B9DFF",
"C 	c #6598FF",
"D 	c #5F95FF",
"E 	c #5B92FF",
"F 	c #548DFF",
"G 	c #528CFF",
"H 	c #4C88FF",
"I 	c #4785FF",
"J 	c #4280FF",
"K 	c #3B7AFB",
"L 	c #316FEC",
"M 	c #1F55C3",
"N 	c #0055E5",
"O 	c #5990FF",
"P 	c #85ADFF",
"Q 	c #8BB1FF",
"R 	c #84ACFF",
"S 	c #78A5FF",
"T 	c #70A0FF",
"U 	c #679AFF",
"V 	c #4180FF",
"W 	c #3D7EFF",
"X 	c #3B7BFF",
"Y 	c #397AFF",
"Z 	c #3979FC",
"` 	c #3370EC",
" .	c #2357C3",
"..	c #0051E5",
"+.	c #81AAFF",
"@.	c #7AA7FF",
"#.	c #6B9CFF",
"$.	c #6297FF",
"%.	c #5C93FF",
"&.	c #548EFF",
"*.	c #4483FF",
"=.	c #3D7FFF",
"-.	c #387BFF",
";.	c #3679FF",
">.	c #3579FF",
",.	c #3879FC",
"'.	c #2358C5",
").	c #4E89FF",
"!.	c #71A1FF",
"~.	c #77A5FF",
"{.	c #74A2FF",
"].	c #669AFF",
"^.	c #5890FF",
"/.	c #508DFF",
"(.	c #4989FF",
"_.	c #4183FF",
":.	c #3A7FFF",
"<.	c #357BFF",
"[.	c #317AFF",
"}.	c #337AFF",
"|.	c #367BFC",
"1.	c #3372ED",
"2.	c #2359C5",
"3.	c #4D88FF",
"4.	c #699CFF",
"5.	c #6398FF",
"6.	c #548FFF",
"7.	c #4D8CFF",
"8.	c #468AFF",
"9.	c #3F86FF",
"0.	c #3983FF",
"a.	c #3380FF",
"b.	c #2F7FFF",
"c.	c #3280FF",
"d.	c #3580FC",
"e.	c #3276ED",
"f.	c #235AC6",
"g.	c #0055EA",
"h.	c #6196FF",
"i.	c #689AFF",
"j.	c #5B93FF",
"k.	c #5491FF",
"l.	c #4F90FF",
"m.	c #4890FF",
"n.	c #428EFF",
"o.	c #3B8DFF",
"p.	c #348AFF",
"q.	c #3189FF",
"r.	c #2F88FF",
"s.	c #3188FF",
"t.	c #3385FC",
"u.	c #3079ED",
"v.	c #215CC8",
"w.	c #3F7FFF",
"x.	c #6397FF",
"y.	c #5993FF",
"z.	c #5492FF",
"A.	c #5093FF",
"B.	c #4A95FF",
"C.	c #4496FF",
"D.	c #3D96FF",
"E.	c #3694FF",
"F.	c #3193FF",
"G.	c #2F92FF",
"H.	c #3090FF",
"I.	c #328CFC",
"J.	c #2E7DEF",
"K.	c #1E5DC9",
"L.	c #0058EE",
"M.	c #5C92FF",
"N.	c #5792FF",
"O.	c #5594FF",
"P.	c #5298FF",
"Q.	c #4D9CFF",
"R.	c #479EFF",
"S.	c #409FFF",
"T.	c #379FFF",
"U.	c #339DFF",
"V.	c #2F9BFF",
"W.	c #2E97FF",
"X.	c #2E91FC",
"Y.	c #2A80F0",
"Z.	c #1B5DCB",
"`.	c #0058F3",
" +	c #3275FF",
".+	c #5991FF",
"++	c #5596FF",
"@+	c #529CFF",
"#+	c #4FA1FF",
"$+	c #4AA6FF",
"%+	c #42A9FF",
"&+	c #3AA9FF",
"*+	c #34A7FF",
"=+	c #30A5FF",
"-+	c #2CA0FF",
";+	c #2A96FD",
">+	c #2581F1",
",+	c #185DCC",
"'+	c #005AF5",
")+	c #2D72FF",
"!+	c #44AFFF",
"~+	c #3EB1FF",
"{+	c #37AFFF",
"]+	c #2FABFF",
"^+	c #29A4FF",
"/+	c #2599FD",
"(+	c #1E80F2",
"_+	c #145BCD",
":+	c #0060F9",
"<+	c #276EFF",
"[+	c #3D7DFF",
"}+	c #4985FF",
"|+	c #43B1FF",
"1+	c #3EB4FF",
"2+	c #35B2FF",
"3+	c #2CAEFF",
"4+	c #24A5FF",
"5+	c #1F97FD",
"6+	c #1980F3",
"7+	c #105ACE",
"8+	c #0060FC",
"9+	c #216AFF",
"0+	c #3578FF",
"a+	c #4885FF",
"b+	c #41AFFF",
"c+	c #3BB2FF",
"d+	c #33B1FF",
"e+	c #2AADFF",
"f+	c #21A3FF",
"g+	c #1A95FD",
"h+	c #137CF2",
"i+	c #0C59CF",
"j+	c #0065FD",
"k+	c #1C66FF",
"l+	c #3879FF",
"m+	c #3F7EFF",
"n+	c #4584FF",
"o+	c #4587FF",
"p+	c #468EFF",
"q+	c #4696FF",
"r+	c #439CFF",
"s+	c #3FA3FF",
"t+	c #3BA8FF",
"u+	c #33AAFF",
"v+	c #2DA9FF",
"w+	c #24A6FF",
"x+	c #1D9EFF",
"y+	c #1690FD",
"z+	c #1078F1",
"A+	c #0B57CE",
"B+	c #026AFE",
"C+	c #1761F9",
"D+	c #246BFA",
"E+	c #2F72FB",
"F+	c #3676FB",
"G+	c #3A7AFB",
"H+	c #3B7BFC",
"I+	c #3B7EFC",
"J+	c #3C84FC",
"K+	c #3B8AFC",
"L+	c #3990FC",
"M+	c #3695FC",
"N+	c #3299FC",
"O+	c #2C9CFD",
"P+	c #259BFD",
"Q+	c #1E97FD",
"R+	c #1790FC",
"S+	c #1184FA",
"T+	c #0C6DED",
"U+	c #0850C8",
"V+	c #2F6AE4",
"W+	c #1B5FE9",
"X+	c #2163E8",
"Y+	c #2868EB",
"Z+	c #2C6AEA",
"`+	c #2E6DEA",
" @	c #2D6DEB",
".@	c #2C71EC",
"+@	c #2C76EC",
"@@	c #2A79ED",
"#@	c #287EEF",
"$@	c #2481F1",
"%@	c #2182F1",
"&@	c #1C80F1",
"*@	c #1880F3",
"=@	c #117AF2",
"-@	c #0C6EED",
";@	c #0A5DDD",
">@	c #265DC1",
",@	c #7D94C4",
"'@	c #D1DDF4",
")@	c #2E61CA",
"!@	c #134BBF",
"~@	c #164FC2",
"{@	c #1950C1",
"]@	c #1B52C1",
"^@	c #1A52C3",
"/@	c #1954C6",
"(@	c #1B58C9",
"_@	c #1858C8",
":@	c #165BCD",
"<@	c #145CD0",
"[@	c #135CD0",
"}@	c #0F58CC",
"|@	c #0D5AD2",
"1@	c #0B58D1",
"2@	c #0951CB",
"3@	c #265EC3",
"4@	c #D0DAEE",
"5@	c #0566FB",
"6@	c #7D93C3",
"7@	c #0046E0",
"8@	c #0143CF",
"9@	c #CFD3DA",
"0@	c #1F3B5F",
"a@	c #002453",
"b@	c #002557",
"c@	c #002658",
"d@	c #00285C",
"e@	c #002A61",
"f@	c #002D67",
"g@	c #002F6B",
"h@	c #002F6C",
"i@	c #003273",
"j@	c #003478",
"k@	c #00357B",
"l@	c #00377F",
"m@	c #003780",
"n@	c #003984",
"o@	c #003882",
"p@	c #1F5295",
"q@	c #CFDAE9",
"r@	c #002A62",
"s@	c #003070",
"t@	c #003275",
"u@	c #003883",
"v@	c #003A88",
"w@	c #003D8F",
"x@	c #003E90",
"y@	c #004094",
"z@	c #004299",
"A@	c #00439B",
"B@	c #00449E",
"C@	c #00459F",
"D@	c #0045A1",
"E@	c #0045A0",
"F@	c #1F5AA8",
"G@	c #002452",
"H@	c #003170",
"I@	c #003B8B",
"J@	c #003C8F",
"K@	c #003E94",
"L@	c #004099",
"M@	c #00429D",
"N@	c #0044A2",
"O@	c #0046A5",
"P@	c #0048A8",
"Q@	c #0049AB",
"R@	c #004AAC",
"S@	c #004AAD",
"T@	c #004BAE",
"U@	c #004BAF",
"V@	c #004BAD",
"W@	c #003377",
"X@	c #003D92",
"Y@	c #003F97",
"Z@	c #00419D",
"`@	c #0043A1",
" #	c #0045A4",
".#	c #0047A8",
"+#	c #0048AB",
"@#	c #0049AD",
"##	c #004AAE",
"$#	c #004CB0",
"%#	c #004DB1",
"&#	c #004DB2",
"*#	c #002555",
"=#	c #003D90",
"-#	c #00409C",
";#	c #0042A1",
">#	c #0044A5",
",#	c #0046A8",
"'#	c #0047AA",
")#	c #0049AC",
"!#	c #00275A",
"~#	c #003781",
"{#	c #003F95",
"]#	c #0045A9",
"^#	c #0046AA",
"/#	c #0047AC",
"(#	c #004BB0",
"_#	c #004EB3",
":#	c #00295F",
"<#	c #003985",
"[#	c #00419B",
"}#	c #0043A2",
"|#	c #0044A6",
"1#	c #0048AD",
"2#	c #0049AE",
"3#	c #004AAF",
"4#	c #004CB1",
"5#	c #004FB3",
"6#	c #004FB4",
"7#	c #002B63",
"8#	c #003B8A",
"9#	c #00439F",
"0#	c #0045A5",
"a#	c #0047AB",
"b#	c #0050B5",
"c#	c #0051B6",
"d#	c #002D68",
"e#	c #0045A3",
"f#	c #0052B7",
"g#	c #0053B8",
"h#	c #0054B9",
"i#	c #003F93",
"j#	c #0047A7",
"k#	c #0055BA",
"l#	c #0056BB",
"m#	c #0057BC",
"n#	c #003172",
"o#	c #004095",
"p#	c #0048AA",
"q#	c #0058BD",
"r#	c #0059BE",
"s#	c #005ABF",
"t#	c #0055B9",
"u#	c #005CC1",
"v#	c #005DC2",
"w#	c #005EC3",
"x#	c #00449D",
"y#	c #78A2D8",
"z#	c #005FC4",
"A#	c #0060C5",
"B#	c #00367E",
"C#	c #0061C6",
"D#	c #0059BD",
"E#	c #0062C6",
"F#	c #005ABE",
"G#	c #0054B8",
"H#	c #003881",
"I#	c #0046A1",
"J#	c #004EB2",
"K#	c #005CC0",
"L#	c #005FC3",
"M#	c #0060C4",
"N#	c #0058BC",
"O#	c #005BC0",
"P#	c #1F5294",
"Q#	c #0046A2",
"R#	c #1F66BE",
"S#	c #CFDAE8",
"T#	c #1F5BA9",
"U#	c #1F66BF",
"V#	c #CFDEF1",
"                                              ",
". . . . . . . . . . . . . . . . . . . . . . . ",
"+ @ # $ % % % % % % % % % % % % % % % & # @ + ",
"* # = - ; > , ' ) ! ~ ~ { ] ^ / ( _ : < [ # * ",
"} & | 1 2 3 4 5 6 7 8 9 0 a b c d { e f g $ } ",
"} % 8 h i j k l m n o p q 0 a r s t u v w % } ",
"} % x y j z 4 A - B C D E F G H I J K L M % } ",
"N % O P Q R S T U a O ' ! { V W X Y Z `  .% N ",
"..% F 5 +.@.- #.$.%.&.H *.=.-.;.>.;.,.` '.% ..",
"N % ).!.~.{.p ].D ^./.(._.:.<.[.[.}.|.1.2.% N ",
"N % 3.4.7 p 9 5.%.6.7.8.9.0.a.b.b.c.d.e.f.% N ",
"g.% { h.9 i.0 h.j.k.l.m.n.o.p.q.r.s.t.u.v.% g.",
"g.% w.r h.x.$.D y.z.A.B.C.D.E.F.G.H.I.J.K.% g.",
"L.% Y s M.> > %.N.O.P.Q.R.S.T.U.V.W.X.Y.Z.% L.",
"`.%  +! , r M..+N.++@+#+$+%+&+*+=+-+;+>+,+% `.",
"'+% )+{ d F % % % % % % % !+~+{+]+^+/+(+_+% '+",
":+% <+[+}+d % % % % % % % |+1+2+3+4+5+6+7+% :+",
"8+% 9+0+] a+% % % % % % % b+c+d+e+f+g+h+i+% 8+",
"j+% k+)+l+m+*.n+o+p+q+r+s+t+u+v+w+x+y+z+A+% j+",
"B+% C+D+E+F+G+H+I+J+K+L+M+N+O+P+Q+R+S+T+U+% B+",
"B+$ V+W+X+Y+Z+`+ @.@+@@@#@$@%@&@*@=@-@;@>@& B+",
"B+,@'@)@!@~@{@]@^@/@(@_@:@<@[@}@|@1@2@3@4@,@B+",
"j+5@6@& % % % % % % % % % % % % % % % $ 6@5@j+",
":+:+:+:+:+:+:+:+:+:+:+:+:+:+:+:+:+:+:+:+:+:+:+",
"7@7@7@7@7@7@7@7@7@7@7@7@7@7@7@7@7@7@7@7@7@7@7@",
"8@8@8@8@8@8@8@8@8@8@8@8@8@8@8@8@8@8@8@8@8@8@8@",
"                                              ",
". . . . . . . . . . . . . . . . . . . . . . . ",
"+ @ # $ % % % % % % % % % % % % % % % & # @ + ",
"* # 9@0@a@b@c@d@e@f@g@h@i@j@k@l@m@n@o@p@q@# * ",
"} & 0@r@s@t@j@l@u@v@w@x@y@z@A@B@C@D@E@D@F@$ } ",
"} % G@H@o@I@J@K@L@M@N@O@P@Q@R@S@T@T@U@T@V@% } ",
"} % a@W@I@X@Y@Z@`@ #.#+#@###$#%#%#%#&#&#&#% } ",
"N % *#k@=#Y@-#;#>#,#'#Q@)###U@$#%#%#&#&#&#% N ",
"..% !#~#{#Z@;#>#]#^#/#@###(#%#%#%#%#_#&#&#% ..",
"N % :#<#[#}#|#^#/#1#2#3#4#&#_#5#6#6#6#_#&#% N ",
"N % 7#8#9#0#,#a#2#2#3#4#&#6#b#b#c#b#b#6#_#% N ",
"g.% d#w@e#.#a#1#3#(#4#_#b#f#g#h#h#g#g#c#6#% g.",
"g.% h@i#j#+#)#2#U@4#_#b#f#k#l#m#m#l#k#g#b#% g.",
"L.% n#o#p#)#@###$#&#b#f#k#q#r#s#s#r#q#k#c#% L.",
"`.% W@z@)#####(#%#6#f#t#m#s#u#v#w#u#s#l#c#% `.",
"'+% k@x#V@$#y#y#y#y#y#y#y#u#w#z#A#w#u#q#f#% '+",
":+% B#B@T@%#y#y#y#y#y#y#y#v#z#A#C#z#v#D#g#% :+",
"8+% ~#E@T@%#y#y#y#y#y#y#y#v#z#C#E#A#w#F#G#% 8+",
"j+% H#I#T@%#%#J#_#b#g#l#r#K#w#L#A#M#v#r#g#% j+",
"B+% u@D@U@&#&#_#_#b#g#k#N#s#u#v#w#v#O#m#c#% B+",
"B+$ P#Q#U@&#&#&#&#6#c#g#k#m#q#r#s#r#m#h#R#& B+",
"B+,@S#T#V@&#&#&#&#_#6#b#c#f#f#g#h#g#f#U#V#,@B+",
"j+5@6@& % % % % % % % % % % % % % % % $ 6@5@j+",
":+:+:+:+:+:+:+:+:+:+:+:+:+:+:+:+:+:+:+:+:+:+:+",
"7@7@7@7@7@7@7@7@7@7@7@7@7@7@7@7@7@7@7@7@7@7@7@",
"8@8@8@8@8@8@8@8@8@8@8@8@8@8@8@8@8@8@8@8@8@8@8@"};
