/* XPM */
static char * minimizeA_xpm[] = {
"23 52 335 2",
"  	c #016CFE",
". 	c #0365F1",
"+ 	c #005CE9",
"@ 	c #055EE8",
"# 	c #6697EC",
"$ 	c #E5EDFC",
"% 	c #FFFFFF",
"& 	c #0058E6",
"* 	c #6696EB",
"= 	c #DCE5FD",
"- 	c #739AF8",
"; 	c #608CF7",
"> 	c #5584F6",
", 	c #4D7EF6",
"' 	c #487AF5",
") 	c #4276F5",
"! 	c #4478F5",
"~ 	c #3E73F5",
"{ 	c #3B71F5",
"] 	c #336CF4",
"^ 	c #306AF4",
"/ 	c #2864F4",
"( 	c #1F5DEF",
"_ 	c #3467E0",
": 	c #D2DBF2",
"< 	c #0053E1",
"[ 	c #769CF8",
"} 	c #90AFF9",
"| 	c #94B2F9",
"1 	c #85A7F8",
"2 	c #759CF8",
"3 	c #6E97F8",
"4 	c #6892F7",
"5 	c #6690F7",
"6 	c #628EF7",
"7 	c #5F8CF7",
"8 	c #5E8BF7",
"9 	c #5988F6",
"0 	c #5685F6",
"a 	c #5082F6",
"b 	c #497CF5",
"c 	c #3F75F5",
"d 	c #326BF2",
"e 	c #235CE3",
"f 	c #305CC5",
"g 	c #E5ECFB",
"h 	c #6590F7",
"i 	c #97B4F9",
"j 	c #9AB7FA",
"k 	c #89AAF9",
"l 	c #7AA0F8",
"m 	c #729AF8",
"n 	c #6D95F8",
"o 	c #6892F8",
"p 	c #658FF7",
"q 	c #618DF7",
"r 	c #5D8AF7",
"s 	c #5987F6",
"t 	c #5283F6",
"u 	c #4C7EF6",
"v 	c #4377F5",
"w 	c #376EF2",
"x 	c #285FE3",
"y 	c #1546B9",
"z 	c #5886F6",
"A 	c #8DADF9",
"B 	c #7FA3F8",
"C 	c #7199F8",
"D 	c #6A93F8",
"E 	c #648EF7",
"F 	c #5E8AF7",
"G 	c #5986F7",
"H 	c #5482F6",
"I 	c #5180F6",
"J 	c #4B7CF5",
"K 	c #4A7CF5",
"L 	c #3A72F4",
"M 	c #346CF2",
"N 	c #2A61E3",
"O 	c #1848BB",
"P 	c #0055E5",
"Q 	c #5282F6",
"R 	c #799FF8",
"S 	c #7CA1F8",
"T 	c #6791F8",
"U 	c #608BF7",
"V 	c #5985F7",
"W 	c #5381F6",
"X 	c #4D7BF6",
"Y 	c #4677F5",
"Z 	c #4173F5",
"` 	c #3A6FF4",
" .	c #386EF4",
"..	c #346CF4",
"+.	c #326CF4",
"@.	c #316BF4",
"#.	c #3069F1",
"$.	c #2C62E4",
"%.	c #1D4CBC",
"&.	c #0051E5",
"*.	c #7099F8",
"=.	c #628CF8",
"-.	c #5B86F7",
";.	c #5480F7",
">.	c #4777F6",
",.	c #4072F5",
"'.	c #3A6FF5",
").	c #346DF4",
"!.	c #306BF4",
"~.	c #2D69F4",
"{.	c #2C69F5",
"].	c #2D69F5",
"^.	c #2E69F2",
"/.	c #2C63E5",
"(.	c #4679F5",
"_.	c #658FF8",
":.	c #5E89F7",
"<.	c #5783F7",
"[.	c #507EF6",
"}.	c #4A79F6",
"|.	c #4375F5",
"1.	c #3D71F5",
"2.	c #366EF4",
"3.	c #2F6BF5",
"4.	c #2B69F5",
"5.	c #2867F5",
"6.	c #2766F5",
"7.	c #2A68F5",
"8.	c #2C69F2",
"9.	c #2A62E4",
"0.	c #1C4CBD",
"a.	c #628DF8",
"b.	c #5B87F7",
"c.	c #5482F7",
"d.	c #4E7CF6",
"e.	c #4778F6",
"f.	c #4174F5",
"g.	c #3A71F5",
"h.	c #346EF4",
"i.	c #2D6BF5",
"j.	c #2869F5",
"k.	c #2467F5",
"l.	c #2266F5",
"m.	c #2567F5",
"n.	c #2968F2",
"o.	c #2963E4",
"p.	c #1B4BBD",
"q.	c #0055EA",
"r.	c #3C72F4",
"s.	c #5D89F7",
"t.	c #4E7EF6",
"u.	c #477AF5",
"v.	c #4178F5",
"w.	c #3A74F5",
"x.	c #3472F5",
"y.	c #2C6FF5",
"z.	c #276CF5",
"A.	c #236AF6",
"B.	c #2069F6",
"C.	c #2268F5",
"D.	c #2569F2",
"E.	c #2562E6",
"F.	c #194BBE",
"G.	c #376EF4",
"H.	c #5181F6",
"I.	c #5785F7",
"J.	c #5281F6",
"K.	c #477BF6",
"L.	c #4179F6",
"M.	c #3B77F5",
"N.	c #3474F5",
"O.	c #2C72F6",
"P.	c #266FF6",
"Q.	c #226DF6",
"R.	c #1E6BF6",
"S.	c #1F6AF6",
"T.	c #216AF3",
"U.	c #2162E6",
"V.	c #1649BE",
"W.	c #0058EE",
"X.	c #326BF4",
"Y.	c #4B7DF5",
"Z.	c #5483F6",
"`.	c #5684F7",
" +	c #5583F7",
".+	c #4D80F6",
"++	c #487DF6",
"@+	c #427CF6",
"#+	c #3C7AF6",
"$+	c #3478F6",
"%+	c #2D76F6",
"&+	c #2673F7",
"*+	c #2171F7",
"=+	c #1C6FF6",
"-+	c #1C6DF6",
";+	c #1C6AF4",
">+	c #1C61E6",
",+	c #1248BF",
"'+	c #0058F3",
")+	c #2B66F4",
"!+	c #4E7FF6",
"~+	c #5383F6",
"{+	c #5182F6",
"]+	c #4D81F7",
"^+	c #487FF6",
"/+	c #437FF6",
"(+	c #3D7EF6",
"_+	c #357CF6",
":+	c #2D7AF7",
"<+	c #2677F7",
"[+	c #2174F7",
"}+	c #1B71F7",
"|+	c #186EF7",
"1+	c #186AF4",
"2+	c #165FE7",
"3+	c #0F47C0",
"4+	c #005AF5",
"5+	c #2562F3",
"6+	c #3D73F4",
"7+	c #487BF5",
"8+	c #4E80F6",
"9+	c #2D7CF7",
"0+	c #2679F8",
"a+	c #2077F7",
"b+	c #1973F7",
"c+	c #166FF7",
"d+	c #1369F4",
"e+	c #105DE8",
"f+	c #0A44BF",
"g+	c #0060F9",
"h+	c #1E5DF3",
"i+	c #497BF5",
"j+	c #2D7DF7",
"k+	c #257AF8",
"l+	c #1E77F8",
"m+	c #1773F8",
"n+	c #116DF7",
"o+	c #0D66F4",
"p+	c #0B59E7",
"q+	c #0641C0",
"r+	c #0060FC",
"s+	c #1859F3",
"t+	c #2E68F4",
"u+	c #3A71F4",
"v+	c #4277F5",
"w+	c #2A7CF8",
"x+	c #247AF8",
"y+	c #1D77F8",
"z+	c #1573F8",
"A+	c #0E6CF8",
"B+	c #0963F4",
"C+	c #0556E7",
"D+	c #023FBF",
"E+	c #0065FD",
"F+	c #1456F3",
"G+	c #2562F4",
"H+	c #3971F4",
"I+	c #3D74F5",
"J+	c #3D74F6",
"K+	c #3B75F5",
"L+	c #3976F5",
"M+	c #3777F5",
"N+	c #3278F6",
"O+	c #2C78F7",
"P+	c #2577F7",
"Q+	c #1F76F7",
"R+	c #1972F7",
"S+	c #116EF8",
"T+	c #0B68F7",
"U+	c #0560F4",
"V+	c #0253E6",
"W+	c #013DBE",
"X+	c #026AFE",
"Y+	c #0E50ED",
"Z+	c #1C5BEF",
"`+	c #2863F0",
" @	c #2F68F0",
".@	c #336BF1",
"+@	c #346CF1",
"@@	c #316CF2",
"#@	c #316DF2",
"$@	c #2E6FF2",
"%@	c #2A70F2",
"&@	c #2570F3",
"*@	c #1F6FF3",
"=@	c #196DF4",
"-@	c #136AF4",
";@	c #0760F3",
">@	c #025AF0",
",@	c #004DE2",
"'@	c #003AB9",
")@	c #E5EEFD",
"!@	c #285EDF",
"~@	c #134FDF",
"{@	c #1B55DF",
"]@	c #215AE2",
"^@	c #255CE1",
"/@	c #265DE0",
"(@	c #245CE1",
"_@	c #235EE2",
":@	c #215EE2",
"<@	c #1E5EE2",
"[@	c #1B5FE5",
"}@	c #165EE5",
"|@	c #135DE6",
"1@	c #0E5BE5",
"2@	c #0958E6",
"3@	c #0454E6",
"4@	c #014EE2",
"5@	c #0045D3",
"6@	c #1F4EB8",
"7@	c #679EF6",
"8@	c #D0DAF1",
"9@	c #2856C3",
"0@	c #0D3FB6",
"a@	c #1144BD",
"b@	c #1245BB",
"c@	c #1445B9",
"d@	c #1244B9",
"e@	c #1345BC",
"f@	c #1346BD",
"g@	c #1045BE",
"h@	c #0D45C0",
"i@	c #0A45C1",
"j@	c #0844C3",
"k@	c #033FC0",
"l@	c #013FC3",
"m@	c #003BBE",
"n@	c #1F4EB9",
"o@	c #CFD8ED",
"p@	c #0566FB",
"q@	c #669BF5",
"r@	c #E5EDFD",
"s@	c #0046E0",
"t@	c #0143CF",
"                                              ",
". . . . . . . . . . . . . . . . . . . . . . . ",
"+ @ # $ % % % % % % % % % % % % % % % % # @ + ",
"& * = - ; > , ' ) ! ~ ~ { { ] ] ^ / ( _ : * & ",
"< % [ } | 1 2 3 4 5 6 7 8 9 0 a b c d e f g < ",
"< % h i j k l m n o p 6 q r s t u v w x y % < ",
"< % z k A B C D E F G H I J K ! c L M N O % < ",
"P % Q R S C T U V W X Y Z `  ...+.@.#.$.%.% P ",
"&.% , 3 *.D =.-.;.X >.,.'.).!.~.{.].^./.%.% &.",
"P % (.o D _.:.<.[.}.|.1.2.3.4.5.6.7.8.9.0.% P ",
"P % (.; a.U b.c.d.e.f.g.h.i.j.k.l.m.n.o.p.% P ",
"q.% r.s r s.G W t.u.v.w.x.y.z.A.B.C.D.E.F.% q.",
"q.% G.H.I.G I.J., K.L.M.N.O.P.Q.R.S.T.U.V.% q.",
"W.% X.Y.Z.`. +Q .+++@+#+$+%+&+*+=+-+;+>+,+% W.",
"'+% )+! !+Q ~+{+]+^+/+(+_+:+<+[+}+|+1+2+3+% '+",
"4+% 5+6+7+8+% % % % % % % 9+0+a+b+c+d+e+f+% 4+",
"g+% h+2.) i+% % % % % % % j+k+l+m+n+o+p+q+% g+",
"r+% s+t+u+v+% % % % % % % w+x+y+z+A+B+C+D+% r+",
"E+% F+G+@.H+I+J+K+L+M+N+O+P+Q+R+S+T+U+V+W+% E+",
"X+% Y+Z+`+ @.@+@@@#@$@%@&@*@=@-@o+;@>@,@'@% X+",
"X+)@!@~@{@]@^@/@(@_@:@<@[@}@|@1@2@3@4@5@6@% X+",
"X+7@8@9@0@a@b@c@d@e@f@g@h@i@j@q+k@l@m@n@o@7@X+",
"E+p@q@% % % % % % % % % % % % % % % % r@q@p@E+",
"g+g+g+g+g+g+g+g+g+g+g+g+g+g+g+g+g+g+g+g+g+g+g+",
"s@s@s@s@s@s@s@s@s@s@s@s@s@s@s@s@s@s@s@s@s@s@s@",
"t@t@t@t@t@t@t@t@t@t@t@t@t@t@t@t@t@t@t@t@t@t@t@",
"                                              ",
". . . . . . . . . . . . . . . . . . . . . . . ",
"+ @ # $ % % % % % % % % % % % % % % % % # @ + ",
"& * = - ; > , ' ) ! ~ ~ { { ] ] ^ / ( _ : * & ",
"< % [ } | 1 2 3 4 5 6 7 8 9 0 a b c d e f g < ",
"< % h i j k l m n o p 6 q r s t u v w x y % < ",
"< % z k A B C D E F G H I J K ! c L M N O % < ",
"P % Q R S C T U V W X Y Z `  ...+.@.#.$.%.% P ",
"&.% , 3 *.D =.-.;.X >.,.'.).!.~.{.].^./.%.% &.",
"P % (.o D _.:.<.[.}.|.1.2.3.4.5.6.7.8.9.0.% P ",
"P % (.; a.U b.c.d.e.f.g.h.i.j.k.l.m.n.o.p.% P ",
"q.% r.s r s.G W t.u.v.w.x.y.z.A.B.C.D.E.F.% q.",
"q.% G.H.I.G I.J., K.L.M.N.O.P.Q.R.S.T.U.V.% q.",
"W.% X.Y.Z.`. +Q .+++@+#+$+%+&+*+=+-+;+>+,+% W.",
"'+% )+! !+Q ~+{+]+^+/+(+_+:+<+[+}+|+1+2+3+% '+",
"4+% 5+6+7+8+% % % % % % % 9+0+a+b+c+d+e+f+% 4+",
"g+% h+2.) i+% % % % % % % j+k+l+m+n+o+p+q+% g+",
"r+% s+t+u+v+% % % % % % % w+x+y+z+A+B+C+D+% r+",
"E+% F+G+@.H+I+J+K+L+M+N+O+P+Q+R+S+T+U+V+W+% E+",
"X+% Y+Z+`+ @.@+@@@#@$@%@&@*@=@-@o+;@>@,@'@% X+",
"X+)@!@~@{@]@^@/@(@_@:@<@[@}@|@1@2@3@4@5@6@% X+",
"X+7@8@9@0@a@b@c@d@e@f@g@h@i@j@q+k@l@m@n@o@7@X+",
"E+p@q@% % % % % % % % % % % % % % % % r@q@p@E+",
"g+g+g+g+g+g+g+g+g+g+g+g+g+g+g+g+g+g+g+g+g+g+g+",
"s@s@s@s@s@s@s@s@s@s@s@s@s@s@s@s@s@s@s@s@s@s@s@",
"t@t@t@t@t@t@t@t@t@t@t@t@t@t@t@t@t@t@t@t@t@t@t@"};
