/* XPM */
static char * restoreA_xpm[] = {
"33 44 79 1",
" 	c #9EB9D4",
".	c #9FBAD6",
"+	c #A1BBD7",
"@	c #91AAC4",
"#	c #6C8099",
"$	c #5D6F88",
"%	c #657690",
"&	c #B9C3D0",
"*	c #DFE8F2",
"=	c #A2BCD8",
"-	c #5F7089",
";	c #C3D4E7",
">	c #A4BED9",
",	c #60718A",
"'	c #DEE7F2",
")	c #C1D3E7",
"!	c #8690A2",
"~	c #535666",
"{	c #A5BFDA",
"]	c #61718A",
"^	c #C1D3E6",
"/	c #FAFAFA",
"(	c #A7C0DC",
"_	c #61728B",
":	c #DDE7F2",
"<	c #BFD3E7",
"[	c #E9E9E9",
"}	c #A8C1DD",
"|	c #62738C",
"1	c #BED3E7",
"2	c #8590A2",
"3	c #A9C3DD",
"4	c #DCE7F2",
"5	c #BFD3E8",
"6	c #E2E2E2",
"7	c #DCE7F3",
"8	c #ABC4DF",
"9	c #63748D",
"0	c #C8D5E4",
"a	c #98B1CC",
"b	c #DCDCDC",
"c	c #ACC5E0",
"d	c #C9D6E4",
"e	c #9AB3CD",
"f	c #D7D7D7",
"g	c #C9D6E5",
"h	c #AEC7E1",
"i	c #64758D",
"j	c #CAD7E5",
"k	c #9DB5CF",
"l	c #758297",
"m	c #CAD7E6",
"n	c #B0C8E2",
"o	c #65768E",
"p	c #CEDCEA",
"q	c #A4BED8",
"r	c #B1C9E4",
"s	c #66768F",
"t	c #D2E0EE",
"u	c #ACC5DF",
"v	c #B2CBE5",
"w	c #677890",
"x	c #D6E3F1",
"y	c #7F8DA1",
"z	c #B3CCE6",
"A	c #687991",
"B	c #D8E6F3",
"C	c #B7D0E9",
"D	c #B4CDE6",
"E	c #71829B",
"F	c #BECAD8",
"G	c #D9E7F4",
"H	c #B5CEE7",
"I	c #A3BAD3",
"J	c #71829A",
"K	c #697A92",
"L	c #B7CFE8",
"M	c #B8D0E9",
"N	c #B9D1EA",
"                                 ",
".................................",
"+@#$$$$$$$$$$$$$$$$$$$$$$$$$$$#@+",
"+%&***************************&%+",
"=-*;;;;;;;;;;;;;;;;;;;;;;;;;;;*-=",
">,')))))))))))!~~~~~~!))))))))',>",
"{]'^^^^^^^^^^^~//////~^^^^^^^^']{",
"(_:<<<<<<<<<<<~[[[[[[~<<<<<<<<:_(",
"}|:11111112~~~~~~~~~[~11111111:|}",
"3|45555555~//////~5~6~555555557|3",
"890aaaaaaa~[[[[[[~~~b~aaaaaaaa098",
"c9deeeeeee~[~~~~[~fff~eeeeeeeeg9c",
"hijkkkkkkk~6~kk~6~~~~lkkkkkkkkmih",
"nopqqqqqqq~b~~~~b~qqqqqqqqqqqqpon",
"rstuuuuuuu~ffffff~uuuuuuuuuuuutsr",
"vwxvvvvvvvy~~~~~~yvvvvvvvvvvvvxwv",
"zABCCCCCCCCCCCCCCCCCCCCCCCCCCCBAz",
"DEFGGGGGGGGGGGGGGGGGGGGGGGGGGGFED",
"HIJKKKKKKKKKKKKKKKKKKKKKKKKKKKJIH",
"LLLLLLLLLLLLLLLLLLLLLLLLLLLLLLLLL",
"MMMMMMMMMMMMMMMMMMMMMMMMMMMMMMMMM",
"NNNNNNNNNNNNNNNNNNNNNNNNNNNNNNNNN",
"                                 ",
".................................",
"+@#$$$$$$$$$$$$$$$$$$$$$$$$$$$#@+",
"+%&***************************&%+",
"=-*;;;;;;;;;;;;;;;;;;;;;;;;;;;*-=",
">,')))))))))))!~~~~~~!))))))))',>",
"{]'^^^^^^^^^^^~//////~^^^^^^^^']{",
"(_:<<<<<<<<<<<~[[[[[[~<<<<<<<<:_(",
"}|:11111112~~~~~~~~~[~11111111:|}",
"3|45555555~//////~5~6~555555557|3",
"890aaaaaaa~[[[[[[~~~b~aaaaaaaa098",
"c9deeeeeee~[~~~~[~fff~eeeeeeeeg9c",
"hijkkkkkkk~6~kk~6~~~~lkkkkkkkkmih",
"nopqqqqqqq~b~~~~b~qqqqqqqqqqqqpon",
"rstuuuuuuu~ffffff~uuuuuuuuuuuutsr",
"vwxvvvvvvvy~~~~~~yvvvvvvvvvvvvxwv",
"zABCCCCCCCCCCCCCCCCCCCCCCCCCCCBAz",
"DEFGGGGGGGGGGGGGGGGGGGGGGGGGGGFED",
"HIJKKKKKKKKKKKKKKKKKKKKKKKKKKKJIH",
"LLLLLLLLLLLLLLLLLLLLLLLLLLLLLLLLL",
"MMMMMMMMMMMMMMMMMMMMMMMMMMMMMMMMM",
"NNNNNNNNNNNNNNNNNNNNNNNNNNNNNNNNN"};
