/* XPM */
static char * restoreI_xpm[] = {
"33 44 74 1",
" 	c #C3D1DF",
".	c #C4D2E0",
"+	c #C5D3E1",
"@	c #BAC6D6",
"#	c #949FB5",
"$	c #838EA8",
"%	c #8B96AF",
"&	c #BBC4D2",
"*	c #D1DBE5",
"=	c #C6D4E2",
"-	c #CFD9E4",
";	c #BDCBDA",
">	c #C7D5E3",
",	c #848FA9",
"'	c #D1DAE5",
")	c #BECCDB",
"!	c #858D9C",
"~	c #535666",
"{	c #C8D6E4",
"]	c #D1DCE7",
"^	c #BFCEDD",
"/	c #FAFAFA",
"(	c #C9D7E5",
"_	c #8590AA",
":	c #D3DCE7",
"<	c #C2D0DF",
"[	c #E9E9E9",
"}	c #CBD8E6",
"|	c #C3D0E0",
"1	c #878F9F",
"2	c #D4DCE7",
"3	c #CCDAE7",
"4	c #D4DEE8",
"5	c #C4D1E1",
"6	c #E2E2E2",
"7	c #D4DDE8",
"8	c #CDDBE8",
"9	c #8591AB",
"0	c #D5DFEA",
"a	c #C5D3E3",
"b	c #DCDCDC",
"c	c #CEDCE9",
"d	c #D5E0EA",
"e	c #C6D3E3",
"f	c #D7D7D7",
"g	c #CFDDEA",
"h	c #8691AB",
"i	c #D6E0EA",
"j	c #C6D4E4",
"k	c #8891A0",
"l	c #D0DEEB",
"m	c #D8E1EC",
"n	c #C8D6E5",
"o	c #D1DFEC",
"p	c #8792AC",
"q	c #C8D6E6",
"r	c #D2E0ED",
"s	c #DAE3EE",
"t	c #CBD9E9",
"u	c #8B93A3",
"v	c #D3E1EE",
"w	c #8893AD",
"x	c #DBE5F0",
"y	c #CEDCEB",
"z	c #D4E2EF",
"A	c #929DB5",
"B	c #C6CFDD",
"C	c #DFE8F3",
"D	c #D5E2F0",
"E	c #C9D5E6",
"F	c #919CB5",
"G	c #D6E3F1",
"H	c #D6E4F1",
"I	c #D7E4F2",
"                                 ",
".................................",
"+@#$$$$$$$$$$$$$$$$$$$$$$$$$$$#@+",
"+%&***************************&%+",
"=$-;;;;;;;;;;;;;;;;;;;;;;;;;;;-$=",
">,')))))))))))!~~~~~~!))))))))',>",
"{,]^^^^^^^^^^^~//////~^^^^^^^^],{",
"(_:<<<<<<<<<<<~[[[[[[~<<<<<<<<:_(",
"}_:|||||||1~~~~~~~~~[~||||||||2_}",
"3_45555555~//////~5~6~555555557_3",
"890aaaaaaa~[[[[[[~~~b~aaaaaaaa098",
"c9deeeeeee~[~~~~[~fff~eeeeeeee09c",
"ghijjjjjjj~6~jj~6~~~~kjjjjjjjjdhg",
"lhmnnnnnnn~b~~~~b~nnnnnnnnnnnnmhl",
"opmqqqqqqq~ffffff~qqqqqqqqqqqqmpo",
"rpstttttttu~~~~~~uttttttttttttspr",
"vwxyyyyyyyyyyyyyyyyyyyyyyyyyyyxwv",
"zABCCCCCCCCCCCCCCCCCCCCCCCCCCCBAz",
"DEFwwwwwwwwwwwwwwwwwwwwwwwwwwwFED",
"GGGGGGGGGGGGGGGGGGGGGGGGGGGGGGGGG",
"HHHHHHHHHHHHHHHHHHHHHHHHHHHHHHHHH",
"IIIIIIIIIIIIIIIIIIIIIIIIIIIIIIIII",
"                                 ",
".................................",
"+@#$$$$$$$$$$$$$$$$$$$$$$$$$$$#@+",
"+%&***************************&%+",
"=$-;;;;;;;;;;;;;;;;;;;;;;;;;;;-$=",
">,')))))))))))!~~~~~~!))))))))',>",
"{,]^^^^^^^^^^^~//////~^^^^^^^^],{",
"(_:<<<<<<<<<<<~[[[[[[~<<<<<<<<:_(",
"}_:|||||||1~~~~~~~~~[~||||||||2_}",
"3_45555555~//////~5~6~555555557_3",
"890aaaaaaa~[[[[[[~~~b~aaaaaaaa098",
"c9deeeeeee~[~~~~[~fff~eeeeeeee09c",
"ghijjjjjjj~6~jj~6~~~~kjjjjjjjjdhg",
"lhmnnnnnnn~b~~~~b~nnnnnnnnnnnnmhl",
"opmqqqqqqq~ffffff~qqqqqqqqqqqqmpo",
"rpstttttttu~~~~~~uttttttttttttspr",
"vwxyyyyyyyyyyyyyyyyyyyyyyyyyyyxwv",
"zABCCCCCCCCCCCCCCCCCCCCCCCCCCCBAz",
"DEFwwwwwwwwwwwwwwwwwwwwwwwwwwwFED",
"GGGGGGGGGGGGGGGGGGGGGGGGGGGGGGGGG",
"HHHHHHHHHHHHHHHHHHHHHHHHHHHHHHHHH",
"IIIIIIIIIIIIIIIIIIIIIIIIIIIIIIIII"};
