/* XPM */
static char * titleAT_xpm[] = {
"1 26 18 1",
" 	c #0372FF",
".	c #0365F1",
"+	c #005CEC",
"@	c #0058E6",
"#	c #0055E5",
"$	c #0054E3",
"%	c #0055EA",
"&	c #0058EB",
"*	c #0058EE",
"=	c #005BF2",
"-	c #0160F5",
";	c #0060F9",
">	c #0164F9",
",	c #026AFE",
"'	c #036EFF",
")	c #0368FA",
"!	c #004DE3",
"~	c #0144D0",
" ",
".",
"+",
"@",
"#",
"$",
"#",
"#",
"#",
"#",
"#",
"%",
"&",
"*",
"=",
"-",
";",
">",
",",
",",
"'",
",",
")",
";",
"!",
"~"};
