/* XPM */
static char * closeI_xpm[] = {
"34 44 129 2",
"  	c #C3D1DF",
". 	c #C4D2E0",
"+ 	c #C5D3E1",
"@ 	c #BAC6D6",
"# 	c #949FB5",
"$ 	c #838EA8",
"% 	c #8B96AF",
"& 	c #BBC4D2",
"* 	c #D1DBE5",
"= 	c #C6D4E2",
"- 	c #CFD9E4",
"; 	c #BDCBDA",
"> 	c #C7D5E3",
", 	c #848FA9",
"' 	c #D1DAE5",
") 	c #BECCDB",
"! 	c #BDCCDA",
"~ 	c #BDCCDB",
"{ 	c #BECBDB",
"] 	c #BECCDA",
"^ 	c #C8D6E4",
"/ 	c #D1DCE7",
"( 	c #BFCDDC",
"_ 	c #BFCDDB",
": 	c #BECDDC",
"< 	c #858E9C",
"[ 	c #535666",
"} 	c #BFCCDC",
"| 	c #858D9D",
"1 	c #858E9D",
"2 	c #BECCDC",
"3 	c #C9D7E5",
"4 	c #8590AA",
"5 	c #D3DCE7",
"6 	c #C0CEDD",
"7 	c #C0CEDE",
"8 	c #C1CEDE",
"9 	c #FFFFFF",
"0 	c #868E9D",
"a 	c #CBD8E6",
"b 	c #D4DEE8",
"c 	c #C1D0DF",
"d 	c #C1CFDE",
"e 	c #C1CFDF",
"f 	c #C2CFDF",
"g 	c #868F9E",
"h 	c #FDFDFD",
"i 	c #C1D0DE",
"j 	c #C2D0DF",
"k 	c #C2D0DE",
"l 	c #C2CFDE",
"m 	c #CCDAE7",
"n 	c #C4D1E0",
"o 	c #C3D1E0",
"p 	c #C3D1E1",
"q 	c #87909F",
"r 	c #FAFAFA",
"s 	c #CDDBE8",
"t 	c #8591AB",
"u 	c #D5DFEA",
"v 	c #C5D2E1",
"w 	c #C5D3E2",
"x 	c #C4D3E1",
"y 	c #C5D2E2",
"z 	c #88909F",
"A 	c #E9E9E9",
"B 	c #C4D3E2",
"C 	c #CEDCE9",
"D 	c #C6D4E3",
"E 	c #C6D4E4",
"F 	c #C7D4E3",
"G 	c #C6D5E3",
"H 	c #8991A0",
"I 	c #E2E2E2",
"J 	c #C7D5E4",
"K 	c #C6D5E4",
"L 	c #CFDDEA",
"M 	c #C8D6E5",
"N 	c #C7D6E5",
"O 	c #8991A1",
"P 	c #DCDCDC",
"Q 	c #8992A1",
"R 	c #D0DEEB",
"S 	c #8691AB",
"T 	c #D8E1EC",
"U 	c #C9D8E7",
"V 	c #C9D8E6",
"W 	c #C9D7E6",
"X 	c #CAD8E6",
"Y 	c #C9D7E7",
"Z 	c #CAD8E7",
"` 	c #D7D7D7",
" .	c #8A93A1",
"..	c #CAD7E7",
"+.	c #CAD7E6",
"@.	c #D1DFEC",
"#.	c #8792AC",
"$.	c #CBD9E8",
"%.	c #CBD9E7",
"&.	c #CAD9E8",
"*.	c #8B93A2",
"=.	c #8A93A2",
"-.	c #CBD8E8",
";.	c #D2E0ED",
">.	c #DAE3EE",
",.	c #CCDAE9",
"'.	c #CCDAEA",
").	c #CDDAEA",
"!.	c #CCDBE9",
"~.	c #CDDAE9",
"{.	c #CCDBEA",
"].	c #D3E1EE",
"^.	c #8893AD",
"/.	c #DBE5F0",
"(.	c #CDDBEA",
"_.	c #CDDBEB",
":.	c #CDDCEA",
"<.	c #CEDBEB",
"[.	c #CDDCEB",
"}.	c #D4E2EF",
"|.	c #929DB5",
"1.	c #C6CFDD",
"2.	c #DFE8F3",
"3.	c #D5E2F0",
"4.	c #C9D5E6",
"5.	c #919CB5",
"6.	c #D6E3F1",
"7.	c #D6E4F1",
"8.	c #D7E4F2",
"                                                                    ",
". . . . . . . . . . . . . . . . . . . . . . . . . . . . . . . . . . ",
"+ @ # $ $ $ $ $ $ $ $ $ $ $ $ $ $ $ $ $ $ $ $ $ $ $ $ $ $ $ # @ + + ",
"+ % & * * * * * * * * * * * * * * * * * * * * * * * * * * * & % + + ",
"= $ - ; ; ; ; ; ; ; ; ; ; ; ; ; ; ; ; ; ; ; ; ; ; ; ; ; ; ; - $ = = ",
"> , ' ) ) ) ) ! ! ) ) ~ ) { { { { { ) ] { ] { ) ~ { { ) ~ ~ ' , > > ",
"^ , / ( _ ( ( ( ( _ : < [ [ [ < } | [ [ [ 1 ( 2 ( _ _ 2 ( } / , ^ ^ ",
"3 4 5 6 6 6 7 6 6 8 6 [ 9 9 9 [ 0 [ 9 9 9 [ 6 6 6 6 6 6 6 6 5 4 3 3 ",
"a 4 b c d c d e e f f g [ h h h [ h h h [ g i e f j j k l e b 4 a a ",
"m 4 b n o o o n n p o o q [ r r r r r [ q o p o o n n o o o b 4 m m ",
"s t u v w w x v v x w v y z [ A A A [ z x + B w w w w B w w u t s s ",
"C t u D > E E D D E F G H [ I I I I I [ H J G F F G G D K D u t C C ",
"L t u M N M M M M N ^ O [ P P P [ P P P [ Q M M M M M M M M u t L L ",
"R S T U V W X Y Y Z Z [ ` ` ` [  .[ ` ` ` [ ..V ..+.+.W ..Z T S R R ",
"@.#.T $.$.$.$.%.%.$.&.*.[ [ [ =.$.*.[ [ [ *.&.$.-.$.$.$.$.$.T #.@.@.",
";.#.>.,.,.,.'.,.,.,.,.,.).,.,.,.'.'.,.!.'.~.{.~.,.~.~.{.,.,.>.#.;.;.",
"].^./.(._._.(.(.(._.:.<.(.[._.:.(.(.(.(._.(.(.(.(.(.(.(.<.(./.^.].].",
"}.|.1.2.2.2.2.2.2.2.2.2.2.2.2.2.2.2.2.2.2.2.2.2.2.2.2.2.2.2.1.|.}.}.",
"3.4.5.^.^.^.^.^.^.^.^.^.^.^.^.^.^.^.^.^.^.^.^.^.^.^.^.^.^.^.5.4.3.3.",
"6.6.6.6.6.6.6.6.6.6.6.6.6.6.6.6.6.6.6.6.6.6.6.6.6.6.6.6.6.6.6.6.6.6.",
"7.7.7.7.7.7.7.7.7.7.7.7.7.7.7.7.7.7.7.7.7.7.7.7.7.7.7.7.7.7.7.7.7.7.",
"8.8.8.8.8.8.8.8.8.8.8.8.8.8.8.8.8.8.8.8.8.8.8.8.8.8.8.8.8.8.8.8.8.8.",
"                                                                    ",
". . . . . . . . . . . . . . . . . . . . . . . . . . . . . . . . . . ",
"+ @ # $ $ $ $ $ $ $ $ $ $ $ $ $ $ $ $ $ $ $ $ $ $ $ $ $ $ $ # @ + + ",
"+ % & * * * * * * * * * * * * * * * * * * * * * * * * * * * & % + + ",
"= $ - ; ; ; ; ; ; ; ; ; ; ; ; ; ; ; ; ; ; ; ; ; ; ; ; ; ; ; - $ = = ",
"> , ' ) ) ) ) ! ! ) ) ~ ) { { { { { ) ] { ] { ) ~ { { ) ~ ~ ' , > > ",
"^ , / ( _ ( ( ( ( _ : < [ [ [ < } | [ [ [ 1 ( 2 ( _ _ 2 ( } / , ^ ^ ",
"3 4 5 6 6 6 7 6 6 8 6 [ 9 9 9 [ 0 [ 9 9 9 [ 6 6 6 6 6 6 6 6 5 4 3 3 ",
"a 4 b c d c d e e f f g [ h h h [ h h h [ g i e f j j k l e b 4 a a ",
"m 4 b n o o o n n p o o q [ r r r r r [ q o p o o n n o o o b 4 m m ",
"s t u v w w x v v x w v y z [ A A A [ z x + B w w w w B w w u t s s ",
"C t u D > E E D D E F G H [ I I I I I [ H J G F F G G D K D u t C C ",
"L t u M N M M M M N ^ O [ P P P [ P P P [ Q M M M M M M M M u t L L ",
"R S T U V W X Y Y Z Z [ ` ` ` [  .[ ` ` ` [ ..V ..+.+.W ..Z T S R R ",
"@.#.T $.$.$.$.%.%.$.&.*.[ [ [ =.$.*.[ [ [ *.&.$.-.$.$.$.$.$.T #.@.@.",
";.#.>.,.,.,.'.,.,.,.,.,.).,.,.,.'.'.,.!.'.~.{.~.,.~.~.{.,.,.>.#.;.;.",
"].^./.(._._.(.(.(._.:.<.(.[._.:.(.(.(.(._.(.(.(.(.(.(.(.<.(./.^.].].",
"}.|.1.2.2.2.2.2.2.2.2.2.2.2.2.2.2.2.2.2.2.2.2.2.2.2.2.2.2.2.1.|.}.}.",
"3.4.5.^.^.^.^.^.^.^.^.^.^.^.^.^.^.^.^.^.^.^.^.^.^.^.^.^.^.^.5.4.3.3.",
"6.6.6.6.6.6.6.6.6.6.6.6.6.6.6.6.6.6.6.6.6.6.6.6.6.6.6.6.6.6.6.6.6.6.",
"7.7.7.7.7.7.7.7.7.7.7.7.7.7.7.7.7.7.7.7.7.7.7.7.7.7.7.7.7.7.7.7.7.7.",
"8.8.8.8.8.8.8.8.8.8.8.8.8.8.8.8.8.8.8.8.8.8.8.8.8.8.8.8.8.8.8.8.8.8."};
