/* XPM */
static char * closeO_xpm[] = {
"34 44 261 2",
"  	c #9EB9D4",
". 	c #9FBAD6",
"+ 	c #A1BBD7",
"@ 	c #A0A6BC",
"# 	c #5D3D4D",
"$ 	c #431422",
"% 	c #4F2635",
"& 	c #BEA2A5",
"* 	c #FDE4E0",
"= 	c #A2BCD8",
"- 	c #FDE1DD",
"; 	c #FCC8BF",
"> 	c #A4BED9",
", 	c #FDDED8",
"' 	c #FCC4BA",
") 	c #FCC3BA",
"! 	c #FBC4BA",
"~ 	c #FBC4B9",
"{ 	c #FBC3BA",
"] 	c #FCC4B9",
"^ 	c #A5BFDA",
"/ 	c #FDD9D3",
"( 	c #FCBDB2",
"_ 	c #FBBDB3",
": 	c #FBBDB2",
"< 	c #FBBEB3",
"[ 	c #B68983",
"} 	c #535666",
"| 	c #B58983",
"1 	c #B68984",
"2 	c #B58984",
"3 	c #FCBEB2",
"4 	c #FCBDB3",
"5 	c #A7C0DC",
"6 	c #FDD4CD",
"7 	c #FBB6AA",
"8 	c #FFFFFF",
"9 	c #B5857E",
"0 	c #A8C1DD",
"a 	c #FCCEC6",
"b 	c #FAAFA1",
"c 	c #FAAEA1",
"d 	c #FBAEA2",
"e 	c #FAAEA2",
"f 	c #FBAFA2",
"g 	c #B57F77",
"h 	c #FDFDFD",
"i 	c #B58077",
"j 	c #FBAFA1",
"k 	c #FAAFA2",
"l 	c #FBAEA1",
"m 	c #A9C3DD",
"n 	c #FAA99A",
"o 	c #FBA89A",
"p 	c #FAA89A",
"q 	c #FAA89B",
"r 	c #B57B73",
"s 	c #FAFAFA",
"t 	c #FAA99B",
"u 	c #ABC4DF",
"v 	c #E78977",
"w 	c #D22302",
"x 	c #982927",
"y 	c #E9E9E9",
"z 	c #ACC5E0",
"A 	c #D4300B",
"B 	c #D42F0B",
"C 	c #D52F0B",
"D 	c #D42F0A",
"E 	c #9A2E28",
"F 	c #E2E2E2",
"G 	c #992F28",
"H 	c #D4300A",
"I 	c #AEC7E1",
"J 	c #D74116",
"K 	c #D84116",
"L 	c #D74117",
"M 	c #9C382B",
"N 	c #DCDCDC",
"O 	c #9C382A",
"P 	c #D74216",
"Q 	c #D84117",
"R 	c #B0C8E2",
"S 	c #E8917D",
"T 	c #DB5725",
"U 	c #DB5624",
"V 	c #DB5625",
"W 	c #DB5724",
"X 	c #D7D7D7",
"Y 	c #9E442F",
"Z 	c #B1C9E4",
"` 	c #EBA288",
" .	c #DF6D33",
"..	c #DF6D34",
"+.	c #DF6C33",
"@.	c #A15335",
"#.	c #A15235",
"$.	c #B2CBE5",
"%.	c #EEB495",
"&.	c #E28242",
"*.	c #E38242",
"=.	c #E28241",
"-.	c #E38141",
";.	c #E38142",
">.	c #E38241",
",.	c #E28142",
"'.	c #B3CCE6",
").	c #F3CCA4",
"!.	c #E5934D",
"~.	c #E6944E",
"{.	c #E5934E",
"].	c #E6934D",
"^.	c #E6934E",
"/.	c #E5944E",
"(.	c #E6944D",
"_.	c #E5944D",
":.	c #B4CDE6",
"<.	c #502938",
"[.	c #C1A994",
"}.	c #F7E4B2",
"|.	c #F7E5AB",
"1.	c #F8E6A0",
"2.	c #F8E893",
"3.	c #F9EA85",
"4.	c #FAEC79",
"5.	c #FAED70",
"6.	c #FAEE6B",
"7.	c #FAED6C",
"8.	c #FAEC75",
"9.	c #F9EB80",
"0.	c #F9E98F",
"a.	c #F8E79E",
"b.	c #F7E5AA",
"c.	c #B5CEE7",
"d.	c #9B9FB5",
"e.	c #B7CFE8",
"f.	c #B8D0E9",
"g.	c #B9D1EA",
"h.	c #AA9191",
"i.	c #D7C2B7",
"j.	c #DDC7BC",
"k.	c #E1CBC0",
"l.	c #E3CCC1",
"m.	c #E4CEC2",
"n.	c #E5CFC2",
"o.	c #E6CFC3",
"p.	c #E6D0C3",
"q.	c #D2BCB2",
"r.	c #B08774",
"s.	c #BB917C",
"t.	c #C49982",
"u.	c #C69B85",
"v.	c #C99E87",
"w.	c #CCA089",
"x.	c #CDA28A",
"y.	c #CFA38B",
"z.	c #D1BAAF",
"A.	c #AE836E",
"B.	c #B88C76",
"C.	c #C0927B",
"D.	c #C3957E",
"E.	c #C69880",
"F.	c #C99B82",
"G.	c #CB9D84",
"H.	c #CD9E85",
"I.	c #D0B8AC",
"J.	c #AB7E68",
"K.	c #B68670",
"L.	c #BC8C74",
"M.	c #BF8F76",
"N.	c #C39279",
"O.	c #C6947B",
"P.	c #C8977D",
"Q.	c #CA987F",
"R.	c #927061",
"S.	c #CEB4A9",
"T.	c #A97762",
"U.	c #B38069",
"V.	c #B7836C",
"W.	c #BB876E",
"X.	c #BF8A71",
"Y.	c #C28C73",
"Z.	c #C58E75",
"`.	c #C79077",
" +	c #906A5B",
".+	c #CCB0A5",
"++	c #A6705B",
"@+	c #B17962",
"#+	c #B37B63",
"$+	c #B77E66",
"%+	c #BB8168",
"&+	c #BE836A",
"*+	c #C1856C",
"=+	c #C3876E",
"-+	c #8D6456",
";+	c #8C6354",
">+	c #B28176",
",+	c #741500",
"'+	c #7B1600",
")+	c #7D1700",
"!+	c #801700",
"~+	c #831800",
"{+	c #851800",
"]+	c #871900",
"^+	c #642626",
"/+	c #891900",
"(+	c #652626",
"_+	c #B28977",
":+	c #742401",
"<+	c #7B2701",
"[+	c #7E2801",
"}+	c #802901",
"|+	c #832A01",
"1+	c #852B01",
"2+	c #872B01",
"3+	c #892C01",
"4+	c #652D26",
"5+	c #B9947E",
"6+	c #803910",
"7+	c #873D11",
"8+	c #8C4011",
"9+	c #8E4112",
"0+	c #914312",
"a+	c #934412",
"b+	c #954513",
"c+	c #974613",
"d+	c #6F3B2A",
"e+	c #C2A489",
"f+	c #915825",
"g+	c #9A5E28",
"h+	c #A06329",
"i+	c #A3652A",
"j+	c #A6672B",
"k+	c #A8682C",
"l+	c #AA692C",
"m+	c #AB6B2D",
"n+	c #CDB697",
"o+	c #A77C3F",
"p+	c #B18543",
"q+	c #B98C47",
"r+	c #BC8E48",
"s+	c #BE9049",
"t+	c #C1934A",
"u+	c #C2944B",
"v+	c #C4954C",
"w+	c #B39D8D",
"x+	c #DFD0A6",
"y+	c #E6D7A3",
"z+	c #ECDF9B",
"A+	c #EFE28F",
"B+	c #F2E682",
"C+	c #F3E877",
"D+	c #F5EA6E",
"E+	c #F5EC6A",
"F+	c #F5EC6B",
"G+	c #F5EA73",
"H+	c #F3E77E",
"I+	c #F1E48C",
"J+	c #EEE19A",
"K+	c #EBDEA5",
"L+	c #E5D6AA",
"                                                                    ",
". . . . . . . . . . . . . . . . . . . . . . . . . . . . . . . . . . ",
"+ @ # $ $ $ $ $ $ $ $ $ $ $ $ $ $ $ $ $ $ $ $ $ $ $ $ $ $ $ # @ + + ",
"+ % & * * * * * * * * * * * * * * * * * * * * * * * * * * * & % + + ",
"= $ - ; ; ; ; ; ; ; ; ; ; ; ; ; ; ; ; ; ; ; ; ; ; ; ; ; ; ; - $ = = ",
"> $ , ' ) ' ! ~ ' ' ~ ' { ) ) ) ' ! ) ' ! ) ! { ' ' ) ) ' ] , $ > > ",
"^ $ / ( _ _ _ _ _ : < [ } } } | _ 1 } } } 2 ( _ : 3 : ( 3 4 / $ ^ ^ ",
"5 $ 6 7 7 7 7 7 7 7 7 } 8 8 8 } 9 } 8 8 8 } 7 7 7 7 7 7 7 7 6 $ 5 5 ",
"0 $ a b c d e c f f e g } h h h } h h h } i j j k j b k c l a $ 0 0 ",
"m $ a n o p p n p p q p r } s s s s s } r t n p n o t p p p a $ m m ",
"u $ v w w w w w w w w w w x } y y y } x w w w w w w w w w w v $ u u ",
"z $ v A B C B D D D C D E } F F F F F } G H B H D D B A D H v $ z z ",
"I $ v J J J J K J K L M } N N N } N N N } O J P K L J Q K J v $ I I ",
"R $ S T U V U V T W V } X X X } Y } X X X } V W T V U U V T S $ R R ",
"Z $ `  .....+.+... . .@.} } } @...#.} } } @. . .+.+.+. ...+.` $ Z Z ",
"$.$ %.&.*.=.=.-.-.*.&.;.>.,.*.&.>.&.,.>.&.,.&.=.>.;.;.&.*.>.%.$ $.$.",
"'.$ ).!.~.!.~.{.].~.^.~.~././.!.^.~.(.^.~.(.{.^.{.^.^.~._.~.).$ '.'.",
":.<.[.}.|.1.2.3.4.5.6.6.6.6.6.6.6.6.6.6.6.6.7.8.9.0.a.b.}.}.[.<.:.:.",
"c.d.% $ $ $ $ $ $ $ $ $ $ $ $ $ $ $ $ $ $ $ $ $ $ $ $ $ $ $ % d.c.c.",
"e.e.e.e.e.e.e.e.e.e.e.e.e.e.e.e.e.e.e.e.e.e.e.e.e.e.e.e.e.e.e.e.e.e.",
"f.f.f.f.f.f.f.f.f.f.f.f.f.f.f.f.f.f.f.f.f.f.f.f.f.f.f.f.f.f.f.f.f.f.",
"g.g.g.g.g.g.g.g.g.g.g.g.g.g.g.g.g.g.g.g.g.g.g.g.g.g.g.g.g.g.g.g.g.g.",
"                                                                    ",
". . . . . . . . . . . . . . . . . . . . . . . . . . . . . . . . . . ",
"+ @ # $ $ $ $ $ $ $ $ $ $ $ $ $ $ $ $ $ $ $ $ $ $ $ $ $ $ $ # @ + + ",
"+ % h.i.j.k.l.m.n.o.p.p.p.p.p.p.p.p.p.p.p.p.p.o.n.m.l.k.j.i.h.% + + ",
"= $ q.r.s.t.u.v.w.x.y.y.y.y.y.y.y.y.y.y.y.y.y.x.w.v.u.t.s.r.q.$ = = ",
"> $ z.A.B.C.D.E.F.G.H.H.H.H.H.H.H.H.H.H.H.H.H.G.F.E.D.C.B.A.z.$ > > ",
"^ $ I.J.K.L.M.N.O.P.Q.R.} } } R.Q.R.} } } R.Q.P.O.N.M.L.K.J.I.$ ^ ^ ",
"5 $ S.T.U.V.W.X.Y.Z.`.} 8 8 8 }  +} 8 8 8 } `.Z.Y.X.W.V.U.T.S.$ 5 5 ",
"0 $ .+++@+#+$+%+&+*+=+-+} h h h } h h h } -+=+*+&+%+$+#+@+++.+$ 0 0 ",
"m $ .+++@+#+$+%+&+*+*+*+;+} s s s s s } ;+*+*+*+&+%+$+#+@+++.+$ m m ",
"u $ >+,+'+)+!+~+{+]+]+]+]+^+} y y y } ^+]+]+]+]+{+~+!+)+'+,+>+$ u u ",
"z $ >+,+'+)+!+~+{+]+/+/+(+} F F F F F } (+/+/+]+{+~+!+)+'+,+>+$ z z ",
"I $ >+,+'+)+!+~+{+]+/+(+} N N N } N N N } (+/+]+{+~+!+)+'+,+>+$ I I ",
"R $ _+:+<+[+}+|+1+2+3+} X X X } 4+} X X X } 3+2+1+|+}+[+<+:+_+$ R R ",
"Z $ 5+6+7+8+9+0+a+b+c+d+} } } d+c+d+} } } d+c+b+a+0+9+8+7+6+5+$ Z Z ",
"$.$ e+f+g+h+i+j+k+l+m+m+m+m+m+m+m+m+m+m+m+m+m+l+k+j+i+h+g+f+e+$ $.$.",
"'.$ n+o+p+q+r+s+t+u+v+v+v+v+v+v+v+v+v+v+v+v+v+u+t+s+r+q+p+o+n+$ '.'.",
":.<.w+x+y+z+A+B+C+D+E+E+E+E+E+E+E+E+E+E+E+E+F+G+H+I+J+K+L+x+w+<.:.:.",
"c.d.% $ $ $ $ $ $ $ $ $ $ $ $ $ $ $ $ $ $ $ $ $ $ $ $ $ $ $ % d.c.c.",
"e.e.e.e.e.e.e.e.e.e.e.e.e.e.e.e.e.e.e.e.e.e.e.e.e.e.e.e.e.e.e.e.e.e.",
"f.f.f.f.f.f.f.f.f.f.f.f.f.f.f.f.f.f.f.f.f.f.f.f.f.f.f.f.f.f.f.f.f.f.",
"g.g.g.g.g.g.g.g.g.g.g.g.g.g.g.g.g.g.g.g.g.g.g.g.g.g.g.g.g.g.g.g.g.g."};
