/* XPM */
static char * closeA_xpm[] = {
"34 44 106 2",
"  	c #9EB9D4",
". 	c #9FBAD6",
"+ 	c #A1BBD7",
"@ 	c #A0A6BC",
"# 	c #5D3D4D",
"$ 	c #431422",
"% 	c #4F2635",
"& 	c #BA9A9B",
"* 	c #F4D3CC",
"= 	c #A2BCD8",
"- 	c #F3D1CA",
"; 	c #E9A99C",
"> 	c #A4BED9",
", 	c #F2CEC8",
"' 	c #E7A699",
") 	c #E8A799",
"! 	c #E8A699",
"~ 	c #E8A69A",
"{ 	c #A5BFDA",
"] 	c #F0CBC4",
"^ 	c #E6A295",
"/ 	c #E6A395",
"( 	c #977A7C",
"_ 	c #535666",
": 	c #E5A295",
"< 	c #A7C0DC",
"[ 	c #EFC8C1",
"} 	c #E49E90",
"| 	c #E49D90",
"1 	c #E39E90",
"2 	c #FFFFFF",
"3 	c #967779",
"4 	c #E39D90",
"5 	c #A8C1DD",
"6 	c #EDC4BD",
"7 	c #E2988B",
"8 	c #E1998B",
"9 	c #E1988C",
"0 	c #E1988B",
"a 	c #957577",
"b 	c #FDFDFD",
"c 	c #E2998B",
"d 	c #E1998C",
"e 	c #A9C3DD",
"f 	c #DF9587",
"g 	c #DF9487",
"h 	c #E09587",
"i 	c #E09487",
"j 	c #947475",
"k 	c #FAFAFA",
"l 	c #ABC4DF",
"m 	c #D99A8E",
"n 	c #B8432C",
"o 	c #824D4B",
"p 	c #E9E9E9",
"q 	c #ACC5E0",
"r 	c #BB4933",
"s 	c #BA4A33",
"t 	c #BB4A33",
"u 	c #BB4A34",
"v 	c #BB4934",
"w 	c #83514E",
"x 	c #E2E2E2",
"y 	c #BA4933",
"z 	c #AEC7E1",
"A 	c #DA9D91",
"B 	c #BF533E",
"C 	c #BF533D",
"D 	c #855553",
"E 	c #DCDCDC",
"F 	c #B0C8E2",
"G 	c #DDA398",
"H 	c #C45E4A",
"I 	c #C35E4B",
"J 	c #C45F4A",
"K 	c #D7D7D7",
"L 	c #875A59",
"M 	c #C45E4B",
"N 	c #B1C9E4",
"O 	c #E0ABA0",
"P 	c #C96A57",
"Q 	c #C96A58",
"R 	c #8A5F5F",
"S 	c #C96957",
"T 	c #B2CBE5",
"U 	c #E4B4AB",
"V 	c #CE7564",
"W 	c #CE7565",
"X 	c #B3CCE6",
"Y 	c #E8BDB5",
"Z 	c #D27F6F",
"` 	c #D27E6F",
" .	c #D37F6F",
"..	c #D37E6F",
"+.	c #D27F6E",
"@.	c #D27E6E",
"#.	c #D37F6E",
"$.	c #B4CDE6",
"%.	c #502938",
"&.	c #BC9A9B",
"*.	c #ECC6C0",
"=.	c #B5CEE7",
"-.	c #9B9FB5",
";.	c #B7CFE8",
">.	c #B8D0E9",
",.	c #B9D1EA",
"                                                                    ",
". . . . . . . . . . . . . . . . . . . . . . . . . . . . . . . . . . ",
"+ @ # $ $ $ $ $ $ $ $ $ $ $ $ $ $ $ $ $ $ $ $ $ $ $ $ $ $ $ # @ + + ",
"+ % & * * * * * * * * * * * * * * * * * * * * * * * * * * * & % + + ",
"= $ - ; ; ; ; ; ; ; ; ; ; ; ; ; ; ; ; ; ; ; ; ; ; ; ; ; ; ; - $ = = ",
"> $ , ' ) ) ! ! ! ' ) ' ' ! ) ' ! ! ! ! ~ ' ) ~ ) ! ! ) ! ! , $ > > ",
"{ $ ] ^ ^ ^ ^ / / ^ ^ ( _ _ _ ( ^ ( _ _ _ ( ^ ^ ^ ^ ^ ^ ^ : ] $ { { ",
"< $ [ } | | 1 | | | | _ 2 2 2 _ 3 _ 2 2 2 _ 4 4 | | | } } | [ $ < < ",
"5 $ 6 7 8 8 9 8 8 0 8 a _ b b b _ b b b _ a c 8 c 8 8 d c 8 6 $ 5 5 ",
"e $ 6 f g f h f f h f i j _ k k k k k _ j f h g h f f f f i 6 $ e e ",
"l $ m n n n n n n n n n n o _ p p p _ o n n n n n n n n n n m $ l l ",
"q $ m r s t s t t u v t w _ x x x x x _ w v r y y u u r r r m $ q q ",
"z $ A B B B B B B C B D _ E E E _ E E E _ D B B B B B B B B A $ z z ",
"F $ G H I I J H H H H _ K K K _ L _ K K K _ M J H J J M H H G $ F F ",
"N $ O P Q Q Q P P Q P R _ _ _ R Q R _ _ _ R P Q P P P S Q Q O $ N N ",
"T $ U V V V V V V V V V V V V V V V V V V V V V V V V W V V U $ T T ",
"X $ Y Z `  ...` ` ` +.Z Z @.#.Z +.+.@.Z +.@.@.@...` ` ..` ` Y $ X X ",
"$.%.&.*.*.*.*.*.*.*.*.*.*.*.*.*.*.*.*.*.*.*.*.*.*.*.*.*.*.*.&.%.$.$.",
"=.-.% $ $ $ $ $ $ $ $ $ $ $ $ $ $ $ $ $ $ $ $ $ $ $ $ $ $ $ % -.=.=.",
";.;.;.;.;.;.;.;.;.;.;.;.;.;.;.;.;.;.;.;.;.;.;.;.;.;.;.;.;.;.;.;.;.;.",
">.>.>.>.>.>.>.>.>.>.>.>.>.>.>.>.>.>.>.>.>.>.>.>.>.>.>.>.>.>.>.>.>.>.",
",.,.,.,.,.,.,.,.,.,.,.,.,.,.,.,.,.,.,.,.,.,.,.,.,.,.,.,.,.,.,.,.,.,.",
"                                                                    ",
". . . . . . . . . . . . . . . . . . . . . . . . . . . . . . . . . . ",
"+ @ # $ $ $ $ $ $ $ $ $ $ $ $ $ $ $ $ $ $ $ $ $ $ $ $ $ $ $ # @ + + ",
"+ % & * * * * * * * * * * * * * * * * * * * * * * * * * * * & % + + ",
"= $ - ; ; ; ; ; ; ; ; ; ; ; ; ; ; ; ; ; ; ; ; ; ; ; ; ; ; ; - $ = = ",
"> $ , ' ) ) ! ! ! ' ) ' ' ! ) ' ! ! ! ! ~ ' ) ~ ) ! ! ) ! ! , $ > > ",
"{ $ ] ^ ^ ^ ^ / / ^ ^ ( _ _ _ ( ^ ( _ _ _ ( ^ ^ ^ ^ ^ ^ ^ : ] $ { { ",
"< $ [ } | | 1 | | | | _ 2 2 2 _ 3 _ 2 2 2 _ 4 4 | | | } } | [ $ < < ",
"5 $ 6 7 8 8 9 8 8 0 8 a _ b b b _ b b b _ a c 8 c 8 8 d c 8 6 $ 5 5 ",
"e $ 6 f g f h f f h f i j _ k k k k k _ j f h g h f f f f i 6 $ e e ",
"l $ m n n n n n n n n n n o _ p p p _ o n n n n n n n n n n m $ l l ",
"q $ m r s t s t t u v t w _ x x x x x _ w v r y y u u r r r m $ q q ",
"z $ A B B B B B B C B D _ E E E _ E E E _ D B B B B B B B B A $ z z ",
"F $ G H I I J H H H H _ K K K _ L _ K K K _ M J H J J M H H G $ F F ",
"N $ O P Q Q Q P P Q P R _ _ _ R Q R _ _ _ R P Q P P P S Q Q O $ N N ",
"T $ U V V V V V V V V V V V V V V V V V V V V V V V V W V V U $ T T ",
"X $ Y Z `  ...` ` ` +.Z Z @.#.Z +.+.@.Z +.@.@.@...` ` ..` ` Y $ X X ",
"$.%.&.*.*.*.*.*.*.*.*.*.*.*.*.*.*.*.*.*.*.*.*.*.*.*.*.*.*.*.&.%.$.$.",
"=.-.% $ $ $ $ $ $ $ $ $ $ $ $ $ $ $ $ $ $ $ $ $ $ $ $ $ $ $ % -.=.=.",
";.;.;.;.;.;.;.;.;.;.;.;.;.;.;.;.;.;.;.;.;.;.;.;.;.;.;.;.;.;.;.;.;.;.",
">.>.>.>.>.>.>.>.>.>.>.>.>.>.>.>.>.>.>.>.>.>.>.>.>.>.>.>.>.>.>.>.>.>.",
",.,.,.,.,.,.,.,.,.,.,.,.,.,.,.,.,.,.,.,.,.,.,.,.,.,.,.,.,.,.,.,.,.,."};
