/* XPM */
static char * frameITR_xpm[] = {
"8 8 16 1",
" 	c None",
".	c #4D4D4D",
"+	c #E2E6EF",
"@	c #DBDEE3",
"#	c #B0B1B1",
"$	c #4E4E4E",
"%	c #BFCDDB",
"&	c #D8DBE1",
"*	c #5E5E5F",
"=	c #BFCEDC",
"-	c #C0CEDC",
";	c #A8A8AB",
">	c #C1CFDD",
",	c #E9ECF3",
"'	c #C1D0DE",
")	c #C2D0DE",
"....    ",
"++@#$.  ",
"%%%%&*. ",
"=====&$ ",
"------;.",
">>>>>>,.",
"'''''',.",
")))))),."};
