/* XPM */
static char * frameABL_xpm[] = {
"8 8 4 1",
" 	c #000000",
".	c #FFFFFF",
"+	c #B9D1EA",
"@	c #28CFE4",
" .++++++",
" .++++++",
" .++++++",
" .++++++",
" .++++++",
" .++++++",
" @@@@@@@",
"        "};
