/* XPM */
static char * frameAL_xpm[] = {
"8 113 76 1",
" 	c #343434",
".	c #FFFFFF",
"+	c #9EB9D4",
"@	c #9FBAD6",
"#	c #A1BBD7",
"$	c #A2BCD8",
"%	c #A4BED9",
"&	c #A5BFDA",
"*	c #A7C0DC",
"=	c #A8C1DD",
"-	c #A9C3DD",
";	c #ABC4DF",
">	c #ACC5E0",
",	c #AEC7E1",
"'	c #B0C8E2",
")	c #B1C9E4",
"!	c #B2CBE5",
"~	c #B3CCE6",
"{	c #B4CDE6",
"]	c #B5CEE7",
"^	c #B7CFE8",
"/	c #B8D0E9",
"(	c #B9D1EA",
"_	c #000000",
":	c #BAD1EA",
"<	c #BAD2EA",
"[	c #BBD2EA",
"}	c #BBD2EB",
"|	c #BBD3EB",
"1	c #BCD3EB",
"2	c #BDD3EB",
"3	c #BDD4EB",
"4	c #BED4EB",
"5	c #BED4EC",
"6	c #BFD5EC",
"7	c #BED5EC",
"8	c #C0D5EC",
"9	c #C0D6EC",
"0	c #C1D6EC",
"a	c #C2D7ED",
"b	c #C3D7ED",
"c	c #C3D8ED",
"d	c #C4D8ED",
"e	c #C5D9ED",
"f	c #C5D9EE",
"g	c #C6D9EE",
"h	c #C7DAEE",
"i	c #C8DBEF",
"j	c #C9DBEF",
"k	c #CADCEF",
"l	c #CBDDEF",
"m	c #CBDDF0",
"n	c #CCDEF0",
"o	c #CDDEF0",
"p	c #CEDFF0",
"q	c #CFDFF1",
"r	c #D0E0F1",
"s	c #D1E1F1",
"t	c #D2E1F1",
"u	c #D3E2F2",
"v	c #D4E2F2",
"w	c #D4E3F2",
"x	c #D5E4F2",
"y	c #D6E4F3",
"z	c #D7E4F3",
"A	c #D7E5F3",
"B	c #D8E5F3",
"C	c #D9E6F3",
"D	c #D8E6F3",
"E	c #D9E6F4",
"F	c #DAE7F4",
"G	c #DAE6F4",
"H	c #DBE7F4",
"I	c #DCE8F4",
"J	c #DCE8F5",
"K	c #C6DAEE",
" .++++++",
" .@@@@@@",
" .######",
" .$$$$$$",
" .%%%%%%",
" .&&&&&&",
" .******",
" .======",
" .------",
" .;;;;;;",
" .>>>>>>",
" .,,,,,,",
" .''''''",
" .))))))",
" .!!!!!!",
" .~~~~~~",
" .{{{{{{",
" .]]]]]]",
" .^^^^^^",
" .//////",
" .((((((",
"_.((((((",
"_.((((((",
"_.((((((",
"_.((((((",
"_.((((((",
"_.((((((",
"_.((((((",
"_.((((((",
"_.((((((",
"_.((((((",
"_.((((((",
"_.((((((",
"_.((((((",
"_.((((((",
"_.((((((",
"_.((((((",
"_.((((((",
"_.((((((",
"_.((((((",
"_.((((((",
"_.((((((",
"_.((((((",
"_.((((((",
"_.:::::(",
"_.:::::(",
"_.<<<<<(",
"_.<<<<<(",
"_.<<<<<(",
"_.<<<<<(",
"_.[[[[[(",
"_.}}}}}(",
"_.}}}}}(",
"_.|||||(",
"_.1111|(",
"_.11111(",
"_.11111(",
"_.22222(",
"_.33333(",
"_.33333(",
"_.44444(",
"_.55555(",
"_.66777(",
"_.66666(",
"_.88888(",
"_.99999(",
"_.90000(",
"_.00000(",
"_.aaaaa(",
"_.aaaaa(",
"_.bbbbb(",
"_.ccccc(",
"_.ddddd(",
"_.eeeee(",
"_.fffff(",
"_.ggggg(",
"_.hhhhh(",
"_.hhhhh(",
"_.iiiii(",
"_.jjjjj(",
"_.kkkkk(",
"_.lllll(",
"_.mmmmm(",
"_.nnnnn(",
"_.ooooo(",
"_.ppppp(",
"_.qqqqq(",
"_.rrrrr(",
"_.rrrrr(",
"_.sssss(",
"_.ttttt(",
"_.uuuuu(",
"_.vvvvv(",
"_.wwwww(",
"_.xxxxx(",
"_.yyyyy(",
"_.zzAzz(",
"_.AAAAA(",
"_.BBBBB(",
"_.CCDDD(",
"_.EEEEE(",
"_.FGGGG(",
"_.FFFFF(",
"_.HHHHH(",
"_.HHHHH(",
"_.IIIII(",
"_.IIIII(",
"_.IIIII(",
"_.JJIJJ(",
"_.HHHHH(",
"_.yyyyy(",
"_.KKKKh(",
"_.:<<<<("};
