/* XPM */
static char * frameAR_xpm[] = {
"8 113 97 2",
"  	c #9EB9D4",
". 	c #9CE5F4",
"+ 	c #343434",
"@ 	c #9FBAD6",
"# 	c #97E4F5",
"$ 	c #A1BBD7",
"% 	c #92E2F4",
"& 	c #A2BCD8",
"* 	c #8DE1F4",
"= 	c #A4BED9",
"- 	c #87E0F4",
"; 	c #A5BFDA",
"> 	c #83DEF4",
", 	c #A7C0DC",
"' 	c #7DDDF4",
") 	c #A8C1DD",
"! 	c #79DCF4",
"~ 	c #A9C3DD",
"{ 	c #73DBF3",
"] 	c #ABC4DF",
"^ 	c #6EDAF3",
"/ 	c #ACC5E0",
"( 	c #69D9F3",
"_ 	c #AEC7E1",
": 	c #64D7F3",
"< 	c #B0C8E2",
"[ 	c #5FD5F3",
"} 	c #B1C9E4",
"| 	c #5BD5F3",
"1 	c #B2CBE5",
"2 	c #56D4F2",
"3 	c #B3CCE6",
"4 	c #52D3F2",
"5 	c #B4CDE6",
"6 	c #4ED2F2",
"7 	c #B5CEE7",
"8 	c #4AD1F3",
"9 	c #B7CFE8",
"0 	c #47D0F2",
"a 	c #B8D0E9",
"b 	c #44CFF2",
"c 	c #B9D1EA",
"d 	c #42CFF2",
"e 	c #3FCEF2",
"f 	c #000000",
"g 	c #BAD1EA",
"h 	c #BAD2EA",
"i 	c #BBD2EA",
"j 	c #BBD2EB",
"k 	c #BBD3EB",
"l 	c #BCD3EB",
"m 	c #BDD3EB",
"n 	c #BDD4EB",
"o 	c #BED4EB",
"p 	c #BED4EC",
"q 	c #BFD5EC",
"r 	c #BED5EC",
"s 	c #C0D5EC",
"t 	c #C0D6EC",
"u 	c #C1D6EC",
"v 	c #C2D7ED",
"w 	c #C3D7ED",
"x 	c #C3D8ED",
"y 	c #C4D8ED",
"z 	c #C5D9ED",
"A 	c #C5D9EE",
"B 	c #C6D9EE",
"C 	c #C7DAEE",
"D 	c #C8DBEF",
"E 	c #C9DBEF",
"F 	c #CADCEF",
"G 	c #CBDDEF",
"H 	c #CBDDF0",
"I 	c #CCDEF0",
"J 	c #CDDEF0",
"K 	c #CEDFF0",
"L 	c #CFDFF1",
"M 	c #D0E0F1",
"N 	c #D1E1F1",
"O 	c #D2E1F1",
"P 	c #D3E2F2",
"Q 	c #D4E2F2",
"R 	c #D4E3F2",
"S 	c #D5E4F2",
"T 	c #D6E4F3",
"U 	c #D7E4F3",
"V 	c #D7E5F3",
"W 	c #D8E5F3",
"X 	c #D9E6F3",
"Y 	c #D8E6F3",
"Z 	c #D9E6F4",
"` 	c #DAE6F4",
" .	c #DAE7F4",
"..	c #DBE7F4",
"+.	c #DCE8F4",
"@.	c #DCE8F5",
"#.	c #C6DAEE",
"            . + ",
"@ @ @ @ @ @ # + ",
"$ $ $ $ $ $ % + ",
"& & & & & & * + ",
"= = = = = = - + ",
"; ; ; ; ; ; > + ",
", , , , , , ' + ",
") ) ) ) ) ) ! + ",
"~ ~ ~ ~ ~ ~ { + ",
"] ] ] ] ] ] ^ + ",
"/ / / / / / ( + ",
"_ _ _ _ _ _ : + ",
"< < < < < < [ + ",
"} } } } } } | + ",
"1 1 1 1 1 1 2 + ",
"3 3 3 3 3 3 4 + ",
"5 5 5 5 5 5 6 + ",
"7 7 7 7 7 7 8 + ",
"9 9 9 9 9 9 0 + ",
"a a a a a a b + ",
"c c c c c c d + ",
"c c c c c c e f ",
"c c c c c c e f ",
"c c c c c c e f ",
"c c c c c c e f ",
"c c c c c c e f ",
"c c c c c c e f ",
"c c c c c c e f ",
"c c c c c c e f ",
"c c c c c c e f ",
"c c c c c c e f ",
"c c c c c c e f ",
"c c c c c c e f ",
"c c c c c c e f ",
"c c c c c c e f ",
"c c c c c c e f ",
"c c c c c c e f ",
"c c c c c c e f ",
"c c c c c c e f ",
"c c c c c c e f ",
"c c c c c c e f ",
"c c c c c c e f ",
"c c c c c c e f ",
"c c c c c c e f ",
"c g g g g g e f ",
"c g g g g g e f ",
"c h h h h h e f ",
"c h h h h h e f ",
"c h h h h h e f ",
"c h h h h h e f ",
"c i i i i i e f ",
"c i j j j j e f ",
"c j j j j j e f ",
"c k k k k k e f ",
"c l l l l l e f ",
"c l l l l l e f ",
"c l l l l l e f ",
"c m m m m m e f ",
"c n n n n n e f ",
"c n n n n n e f ",
"c o o o o o e f ",
"c p p p p p e f ",
"c q r q q q e f ",
"c q q q q q e f ",
"c s s s s s e f ",
"c t t t t t e f ",
"c u u u u u e f ",
"c u u u u u e f ",
"c v v v v v e f ",
"c v v v v v e f ",
"c w w w w w e f ",
"c x x x x x e f ",
"c y y y y y e f ",
"c z z z z z e f ",
"c A A A A A e f ",
"c B B B B B e f ",
"c C C C C C e f ",
"c C C C C C e f ",
"c D D D D D e f ",
"c E E E E E e f ",
"c F F F F F e f ",
"c G G G G G e f ",
"c H H H H H e f ",
"c I I I I I e f ",
"c J J J J J e f ",
"c K K K K K e f ",
"c L L L L L e f ",
"c M M M M M e f ",
"c M M M M M e f ",
"c N N N N N e f ",
"c O O O O O e f ",
"c P P P P P e f ",
"c Q Q Q Q Q e f ",
"c R R R R R e f ",
"c S S T S S e f ",
"c T T T T T e f ",
"c U U U U U e f ",
"c V V V V V e f ",
"c W W W W W e f ",
"c X X Y X X e f ",
"c Z Z Z Z Z e f ",
"c `  .` ` ` e f ",
"c  . . . . .e f ",
"c ..........e f ",
"c ..........e f ",
"c +.+.+.+.+.e f ",
"c +.+.+.+.+.e f ",
"c +.+.+.+.+.e f ",
"c @.@.@.@.@.e f ",
"c ..........e f ",
"c T T T T T e f ",
"c #.#.#.#.C e f ",
"c g h h h h e f "};
