/* XPM */
static char * frameATL_xpm[] = {
"8 8 15 1",
" 	c None",
".	c #343434",
"+	c #424242",
"@	c #B9B9B9",
"#	c #E3E3E3",
"$	c #FFFFFF",
"%	c #8F8F8F",
"&	c #E4E4E4",
"*	c #98B4D0",
"=	c #99B4D1",
"-	c #99B5D1",
";	c #9AB6D2",
">	c #F7F7F7",
",	c #9BB7D3",
"'	c #9DB8D4",
"    ....",
"  .+@#$$",
" .%&****",
" +&=====",
".@------",
".#;;;;;;",
".>,,,,,,",
".$''''''"};
