/* XPM */
static char * frameITL_xpm[] = {
"8 8 16 1",
" 	c None",
".	c #4D4D4D",
"+	c #4E4E4E",
"@	c #8F9091",
"#	c #CCD0D8",
"$	c #E2E6EF",
"%	c #5E5E5F",
"&	c #C9CDD5",
"*	c #BFCDDB",
"=	c #BFCEDC",
"-	c #86868A",
";	c #C0CEDC",
">	c #C1CFDD",
",	c #E9ECF3",
"'	c #C1D0DE",
")	c #C2D0DE",
"    ....",
"  .+@#$$",
" .%&****",
" +&=====",
".-;;;;;;",
".#>>>>>>",
".,''''''",
".,))))))"};
