/* XPM */
static char * maximizeI_xpm[] = {
"33 44 72 1",
" 	c #C3D1DF",
".	c #C4D2E0",
"+	c #C5D3E1",
"@	c #BAC6D6",
"#	c #949FB5",
"$	c #838EA8",
"%	c #8B96AF",
"&	c #BBC4D2",
"*	c #D1DBE5",
"=	c #C6D4E2",
"-	c #CFD9E4",
";	c #BDCBDA",
">	c #C7D5E3",
",	c #848FA9",
"'	c #D1DAE5",
")	c #BECCDB",
"!	c #C8D6E4",
"~	c #D1DCE7",
"{	c #BFCEDD",
"]	c #858E9D",
"^	c #535666",
"/	c #C9D7E5",
"(	c #8590AA",
"_	c #D3DCE7",
":	c #C2D0DF",
"<	c #FCFCFC",
"[	c #CBD8E6",
"}	c #C3D0E0",
"|	c #D4DCE7",
"1	c #CCDAE7",
"2	c #D4DEE8",
"3	c #C4D1E1",
"4	c #D4DDE8",
"5	c #CDDBE8",
"6	c #8591AB",
"7	c #D5DFEA",
"8	c #C5D3E3",
"9	c #E9E9E9",
"0	c #CEDCE9",
"a	c #D5E0EA",
"b	c #C6D3E3",
"c	c #E2E2E2",
"d	c #CFDDEA",
"e	c #8691AB",
"f	c #D6E0EA",
"g	c #C6D4E4",
"h	c #DCDCDC",
"i	c #D0DEEB",
"j	c #D8E1EC",
"k	c #C8D6E5",
"l	c #D7D7D7",
"m	c #D1DFEC",
"n	c #8792AC",
"o	c #C8D6E6",
"p	c #8992A1",
"q	c #D2E0ED",
"r	c #DAE3EE",
"s	c #CBD9E9",
"t	c #D3E1EE",
"u	c #8893AD",
"v	c #DBE5F0",
"w	c #CEDCEB",
"x	c #D4E2EF",
"y	c #929DB5",
"z	c #C6CFDD",
"A	c #DFE8F3",
"B	c #D5E2F0",
"C	c #C9D5E6",
"D	c #919CB5",
"E	c #D6E3F1",
"F	c #D6E4F1",
"G	c #D7E4F2",
"                                 ",
".................................",
"+@#$$$$$$$$$$$$$$$$$$$$$$$$$$$#@+",
"+%&***************************&%+",
"=$-;;;;;;;;;;;;;;;;;;;;;;;;;;;-$=",
">,')))))))))))))))))))))))))))',>",
"!,~{{{{{{{{]^^^^^^^^^]{{{{{{{{~,!",
"/(_::::::::^<<<<<<<<<^::::::::_(/",
"[(_}}}}}}}}^<<<<<<<<<^}}}}}}}}|([",
"1(233333333^<<^^^^^<<^333333334(1",
"56788888888^99^888^99^88888888765",
"06abbbbbbbb^cc^^^^^cc^bbbbbbbb760",
"defgggggggg^hhhhhhhhh^ggggggggaed",
"iejkkkkkkkk^lllllllll^kkkkkkkkjei",
"mnjoooooooop^^^^^^^^^poooooooojnm",
"qnrsssssssssssssssssssssssssssrnq",
"tuvwwwwwwwwwwwwwwwwwwwwwwwwwwwvut",
"xyzAAAAAAAAAAAAAAAAAAAAAAAAAAAzyx",
"BCDuuuuuuuuuuuuuuuuuuuuuuuuuuuDCB",
"EEEEEEEEEEEEEEEEEEEEEEEEEEEEEEEEE",
"FFFFFFFFFFFFFFFFFFFFFFFFFFFFFFFFF",
"GGGGGGGGGGGGGGGGGGGGGGGGGGGGGGGGG",
"                                 ",
".................................",
"+@#$$$$$$$$$$$$$$$$$$$$$$$$$$$#@+",
"+%&***************************&%+",
"=$-;;;;;;;;;;;;;;;;;;;;;;;;;;;-$=",
">,')))))))))))))))))))))))))))',>",
"!,~{{{{{{{{]^^^^^^^^^]{{{{{{{{~,!",
"/(_::::::::^<<<<<<<<<^::::::::_(/",
"[(_}}}}}}}}^<<<<<<<<<^}}}}}}}}|([",
"1(233333333^<<^^^^^<<^333333334(1",
"56788888888^99^888^99^88888888765",
"06abbbbbbbb^cc^^^^^cc^bbbbbbbb760",
"defgggggggg^hhhhhhhhh^ggggggggaed",
"iejkkkkkkkk^lllllllll^kkkkkkkkjei",
"mnjoooooooop^^^^^^^^^poooooooojnm",
"qnrsssssssssssssssssssssssssssrnq",
"tuvwwwwwwwwwwwwwwwwwwwwwwwwwwwvut",
"xyzAAAAAAAAAAAAAAAAAAAAAAAAAAAzyx",
"BCDuuuuuuuuuuuuuuuuuuuuuuuuuuuDCB",
"EEEEEEEEEEEEEEEEEEEEEEEEEEEEEEEEE",
"FFFFFFFFFFFFFFFFFFFFFFFFFFFFFFFFF",
"GGGGGGGGGGGGGGGGGGGGGGGGGGGGGGGGG"};
