/* XPM */
static char * maximizeO_xpm[] = {
"33 44 110 2",
"  	c #9EB9D4",
". 	c #9FBAD6",
"+ 	c #A1BBD7",
"@ 	c #8EA6BD",
"# 	c #627283",
"$ 	c #515E6C",
"% 	c #5A6876",
"& 	c #97B7CB",
"* 	c #D6EBFA",
"= 	c #A2BCD8",
"- 	c #535F6D",
"; 	c #D1E8F9",
"> 	c #AAD5F3",
", 	c #A4BED9",
"' 	c #53606E",
") 	c #CCE6F7",
"! 	c #A0D0F1",
"~ 	c #A5BFDA",
"{ 	c #54616E",
"] 	c #C7E3F6",
"^ 	c #96CBEF",
"/ 	c #6E93AE",
"( 	c #535666",
"_ 	c #A7C0DC",
": 	c #55626F",
"< 	c #C0DFF5",
"[ 	c #8AC4EC",
"} 	c #FCFCFC",
"| 	c #A8C1DD",
"1 	c #566370",
"2 	c #BEDEF4",
"3 	c #86C2EB",
"4 	c #A9C3DD",
"5 	c #BBDDF3",
"6 	c #81C0EA",
"7 	c #ABC4DF",
"8 	c #576371",
"9 	c #8EB4CE",
"0 	c #2D73A3",
"a 	c #E9E9E9",
"b 	c #ACC5E0",
"c 	c #8EB5D0",
"d 	c #2D75A6",
"e 	c #E2E2E2",
"f 	c #AEC7E1",
"g 	c #586471",
"h 	c #8EB7D2",
"i 	c #2C78AB",
"j 	c #DCDCDC",
"k 	c #B0C8E2",
"l 	c #586572",
"m 	c #8EC0DD",
"n 	c #2C89BF",
"o 	c #D7D7D7",
"p 	c #B1C9E4",
"q 	c #596673",
"r 	c #8EC9E6",
"s 	c #2C9AD0",
"t 	c #2C7198",
"u 	c #B2CBE5",
"v 	c #5B6774",
"w 	c #8CD1EE",
"x 	c #29A9DF",
"y 	c #B3CCE6",
"z 	c #5C6875",
"A 	c #89E0F4",
"B 	c #24C6EB",
"C 	c #B4CDE6",
"D 	c #667481",
"E 	c #75CCD3",
"F 	c #85EFF9",
"G 	c #B5CEE7",
"H 	c #A0B5CB",
"I 	c #667381",
"J 	c #5D6976",
"K 	c #B7CFE8",
"L 	c #B8D0E9",
"M 	c #B9D1EA",
"N 	c #7D909C",
"O 	c #ACBEC9",
"P 	c #A7BAC6",
"Q 	c #7F9AAC",
"R 	c #A2B5C1",
"S 	c #7893A5",
"T 	c #9BADBB",
"U 	c #6E889C",
"V 	c #536574",
"W 	c #95A5B4",
"X 	c #647C92",
"Y 	c #93A3B3",
"Z 	c #617A90",
"` 	c #90A2B1",
" .	c #5D778C",
"..	c #667888",
"+.	c #203B52",
"@.	c #657C8B",
"#.	c #203D54",
"$.	c #657F8E",
"%.	c #1F4158",
"&.	c #68939F",
"*.	c #236273",
"=.	c #6BADB4",
"-.	c #278791",
";.	c #2A646D",
">.	c #6EC3C6",
",.	c #2BA8AC",
"'.	c #6BDAD9",
").	c #27C9C8",
"!.	c #5AC4C2",
"~.	c #67E6E4",
"                                                                  ",
". . . . . . . . . . . . . . . . . . . . . . . . . . . . . . . . . ",
"+ @ # $ $ $ $ $ $ $ $ $ $ $ $ $ $ $ $ $ $ $ $ $ $ $ $ $ $ $ # @ + ",
"+ % & * * * * * * * * * * * * * * * * * * * * * * * * * * * & % + ",
"= - ; > > > > > > > > > > > > > > > > > > > > > > > > > > > ; - = ",
", ' ) ! ! ! ! ! ! ! ! ! ! ! ! ! ! ! ! ! ! ! ! ! ! ! ! ! ! ! ) ' , ",
"~ { ] ^ ^ ^ ^ ^ ^ ^ ^ / ( ( ( ( ( ( ( ( ( / ^ ^ ^ ^ ^ ^ ^ ^ ] { ~ ",
"_ : < [ [ [ [ [ [ [ [ ( } } } } } } } } } ( [ [ [ [ [ [ [ [ < : _ ",
"| 1 2 3 3 3 3 3 3 3 3 ( } } } } } } } } } ( 3 3 3 3 3 3 3 3 2 1 | ",
"4 1 5 6 6 6 6 6 6 6 6 ( } } ( ( ( ( ( } } ( 6 6 6 6 6 6 6 6 5 1 4 ",
"7 8 9 0 0 0 0 0 0 0 0 ( a a ( 0 0 0 ( a a ( 0 0 0 0 0 0 0 0 9 8 7 ",
"b 8 c d d d d d d d d ( e e ( ( ( ( ( e e ( d d d d d d d d c 8 b ",
"f g h i i i i i i i i ( j j j j j j j j j ( i i i i i i i i h g f ",
"k l m n n n n n n n n ( o o o o o o o o o ( n n n n n n n n m l k ",
"p q r s s s s s s s s t ( ( ( ( ( ( ( ( ( t s s s s s s s s r q p ",
"u v w x x x x x x x x x x x x x x x x x x x x x x x x x x x w v u ",
"y z A B B B B B B B B B B B B B B B B B B B B B B B B B B B A z y ",
"C D E F F F F F F F F F F F F F F F F F F F F F F F F F F F E D C ",
"G H I J J J J J J J J J J J J J J J J J J J J J J J J J J J I H G ",
"K K K K K K K K K K K K K K K K K K K K K K K K K K K K K K K K K ",
"L L L L L L L L L L L L L L L L L L L L L L L L L L L L L L L L L ",
"M M M M M M M M M M M M M M M M M M M M M M M M M M M M M M M M M ",
"                                                                  ",
". . . . . . . . . . . . . . . . . . . . . . . . . . . . . . . . . ",
"+ @ # $ $ $ $ $ $ $ $ $ $ $ $ $ $ $ $ $ $ $ $ $ $ $ $ $ $ $ $ @ + ",
"+ % N O O O O O O O O O O O O O O O O O O O O O O O O O O O O % + ",
"= - P Q Q Q Q Q Q Q Q Q Q Q Q Q Q Q Q Q Q Q Q Q Q Q Q Q Q Q Q - = ",
", ' R S S S S S S S S S S S S S S S S S S S S S S S S S S S S ' , ",
"~ { T U U U U U U U U V ( ( ( ( ( ( ( ( ( V U U U U U U U U U { ~ ",
"_ : W X X X X X X X X ( } } } } } } } } } ( X X X X X X X X X : _ ",
"| 1 Y Z Z Z Z Z Z Z Z ( } } } } } } } } } ( Z Z Z Z Z Z Z Z Z 1 | ",
"4 1 `  . . . . . . . .( } } ( ( ( ( ( } } (  . . . . . . . . .1 4 ",
"7 8 ..+.+.+.+.+.+.+.+.( a a ( +.+.+.( a a ( +.+.+.+.+.+.+.+.+.8 7 ",
"b 8 @.#.#.#.#.#.#.#.#.( e e ( ( ( ( ( e e ( #.#.#.#.#.#.#.#.#.8 b ",
"f g $.%.%.%.%.%.%.%.%.( j j j j j j j j j ( %.%.%.%.%.%.%.%.%.g f ",
"k l &.*.*.*.*.*.*.*.*.( o o o o o o o o o ( *.*.*.*.*.*.*.*.*.l k ",
"p q =.-.-.-.-.-.-.-.-.;.( ( ( ( ( ( ( ( ( ;.-.-.-.-.-.-.-.-.-.q p ",
"u v >.,.,.,.,.,.,.,.,.,.,.,.,.,.,.,.,.,.,.,.,.,.,.,.,.,.,.,.,.v u ",
"y z '.).).).).).).).).).).).).).).).).).).).).).).).).).).).).z y ",
"C D !.~.~.~.~.~.~.~.~.~.~.~.~.~.~.~.~.~.~.~.~.~.~.~.~.~.~.~.~.D C ",
"G H I J J J J J J J J J J J J J J J J J J J J J J J J J J J J H G ",
"K K K K K K K K K K K K K K K K K K K K K K K K K K K K K K K K K ",
"L L L L L L L L L L L L L L L L L L L L L L L L L L L L L L L L L ",
"M M M M M M M M M M M M M M M M M M M M M M M M M M M M M M M M M "};
