/* XPM */
static char * maximizeA_xpm[] = {
"33 44 77 1",
" 	c #9EB9D4",
".	c #9FBAD6",
"+	c #A1BBD7",
"@	c #91AAC4",
"#	c #6C8099",
"$	c #5D6F88",
"%	c #657690",
"&	c #B9C3D0",
"*	c #DFE8F2",
"=	c #A2BCD8",
"-	c #5F7089",
";	c #C3D4E7",
">	c #A4BED9",
",	c #60718A",
"'	c #DEE7F2",
")	c #C1D3E7",
"!	c #A5BFDA",
"~	c #61718A",
"{	c #C1D3E6",
"]	c #8690A1",
"^	c #535666",
"/	c #A7C0DC",
"(	c #61728B",
"_	c #DDE7F2",
":	c #BFD3E7",
"<	c #FCFCFC",
"[	c #A8C1DD",
"}	c #62738C",
"|	c #BED3E7",
"1	c #A9C3DD",
"2	c #DCE7F2",
"3	c #BFD3E8",
"4	c #DCE7F3",
"5	c #ABC4DF",
"6	c #63748D",
"7	c #C8D5E4",
"8	c #98B1CC",
"9	c #E9E9E9",
"0	c #ACC5E0",
"a	c #C9D6E4",
"b	c #9AB3CD",
"c	c #E2E2E2",
"d	c #C9D6E5",
"e	c #AEC7E1",
"f	c #64758D",
"g	c #CAD7E5",
"h	c #9DB5CF",
"i	c #DCDCDC",
"j	c #CAD7E6",
"k	c #B0C8E2",
"l	c #65768E",
"m	c #CEDCEA",
"n	c #A4BED8",
"o	c #D7D7D7",
"p	c #B1C9E4",
"q	c #66768F",
"r	c #D2E0EE",
"s	c #ACC5DF",
"t	c #7C8A9E",
"u	c #B2CBE5",
"v	c #677890",
"w	c #D6E3F1",
"x	c #B3CCE6",
"y	c #687991",
"z	c #D8E6F3",
"A	c #B7D0E9",
"B	c #B4CDE6",
"C	c #71829B",
"D	c #BECAD8",
"E	c #D9E7F4",
"F	c #B5CEE7",
"G	c #A3BAD3",
"H	c #71829A",
"I	c #697A92",
"J	c #B7CFE8",
"K	c #B8D0E9",
"L	c #B9D1EA",
"                                 ",
".................................",
"+@#$$$$$$$$$$$$$$$$$$$$$$$$$$$#@+",
"+%&***************************&%+",
"=-*;;;;;;;;;;;;;;;;;;;;;;;;;;;*-=",
">,')))))))))))))))))))))))))))',>",
"!~'{{{{{{{{]^^^^^^^^^]{{{{{{{{'~!",
"/(_::::::::^<<<<<<<<<^::::::::_(/",
"[}_||||||||^<<<<<<<<<^||||||||_}[",
"1}233333333^<<^^^^^<<^333333334}1",
"56788888888^99^888^99^88888888765",
"06abbbbbbbb^cc^^^^^cc^bbbbbbbbd60",
"efghhhhhhhh^iiiiiiiii^hhhhhhhhjfe",
"klmnnnnnnnn^ooooooooo^nnnnnnnnmlk",
"pqrsssssssst^^^^^^^^^tssssssssrqp",
"uvwuuuuuuuuuuuuuuuuuuuuuuuuuuuwvu",
"xyzAAAAAAAAAAAAAAAAAAAAAAAAAAAzyx",
"BCDEEEEEEEEEEEEEEEEEEEEEEEEEEEDCB",
"FGHIIIIIIIIIIIIIIIIIIIIIIIIIIIHGF",
"JJJJJJJJJJJJJJJJJJJJJJJJJJJJJJJJJ",
"KKKKKKKKKKKKKKKKKKKKKKKKKKKKKKKKK",
"LLLLLLLLLLLLLLLLLLLLLLLLLLLLLLLLL",
"                                 ",
".................................",
"+@#$$$$$$$$$$$$$$$$$$$$$$$$$$$#@+",
"+%&***************************&%+",
"=-*;;;;;;;;;;;;;;;;;;;;;;;;;;;*-=",
">,')))))))))))))))))))))))))))',>",
"!~'{{{{{{{{]^^^^^^^^^]{{{{{{{{'~!",
"/(_::::::::^<<<<<<<<<^::::::::_(/",
"[}_||||||||^<<<<<<<<<^||||||||_}[",
"1}233333333^<<^^^^^<<^333333334}1",
"56788888888^99^888^99^88888888765",
"06abbbbbbbb^cc^^^^^cc^bbbbbbbbd60",
"efghhhhhhhh^iiiiiiiii^hhhhhhhhjfe",
"klmnnnnnnnn^ooooooooo^nnnnnnnnmlk",
"pqrsssssssst^^^^^^^^^tssssssssrqp",
"uvwuuuuuuuuuuuuuuuuuuuuuuuuuuuwvu",
"xyzAAAAAAAAAAAAAAAAAAAAAAAAAAAzyx",
"BCDEEEEEEEEEEEEEEEEEEEEEEEEEEEDCB",
"FGHIIIIIIIIIIIIIIIIIIIIIIIIIIIHGF",
"JJJJJJJJJJJJJJJJJJJJJJJJJJJJJJJJJ",
"KKKKKKKKKKKKKKKKKKKKKKKKKKKKKKKKK",
"LLLLLLLLLLLLLLLLLLLLLLLLLLLLLLLLL"};
