/* XPM */
static char * minimizeI_xpm[] = {
"33 44 70 1",
" 	c #C3D1DF",
".	c #C4D2E0",
"+	c #C5D3E1",
"@	c #BAC6D6",
"#	c #949FB5",
"$	c #838EA8",
"%	c #8B96AF",
"&	c #BBC4D2",
"*	c #D1DBE5",
"=	c #C6D4E2",
"-	c #CFD9E4",
";	c #BDCBDA",
">	c #C7D5E3",
",	c #848FA9",
"'	c #D1DAE5",
")	c #BECCDB",
"!	c #C8D6E4",
"~	c #D1DCE7",
"{	c #BFCEDD",
"]	c #C9D7E5",
"^	c #8590AA",
"/	c #D3DCE7",
"(	c #C2D0DF",
"_	c #CBD8E6",
":	c #D3DDE8",
"<	c #C3D0DF",
"[	c #D4DDE8",
"}	c #CCDAE7",
"|	c #D4DDE7",
"1	c #C3D0E0",
"2	c #D3DEE8",
"3	c #CDDBE8",
"4	c #8591AB",
"5	c #D5DFEA",
"6	c #C5D3E3",
"7	c #8890A0",
"8	c #535666",
"9	c #CEDCE9",
"0	c #D6E0EA",
"a	c #FFFFFF",
"b	c #D5E0EA",
"c	c #CFDDEA",
"d	c #8691AB",
"e	c #C5D4E3",
"f	c #DCDCDC",
"g	c #D0DEEB",
"h	c #D8E1EC",
"i	c #C8D6E5",
"j	c #D7D7D7",
"k	c #D1DFEC",
"l	c #8792AC",
"m	c #C8D6E6",
"n	c #8992A1",
"o	c #D2E0ED",
"p	c #DAE3EE",
"q	c #CBD9E9",
"r	c #D3E1EE",
"s	c #8893AD",
"t	c #DBE5F0",
"u	c #CEDCEB",
"v	c #D4E2EF",
"w	c #929DB5",
"x	c #C6CFDD",
"y	c #DFE8F3",
"z	c #D5E2F0",
"A	c #C9D5E6",
"B	c #919CB5",
"C	c #D6E3F1",
"D	c #D6E4F1",
"E	c #D7E4F2",
"                                 ",
".................................",
"+@#$$$$$$$$$$$$$$$$$$$$$$$$$$$#@+",
"+%&***************************&%+",
"=$-;;;;;;;;;;;;;;;;;;;;;;;;;;;-$=",
">,')))))))))))))))))))))))))))',>",
"!,~{{{{{{{{{{{{{{{{{{{{{{{{{{{~,!",
"]^/(((((((((((((((((((((((((((/^]",
"_^:<<<<<<<<<<<<<<<<<<<<<<<<<<<[^_",
"}^|1111111111111111111111111112^}",
"345666666667888888888766666666543",
"940666666668aaaaaaaaa866666666b49",
"cdbeeeeeeee8fffffffff8eeeeeeee0dc",
"gdhiiiiiiii8jjjjjjjjj8iiiiiiiihdg",
"klhmmmmmmmmn888888888nmmmmmmmmhlk",
"olpqqqqqqqqqqqqqqqqqqqqqqqqqqqplo",
"rstuuuuuuuuuuuuuuuuuuuuuuuuuuutsr",
"vwxyyyyyyyyyyyyyyyyyyyyyyyyyyyxwv",
"zABsssssssssssssssssssssssssssBAz",
"CCCCCCCCCCCCCCCCCCCCCCCCCCCCCCCCC",
"DDDDDDDDDDDDDDDDDDDDDDDDDDDDDDDDD",
"EEEEEEEEEEEEEEEEEEEEEEEEEEEEEEEEE",
"                                 ",
".................................",
"+@#$$$$$$$$$$$$$$$$$$$$$$$$$$$#@+",
"+%&***************************&%+",
"=$-;;;;;;;;;;;;;;;;;;;;;;;;;;;-$=",
">,')))))))))))))))))))))))))))',>",
"!,~{{{{{{{{{{{{{{{{{{{{{{{{{{{~,!",
"]^/(((((((((((((((((((((((((((/^]",
"_^:<<<<<<<<<<<<<<<<<<<<<<<<<<<[^_",
"}^|1111111111111111111111111112^}",
"345666666667888888888766666666543",
"940666666668aaaaaaaaa866666666b49",
"cdbeeeeeeee8fffffffff8eeeeeeee0dc",
"gdhiiiiiiii8jjjjjjjjj8iiiiiiiihdg",
"klhmmmmmmmmn888888888nmmmmmmmmhlk",
"olpqqqqqqqqqqqqqqqqqqqqqqqqqqqplo",
"rstuuuuuuuuuuuuuuuuuuuuuuuuuuutsr",
"vwxyyyyyyyyyyyyyyyyyyyyyyyyyyyxwv",
"zABsssssssssssssssssssssssssssBAz",
"CCCCCCCCCCCCCCCCCCCCCCCCCCCCCCCCC",
"DDDDDDDDDDDDDDDDDDDDDDDDDDDDDDDDD",
"EEEEEEEEEEEEEEEEEEEEEEEEEEEEEEEEE"};
