/* XPM */
static char * minimizeO_xpm[] = {
"33 44 108 2",
"  	c #9EB9D4",
". 	c #9FBAD6",
"+ 	c #A1BBD7",
"@ 	c #8EA6BD",
"# 	c #627283",
"$ 	c #515E6C",
"% 	c #5A6876",
"& 	c #97B7CB",
"* 	c #D6EBFA",
"= 	c #A2BCD8",
"- 	c #535F6D",
"; 	c #D1E8F9",
"> 	c #AAD5F3",
", 	c #A4BED9",
"' 	c #53606E",
") 	c #CCE6F7",
"! 	c #A0D0F1",
"~ 	c #A5BFDA",
"{ 	c #54616E",
"] 	c #C7E3F6",
"^ 	c #96CBEF",
"/ 	c #A7C0DC",
"( 	c #55626F",
"_ 	c #C0DFF5",
": 	c #8AC4EC",
"< 	c #A8C1DD",
"[ 	c #566370",
"} 	c #BEDEF4",
"| 	c #86C2EB",
"1 	c #A9C3DD",
"2 	c #BBDDF3",
"3 	c #81C0EA",
"4 	c #ABC4DF",
"5 	c #576371",
"6 	c #8EB4CE",
"7 	c #2D73A3",
"8 	c #2C5779",
"9 	c #535666",
"0 	c #ACC5E0",
"a 	c #8EB5D0",
"b 	c #2D75A6",
"c 	c #FFFFFF",
"d 	c #AEC7E1",
"e 	c #586471",
"f 	c #8EB7D2",
"g 	c #2C78AB",
"h 	c #DCDCDC",
"i 	c #B0C8E2",
"j 	c #586572",
"k 	c #8EC0DD",
"l 	c #2C89BF",
"m 	c #D7D7D7",
"n 	c #B1C9E4",
"o 	c #596673",
"p 	c #8EC9E6",
"q 	c #2C9AD0",
"r 	c #2C7198",
"s 	c #B2CBE5",
"t 	c #5B6774",
"u 	c #8CD1EE",
"v 	c #29A9DF",
"w 	c #B3CCE6",
"x 	c #5C6875",
"y 	c #89E0F4",
"z 	c #24C6EB",
"A 	c #B4CDE6",
"B 	c #667481",
"C 	c #75CCD3",
"D 	c #85EFF9",
"E 	c #B5CEE7",
"F 	c #A0B5CB",
"G 	c #667381",
"H 	c #5D6976",
"I 	c #B7CFE8",
"J 	c #B8D0E9",
"K 	c #B9D1EA",
"L 	c #7D909C",
"M 	c #ACBEC9",
"N 	c #A7BAC6",
"O 	c #7F9AAC",
"P 	c #A2B5C1",
"Q 	c #7893A5",
"R 	c #9BADBB",
"S 	c #6E889C",
"T 	c #95A5B4",
"U 	c #647C92",
"V 	c #93A3B3",
"W 	c #617A90",
"X 	c #90A2B1",
"Y 	c #5D778C",
"Z 	c #667888",
"` 	c #203B52",
" .	c #273545",
"..	c #657C8B",
"+.	c #203D54",
"@.	c #657F8E",
"#.	c #1F4158",
"$.	c #68939F",
"%.	c #236273",
"&.	c #6BADB4",
"*.	c #278791",
"=.	c #2A646D",
"-.	c #6EC3C6",
";.	c #2BA8AC",
">.	c #6BDAD9",
",.	c #27C9C8",
"'.	c #5AC4C2",
").	c #67E6E4",
"                                                                  ",
". . . . . . . . . . . . . . . . . . . . . . . . . . . . . . . . . ",
"+ @ # $ $ $ $ $ $ $ $ $ $ $ $ $ $ $ $ $ $ $ $ $ $ $ $ $ $ $ # @ + ",
"+ % & * * * * * * * * * * * * * * * * * * * * * * * * * * * & % + ",
"= - ; > > > > > > > > > > > > > > > > > > > > > > > > > > > ; - = ",
", ' ) ! ! ! ! ! ! ! ! ! ! ! ! ! ! ! ! ! ! ! ! ! ! ! ! ! ! ! ) ' , ",
"~ { ] ^ ^ ^ ^ ^ ^ ^ ^ ^ ^ ^ ^ ^ ^ ^ ^ ^ ^ ^ ^ ^ ^ ^ ^ ^ ^ ^ ] { ~ ",
"/ ( _ : : : : : : : : : : : : : : : : : : : : : : : : : : : _ ( / ",
"< [ } | | | | | | | | | | | | | | | | | | | | | | | | | | | } [ < ",
"1 [ 2 3 3 3 3 3 3 3 3 3 3 3 3 3 3 3 3 3 3 3 3 3 3 3 3 3 3 3 2 [ 1 ",
"4 5 6 7 7 7 7 7 7 7 7 8 9 9 9 9 9 9 9 9 9 8 7 7 7 7 7 7 7 7 6 5 4 ",
"0 5 a b b b b b b b b 9 c c c c c c c c c 9 b b b b b b b b a 5 0 ",
"d e f g g g g g g g g 9 h h h h h h h h h 9 g g g g g g g g f e d ",
"i j k l l l l l l l l 9 m m m m m m m m m 9 l l l l l l l l k j i ",
"n o p q q q q q q q q r 9 9 9 9 9 9 9 9 9 r q q q q q q q q p o n ",
"s t u v v v v v v v v v v v v v v v v v v v v v v v v v v v u t s ",
"w x y z z z z z z z z z z z z z z z z z z z z z z z z z z z y x w ",
"A B C D D D D D D D D D D D D D D D D D D D D D D D D D D D C B A ",
"E F G H H H H H H H H H H H H H H H H H H H H H H H H H H H G F E ",
"I I I I I I I I I I I I I I I I I I I I I I I I I I I I I I I I I ",
"J J J J J J J J J J J J J J J J J J J J J J J J J J J J J J J J J ",
"K K K K K K K K K K K K K K K K K K K K K K K K K K K K K K K K K ",
"                                                                  ",
". . . . . . . . . . . . . . . . . . . . . . . . . . . . . . . . . ",
"+ @ # $ $ $ $ $ $ $ $ $ $ $ $ $ $ $ $ $ $ $ $ $ $ $ $ $ $ $ $ @ + ",
"+ % L M M M M M M M M M M M M M M M M M M M M M M M M M M M M % + ",
"= - N O O O O O O O O O O O O O O O O O O O O O O O O O O O O - = ",
", ' P Q Q Q Q Q Q Q Q Q Q Q Q Q Q Q Q Q Q Q Q Q Q Q Q Q Q Q Q ' , ",
"~ { R S S S S S S S S S S S S S S S S S S S S S S S S S S S S { ~ ",
"/ ( T U U U U U U U U U U U U U U U U U U U U U U U U U U U U ( / ",
"< [ V W W W W W W W W W W W W W W W W W W W W W W W W W W W W [ < ",
"1 [ X Y Y Y Y Y Y Y Y Y Y Y Y Y Y Y Y Y Y Y Y Y Y Y Y Y Y Y Y [ 1 ",
"4 5 Z ` ` ` ` ` ` ` `  .9 9 9 9 9 9 9 9 9  .` ` ` ` ` ` ` ` ` 5 4 ",
"0 5 ..+.+.+.+.+.+.+.+.9 c c c c c c c c c 9 +.+.+.+.+.+.+.+.+.5 0 ",
"d e @.#.#.#.#.#.#.#.#.9 h h h h h h h h h 9 #.#.#.#.#.#.#.#.#.e d ",
"i j $.%.%.%.%.%.%.%.%.9 m m m m m m m m m 9 %.%.%.%.%.%.%.%.%.j i ",
"n o &.*.*.*.*.*.*.*.*.=.9 9 9 9 9 9 9 9 9 =.*.*.*.*.*.*.*.*.*.o n ",
"s t -.;.;.;.;.;.;.;.;.;.;.;.;.;.;.;.;.;.;.;.;.;.;.;.;.;.;.;.;.t s ",
"w x >.,.,.,.,.,.,.,.,.,.,.,.,.,.,.,.,.,.,.,.,.,.,.,.,.,.,.,.,.x w ",
"A B '.).).).).).).).).).).).).).).).).).).).).).).).).).).).).B A ",
"E F G H H H H H H H H H H H H H H H H H H H H H H H H H H H H F E ",
"I I I I I I I I I I I I I I I I I I I I I I I I I I I I I I I I I ",
"J J J J J J J J J J J J J J J J J J J J J J J J J J J J J J J J J ",
"K K K K K K K K K K K K K K K K K K K K K K K K K K K K K K K K K "};
