/* XPM */
static char * minimizeA_xpm[] = {
"33 44 73 1",
" 	c #9EB9D4",
".	c #9FBAD6",
"+	c #A1BBD7",
"@	c #91AAC4",
"#	c #6C8099",
"$	c #5D6F88",
"%	c #657690",
"&	c #B9C3D0",
"*	c #DFE8F2",
"=	c #A2BCD8",
"-	c #5F7089",
";	c #C3D4E7",
">	c #A4BED9",
",	c #60718A",
"'	c #DEE7F2",
")	c #C1D3E7",
"!	c #A5BFDA",
"~	c #61718A",
"{	c #C1D3E6",
"]	c #A7C0DC",
"^	c #61728B",
"/	c #DDE7F2",
"(	c #BFD3E7",
"_	c #A8C1DD",
":	c #62738C",
"<	c #BED3E7",
"[	c #DCE7F3",
"}	c #A9C3DD",
"|	c #DDE7F3",
"1	c #BED3E8",
"2	c #ABC4DF",
"3	c #63748D",
"4	c #C8D5E4",
"5	c #98B1CC",
"6	c #738195",
"7	c #535666",
"8	c #ACC5E0",
"9	c #C9D6E4",
"0	c #9AB2CD",
"a	c #FFFFFF",
"b	c #AEC7E1",
"c	c #64758D",
"d	c #CAD7E5",
"e	c #9CB5CF",
"f	c #DCDCDC",
"g	c #B0C8E2",
"h	c #65768E",
"i	c #CEDCEA",
"j	c #A4BED8",
"k	c #D7D7D7",
"l	c #B1C9E4",
"m	c #66768F",
"n	c #D2E0EE",
"o	c #ACC5DF",
"p	c #7C8A9E",
"q	c #B2CBE5",
"r	c #677890",
"s	c #D6E3F1",
"t	c #B3CCE6",
"u	c #687991",
"v	c #D8E6F3",
"w	c #B7D0E9",
"x	c #B4CDE6",
"y	c #71829B",
"z	c #BECAD8",
"A	c #D9E7F4",
"B	c #B5CEE7",
"C	c #A3BAD3",
"D	c #71829A",
"E	c #697A92",
"F	c #B7CFE8",
"G	c #B8D0E9",
"H	c #B9D1EA",
"                                 ",
".................................",
"+@#$$$$$$$$$$$$$$$$$$$$$$$$$$$#@+",
"+%&***************************&%+",
"=-*;;;;;;;;;;;;;;;;;;;;;;;;;;;*-=",
">,')))))))))))))))))))))))))))',>",
"!~'{{{{{{{{{{{{{{{{{{{{{{{{{{{'~!",
"]^/(((((((((((((((((((((((((((/^]",
"_:/<<<<<<<<<<<<<<<<<<<<<<<<<<<[:_",
"}:|111111111111111111111111111[:}",
"234555555556777777777655555555432",
"839000000007aaaaaaaaa700000000938",
"bcdeeeeeeee7fffffffff7eeeeeeeedcb",
"ghijjjjjjjj7kkkkkkkkk7jjjjjjjjihg",
"lmnoooooooop777777777poooooooonml",
"qrsqqqqqqqqqqqqqqqqqqqqqqqqqqqsrq",
"tuvwwwwwwwwwwwwwwwwwwwwwwwwwwwvut",
"xyzAAAAAAAAAAAAAAAAAAAAAAAAAAAzyx",
"BCDEEEEEEEEEEEEEEEEEEEEEEEEEEEDCB",
"FFFFFFFFFFFFFFFFFFFFFFFFFFFFFFFFF",
"GGGGGGGGGGGGGGGGGGGGGGGGGGGGGGGGG",
"HHHHHHHHHHHHHHHHHHHHHHHHHHHHHHHHH",
"                                 ",
".................................",
"+@#$$$$$$$$$$$$$$$$$$$$$$$$$$$#@+",
"+%&***************************&%+",
"=-*;;;;;;;;;;;;;;;;;;;;;;;;;;;*-=",
">,')))))))))))))))))))))))))))',>",
"!~'{{{{{{{{{{{{{{{{{{{{{{{{{{{'~!",
"]^/(((((((((((((((((((((((((((/^]",
"_:/<<<<<<<<<<<<<<<<<<<<<<<<<<<[:_",
"}:|111111111111111111111111111[:}",
"234555555556777777777655555555432",
"839000000007aaaaaaaaa700000000938",
"bcdeeeeeeee7fffffffff7eeeeeeeedcb",
"ghijjjjjjjj7kkkkkkkkk7jjjjjjjjihg",
"lmnoooooooop777777777poooooooonml",
"qrsqqqqqqqqqqqqqqqqqqqqqqqqqqqsrq",
"tuvwwwwwwwwwwwwwwwwwwwwwwwwwwwvut",
"xyzAAAAAAAAAAAAAAAAAAAAAAAAAAAzyx",
"BCDEEEEEEEEEEEEEEEEEEEEEEEEEEEDCB",
"FFFFFFFFFFFFFFFFFFFFFFFFFFFFFFFFF",
"GGGGGGGGGGGGGGGGGGGGGGGGGGGGGGGGG",
"HHHHHHHHHHHHHHHHHHHHHHHHHHHHHHHHH"};
