/* XPM */
static char * restoreO_xpm[] = {
"33 44 114 2",
"  	c #9EB9D4",
". 	c #9FBAD6",
"+ 	c #A1BBD7",
"@ 	c #8EA6BD",
"# 	c #627283",
"$ 	c #515E6C",
"% 	c #5A6876",
"& 	c #97B7CB",
"* 	c #D6EBFA",
"= 	c #A2BCD8",
"- 	c #535F6D",
"; 	c #D1E8F9",
"> 	c #AAD5F3",
", 	c #A4BED9",
"' 	c #53606E",
") 	c #CCE6F7",
"! 	c #A0D0F1",
"~ 	c #7597AF",
"{ 	c #535666",
"] 	c #A5BFDA",
"^ 	c #54616E",
"/ 	c #C7E3F6",
"( 	c #96CBEF",
"_ 	c #FAFAFA",
": 	c #A7C0DC",
"< 	c #55626F",
"[ 	c #C0DFF5",
"} 	c #8AC4EC",
"| 	c #E9E9E9",
"1 	c #A8C1DD",
"2 	c #566370",
"3 	c #BEDEF4",
"4 	c #86C2EB",
"5 	c #638DAB",
"6 	c #A9C3DD",
"7 	c #BBDDF3",
"8 	c #81C0EA",
"9 	c #E2E2E2",
"0 	c #ABC4DF",
"a 	c #576371",
"b 	c #8EB4CE",
"c 	c #2D73A3",
"d 	c #DCDCDC",
"e 	c #ACC5E0",
"f 	c #8EB5D0",
"g 	c #2D75A6",
"h 	c #D7D7D7",
"i 	c #AEC7E1",
"j 	c #586471",
"k 	c #8EB7D2",
"l 	c #2C78AB",
"m 	c #2C5A7E",
"n 	c #B0C8E2",
"o 	c #586572",
"p 	c #8EC0DD",
"q 	c #2C89BF",
"r 	c #B1C9E4",
"s 	c #596673",
"t 	c #8EC9E6",
"u 	c #2C9AD0",
"v 	c #B2CBE5",
"w 	c #5B6774",
"x 	c #8CD1EE",
"y 	c #29A9DF",
"z 	c #2B7BA3",
"A 	c #B3CCE6",
"B 	c #5C6875",
"C 	c #89E0F4",
"D 	c #24C6EB",
"E 	c #B4CDE6",
"F 	c #667481",
"G 	c #75CCD3",
"H 	c #85EFF9",
"I 	c #B5CEE7",
"J 	c #A0B5CB",
"K 	c #667381",
"L 	c #5D6976",
"M 	c #B7CFE8",
"N 	c #B8D0E9",
"O 	c #B9D1EA",
"P 	c #7D909C",
"Q 	c #ACBEC9",
"R 	c #A7BAC6",
"S 	c #7F9AAC",
"T 	c #A2B5C1",
"U 	c #7893A5",
"V 	c #5A6C7A",
"W 	c #9BADBB",
"X 	c #6E889C",
"Y 	c #95A5B4",
"Z 	c #647C92",
"` 	c #93A3B3",
" .	c #617A90",
"..	c #4A5B6C",
"+.	c #90A2B1",
"@.	c #5D778C",
"#.	c #667888",
"$.	c #203B52",
"%.	c #657C8B",
"&.	c #203D54",
"*.	c #657F8E",
"=.	c #1F4158",
"-.	c #263848",
";.	c #68939F",
">.	c #236273",
",.	c #6BADB4",
"'.	c #278791",
").	c #6EC3C6",
"!.	c #2BA8AC",
"~.	c #2C7B7F",
"{.	c #6BDAD9",
"].	c #27C9C8",
"^.	c #5AC4C2",
"/.	c #67E6E4",
"                                                                  ",
". . . . . . . . . . . . . . . . . . . . . . . . . . . . . . . . . ",
"+ @ # $ $ $ $ $ $ $ $ $ $ $ $ $ $ $ $ $ $ $ $ $ $ $ $ $ $ $ # @ + ",
"+ % & * * * * * * * * * * * * * * * * * * * * * * * * * * * & % + ",
"= - ; > > > > > > > > > > > > > > > > > > > > > > > > > > > ; - = ",
", ' ) ! ! ! ! ! ! ! ! ! ! ! ~ { { { { { { ~ ! ! ! ! ! ! ! ! ) ' , ",
"] ^ / ( ( ( ( ( ( ( ( ( ( ( { _ _ _ _ _ _ { ( ( ( ( ( ( ( ( / ^ ] ",
": < [ } } } } } } } } } } } { | | | | | | { } } } } } } } } [ < : ",
"1 2 3 4 4 4 4 4 4 4 5 { { { { { { { { { | { 4 4 4 4 4 4 4 4 3 2 1 ",
"6 2 7 8 8 8 8 8 8 8 { _ _ _ _ _ _ { 8 { 9 { 8 8 8 8 8 8 8 8 7 2 6 ",
"0 a b c c c c c c c { | | | | | | { { { d { c c c c c c c c b a 0 ",
"e a f g g g g g g g { | { { { { | { h h h { g g g g g g g g f a e ",
"i j k l l l l l l l { 9 { l l { 9 { { { { m l l l l l l l l k j i ",
"n o p q q q q q q q { d { { { { d { q q q q q q q q q q q q p o n ",
"r s t u u u u u u u { h h h h h h { u u u u u u u u u u u u t s r ",
"v w x y y y y y y y z { { { { { { z y y y y y y y y y y y y x w v ",
"A B C D D D D D D D D D D D D D D D D D D D D D D D D D D D C B A ",
"E F G H H H H H H H H H H H H H H H H H H H H H H H H H H H G F E ",
"I J K L L L L L L L L L L L L L L L L L L L L L L L L L L L K J I ",
"M M M M M M M M M M M M M M M M M M M M M M M M M M M M M M M M M ",
"N N N N N N N N N N N N N N N N N N N N N N N N N N N N N N N N N ",
"O O O O O O O O O O O O O O O O O O O O O O O O O O O O O O O O O ",
"                                                                  ",
". . . . . . . . . . . . . . . . . . . . . . . . . . . . . . . . . ",
"+ @ # $ $ $ $ $ $ $ $ $ $ $ $ $ $ $ $ $ $ $ $ $ $ $ $ $ $ $ $ @ + ",
"+ % P Q Q Q Q Q Q Q Q Q Q Q Q Q Q Q Q Q Q Q Q Q Q Q Q Q Q Q Q % + ",
"= - R S S S S S S S S S S S S S S S S S S S S S S S S S S S S - = ",
", ' T U U U U U U U U U U U V { { { { { { V U U U U U U U U U ' , ",
"] ^ W X X X X X X X X X X X { _ _ _ _ _ _ { X X X X X X X X X ^ ] ",
": < Y Z Z Z Z Z Z Z Z Z Z Z { | | | | | | { Z Z Z Z Z Z Z Z Z < : ",
"1 2 `  . . . . . . ...{ { { { { { { { { | {  . . . . . . . . .2 1 ",
"6 2 +.@.@.@.@.@.@.@.{ _ _ _ _ _ _ { @.{ 9 { @.@.@.@.@.@.@.@.@.2 6 ",
"0 a #.$.$.$.$.$.$.$.{ | | | | | | { { { d { $.$.$.$.$.$.$.$.$.a 0 ",
"e a %.&.&.&.&.&.&.&.{ | { { { { | { h h h { &.&.&.&.&.&.&.&.&.a e ",
"i j *.=.=.=.=.=.=.=.{ 9 { =.=.{ 9 { { { { -.=.=.=.=.=.=.=.=.=.j i ",
"n o ;.>.>.>.>.>.>.>.{ d { { { { d { >.>.>.>.>.>.>.>.>.>.>.>.>.o n ",
"r s ,.'.'.'.'.'.'.'.{ h h h h h h { '.'.'.'.'.'.'.'.'.'.'.'.'.s r ",
"v w ).!.!.!.!.!.!.!.~.{ { { { { { ~.!.!.!.!.!.!.!.!.!.!.!.!.!.w v ",
"A B {.].].].].].].].].].].].].].].].].].].].].].].].].].].].].B A ",
"E F ^././././././././././././././././././././././././././././.F E ",
"I J K L L L L L L L L L L L L L L L L L L L L L L L L L L L L J I ",
"M M M M M M M M M M M M M M M M M M M M M M M M M M M M M M M M M ",
"N N N N N N N N N N N N N N N N N N N N N N N N N N N N N N N N N ",
"O O O O O O O O O O O O O O O O O O O O O O O O O O O O O O O O O "};
