/* XPM */
static char * closeA_xpm[] = {
"19 40 6 1",
" 	c #AABAE7",
".	c #FFFFFF",
"+	c #000000",
"@	c #EDEBF7",
"#	c #9E9CA4",
"$	c #434C5E",
"                   ",
"                   ",
" ...............+  ",
" .@@@@@@@@@@@@@#+  ",
" .@@@@@@@@@@@@@#+  ",
" .@@@$$@@@@$$@@#+  ",
" .@@@@$$@@$$@@@#+  ",
" .@@@@@$$$$@@@@#+  ",
" .@@@@@@$$@@@@@#+  ",
" .@@@@@$$$$@@@@#+  ",
" .@@@@$$@@$$@@@#+  ",
" .@@@$$@@@@$$@@#+  ",
" .@@@@@@@@@@@@@#+  ",
" .@@@@@@@@@@@@@#+  ",
" .##############+  ",
" ++++++++++++++++  ",
"                   ",
"                   ",
"@@@@@@@@@@@@@@@@@@@",
"@@@@@@@@@@@@@@@@@@@",
"                   ",
"                   ",
" +++++++++++++++.  ",
" +#############@.  ",
" +#@@@@@@@@@@@@@.  ",
" +#@@@@@@@@@@@@@.  ",
" +#@@@$$@@@@$$@@.  ",
" +#@@@@$$@@$$@@@.  ",
" +#@@@@@$$$$@@@@.  ",
" +#@@@@@@$$@@@@@.  ",
" +#@@@@@$$$$@@@@.  ",
" +#@@@@$$@@$$@@@.  ",
" +#@@@$$@@@@$$@@.  ",
" +#@@@@@@@@@@@@@.  ",
" +@@@@@@@@@@@@@@.  ",
" ................  ",
"                   ",
"                   ",
"@@@@@@@@@@@@@@@@@@@",
"@@@@@@@@@@@@@@@@@@@"};
