/* XPM */
static char * dframeITL_xpm[] = {
"22 22 3 1",
" 	c None",
".	c #EDEBF7",
"+	c #FFFFFF",
"......................",
".+++++++++++++++++++++",
".+....................",
".+.                   ",
".+.                   ",
".+.                   ",
".+.                   ",
".+.                   ",
".+.                   ",
".+.                   ",
".+.                   ",
".+.                   ",
".+.                   ",
".+.                   ",
".+.                   ",
".+.                   ",
".+.                   ",
".+.                   ",
".+.                   ",
".+.                   ",
".+.                   ",
".+.                   "};
