/* XPM */
static char * frameITR_xpm[] = {
"22 22 5 1",
" 	c None",
".	c #EDEBF7",
"+	c #000000",
"@	c #FFFFFF",
"#	c #9E9CA4",
".....................+",
"@@@@@@@@@@@@@@@@@@@@#+",
"....................#+",
"                   .#+",
"                   .#+",
"                   .#+",
"                   .#+",
"                   .#+",
"                   .#+",
"                   .#+",
"                   .#+",
"                   .#+",
"                   .#+",
"                   .#+",
"                   .#+",
"                   .#+",
"                   .#+",
"                   .#+",
"                   .#+",
"                   .#+",
"                   .#+",
"                   .#+"};
