/* XPM */
static char * frameIBL_xpm[] = {
"21 22 5 1",
" 	c None",
".	c #EDEBF7",
"+	c #FFFFFF",
"@	c #9E9CA4",
"#	c #000000",
".+.                  ",
".+.                  ",
".+.                  ",
".+.                  ",
".+.                  ",
".+.                  ",
".+.                  ",
".+.                  ",
".+.                  ",
".+.                  ",
".+.                  ",
".+.                  ",
".+.                  ",
".+.                  ",
".+.                  ",
".+.                  ",
".+.                  ",
".+.                  ",
".+.                  ",
".+...................",
".@@@@@@@@@@@@@@@@@@@@",
"#####################"};
