/* XPM */
static char * restoreI_xpm[] = {
"17 40 5 1",
" 	c #434C5E",
".	c #FFFFFF",
"+	c #000000",
"@	c #EDEBF7",
"#	c #9E9CA4",
"                 ",
"                 ",
"...............+ ",
".@@@@@@@@@@@@@#+ ",
".@@@@      @@@#+ ",
".@@@@      @@@#+ ",
".@@@@ @@@@ @@@#+ ",
".@@      @ @@@#+ ",
".@@      @ @@@#+ ",
".@@ @@@@   @@@#+ ",
".@@ @@@@ @@@@@#+ ",
".@@ @@@@ @@@@@#+ ",
".@@      @@@@@#+ ",
".@@@@@@@@@@@@@#+ ",
".##############+ ",
"++++++++++++++++ ",
"                 ",
"                 ",
"@@@@@@@@@@@@@@@@@",
"@@@@@@@@@@@@@@@@@",
"                 ",
"                 ",
"+++++++++++++++. ",
"+#############@. ",
"+#@@@@@@@@@@@@@. ",
"+#@@@@      @@@. ",
"+#@@@@      @@@. ",
"+#@@@@ @@@@ @@@. ",
"+#@@      @ @@@. ",
"+#@@      @ @@@. ",
"+#@@ @@@@   @@@. ",
"+#@@ @@@@ @@@@@. ",
"+#@@ @@@@ @@@@@. ",
"+#@@      @@@@@. ",
"+@@@@@@@@@@@@@@. ",
"................ ",
"                 ",
"                 ",
"@@@@@@@@@@@@@@@@@",
"@@@@@@@@@@@@@@@@@"};
