/* XPM */
static char * closeI_xpm[] = {
"19 40 5 1",
" 	c #808080",
".	c #FFFFFF",
"+	c #000000",
"@	c #DFDFDF",
"#	c #C0C0C0",
"                   ",
"                   ",
" ...............+  ",
" .@@@@@@@@@@@@@ +  ",
" .@############ +  ",
" .@##++####++## +  ",
" .@###++##++### +  ",
" .@####++++#### +  ",
" .@#####++##### +  ",
" .@####++++#### +  ",
" .@###++##++### +  ",
" .@##++####++## +  ",
" .@############ +  ",
" .@############ +  ",
" .              +  ",
" ++++++++++++++++  ",
"                   ",
"                   ",
"###################",
"###################",
"                   ",
"                   ",
" +++++++++++++++.  ",
" +             @.  ",
" + ############@.  ",
" + ############@.  ",
" + ###++####++#@.  ",
" + ####++##++##@.  ",
" + #####++++###@.  ",
" + ######++####@.  ",
" + #####++++###@.  ",
" + ####++##++##@.  ",
" + ###++####++#@.  ",
" + ############@.  ",
" +@@@@@@@@@@@@@@.  ",
" ................  ",
"                   ",
"                   ",
"###################",
"###################"};
