/* XPM */
static char * dframeABL_xpm[] = {
"21 22 6 1",
" 	c None",
".	c #DFDFDF",
"+	c #FFFFFF",
"@	c #C0C0C0",
"#	c #808080",
"$	c #000000",
".+@                  ",
".+@                  ",
".+@                  ",
".+@                  ",
".+@                  ",
".+@                  ",
".+@                  ",
".+@                  ",
".+@                  ",
".+@                  ",
".+@                  ",
".+@                  ",
".+@                  ",
".+@                  ",
".+@                  ",
".+@                  ",
".+@                  ",
".+@                  ",
".+@                  ",
".+@@@@@@@@@@@@@@@@@@@",
".####################",
"$$$$$$$$$$$$$$$$$$$$$"};
