/* XPM */
static char * dframeITR_xpm[] = {
"22 22 6 1",
" 	c None",
".	c #DFDFDF",
"+	c #000000",
"@	c #FFFFFF",
"#	c #808080",
"$	c #C0C0C0",
".....................+",
"@@@@@@@@@@@@@@@@@@@@#+",
"$$$$$$$$$$$$$$$$$$$$#+",
"                   $#+",
"                   $#+",
"                   $#+",
"                   $#+",
"                   $#+",
"                   $#+",
"                   $#+",
"                   $#+",
"                   $#+",
"                   $#+",
"                   $#+",
"                   $#+",
"                   $#+",
"                   $#+",
"                   $#+",
"                   $#+",
"                   $#+",
"                   $#+",
"                   $#+"};
