/* XPM */
static char * frameIR_xpm[] = {
"3 16 3 1",
" 	c #C0C0C0",
".	c #808080",
"+	c #000000",
" .+",
" .+",
" .+",
" .+",
" .+",
" .+",
" .+",
" .+",
" .+",
" .+",
" .+",
" .+",
" .+",
" .+",
" .+",
" .+"};
