/* XPM */
static char * minimizeI_xpm[] = {
"18 40 5 1",
" 	c #808080",
".	c #FFFFFF",
"+	c #000000",
"@	c #DFDFDF",
"#	c #C0C0C0",
"                  ",
"                  ",
"  ...............+",
"  .@@@@@@@@@@@@@ +",
"  .@############ +",
"  .@############ +",
"  .@############ +",
"  .@############ +",
"  .@############ +",
"  .@############ +",
"  .@############ +",
"  .@##++++++#### +",
"  .@##++++++#### +",
"  .@############ +",
"  .              +",
"  ++++++++++++++++",
"                  ",
"                  ",
"##################",
"##################",
"                  ",
"                  ",
"  +++++++++++++++.",
"  +             @.",
"  + ############@.",
"  + ############@.",
"  + ############@.",
"  + ############@.",
"  + ############@.",
"  + ############@.",
"  + ############@.",
"  + ############@.",
"  + ###++++++###@.",
"  + ###++++++###@.",
"  +@@@@@@@@@@@@@@.",
"  ................",
"                  ",
"                  ",
"##################",
"##################"};
