/* XPM */
static char * restoreI_xpm[] = {
"17 40 5 1",
" 	c #808080",
".	c #FFFFFF",
"+	c #000000",
"@	c #DFDFDF",
"#	c #C0C0C0",
"                 ",
"                 ",
"...............+ ",
".@@@@@@@@@@@@@ + ",
".@###++++++### + ",
".@###++++++### + ",
".@###+####+### + ",
".@#++++++#+### + ",
".@#++++++#+### + ",
".@#+####+++### + ",
".@#+####+##### + ",
".@#+####+##### + ",
".@#++++++##### + ",
".@############ + ",
".              + ",
"++++++++++++++++ ",
"                 ",
"                 ",
"#################",
"#################",
"                 ",
"                 ",
"+++++++++++++++. ",
"+             @. ",
"+ ############@. ",
"+ ####++++++##@. ",
"+ ####++++++##@. ",
"+ ####+####+##@. ",
"+ ##++++++#+##@. ",
"+ ##++++++#+##@. ",
"+ ##+####+++##@. ",
"+ ##+####+####@. ",
"+ ##+####+####@. ",
"+ ##++++++####@. ",
"+@@@@@@@@@@@@@@. ",
"................ ",
"                 ",
"                 ",
"#################",
"#################"};
