/* XPM */
static char * restoreO_xpm[] = {
"17 40 6 1",
" 	c #000080",
".	c #FFFFFF",
"+	c #000000",
"@	c #DFDFDF",
"#	c #808080",
"$	c #C0C0C0",
"                 ",
"                 ",
"...............+ ",
".@@@@@@@@@@@@@#+ ",
".@$$$++++++$$$#+ ",
".@$$$++++++$$$#+ ",
".@$$$+$$$$+$$$#+ ",
".@$++++++$+$$$#+ ",
".@$++++++$+$$$#+ ",
".@$+$$$$+++$$$#+ ",
".@$+$$$$+$$$$$#+ ",
".@$+$$$$+$$$$$#+ ",
".@$++++++$$$$$#+ ",
".@$$$$$$$$$$$$#+ ",
".##############+ ",
"++++++++++++++++ ",
"                 ",
"                 ",
"$$$$$$$$$$$$$$$$$",
"$$$$$$$$$$$$$$$$$",
"                 ",
"                 ",
"+++++++++++++++. ",
"+#############@. ",
"+#$$$$$$$$$$$$@. ",
"+#$$$$++++++$$@. ",
"+#$$$$++++++$$@. ",
"+#$$$$+$$$$+$$@. ",
"+#$$++++++$+$$@. ",
"+#$$++++++$+$$@. ",
"+#$$+$$$$+++$$@. ",
"+#$$+$$$$+$$$$@. ",
"+#$$+$$$$+$$$$@. ",
"+#$$++++++$$$$@. ",
"+@@@@@@@@@@@@@@. ",
"................ ",
"                 ",
"                 ",
"$$$$$$$$$$$$$$$$$",
"$$$$$$$$$$$$$$$$$"};
