/* XPM */
static char * dframeITR_xpm[] = {
"16 16 2 1",
" 	c None",
".	c #E68AC1",
"................",
"................",
"              ..",
"              ..",
"              ..",
"              ..",
"              ..",
"              ..",
"              ..",
"              ..",
"              ..",
"              ..",
"              ..",
"              ..",
"              ..",
"              .."};
