/* XPM */
static char * dframeITL_xpm[] = {
"16 16 2 1",
" 	c None",
".	c #E68AC1",
"................",
"................",
"..              ",
"..              ",
"..              ",
"..              ",
"..              ",
"..              ",
"..              ",
"..              ",
"..              ",
"..              ",
"..              ",
"..              ",
"..              ",
"..              "};
