/* XPM */
static char * frameABR_xpm[] = {
"16 16 2 1",
" 	c None",
".	c #ED3F7F",
"              ..",
"              ..",
"              ..",
"              ..",
"              ..",
"              ..",
"              ..",
"              ..",
"              ..",
"              ..",
"              ..",
"              ..",
"              ..",
"              ..",
"................",
"................"};
