/* XPM */
static char * helpI_xpm[] = {
"19 40 6 1",
" 	c #302838",
".	c #382E41",
"+	c #000000",
"@	c #2A2331",
"#	c #1C1720",
"$	c #E68AC1",
"                   ",
"                   ",
" ...............+  ",
" .@@@@@@@@@@@@@#+  ",
" .@@@@@$$$$@@@@#+  ",
" .@@@@$$@@$$@@@#+  ",
" .@@@@$$@@$$@@@#+  ",
" .@@@@@@@$$@@@@#+  ",
" .@@@@@@$$@@@@@#+  ",
" .@@@@@@$$@@@@@#+  ",
" .@@@@@@@@@@@@@#+  ",
" .@@@@@@$$@@@@@#+  ",
" .@@@@@@$$@@@@@#+  ",
" .@@@@@@@@@@@@@#+  ",
" .##############+  ",
" ++++++++++++++++  ",
"                   ",
"                   ",
"$$$$$$$$$$$$$$$$$$$",
"$$$$$$$$$$$$$$$$$$$",
"                   ",
"                   ",
" +++++++++++++++.  ",
" +#############@.  ",
" +#@@@@@@@@@@@@@.  ",
" +#@@@@@$$$$@@@@.  ",
" +#@@@@$$@@$$@@@.  ",
" +#@@@@$$@@$$@@@.  ",
" +#@@@@@@@$$@@@@.  ",
" +#@@@@@@$$@@@@@.  ",
" +#@@@@@@$$@@@@@.  ",
" +#@@@@@@@@@@@@@.  ",
" +#@@@@@@$$@@@@@.  ",
" +#@@@@@@$$@@@@@.  ",
" +@@@@@@@@@@@@@@.  ",
" ................  ",
"                   ",
"                   ",
"$$$$$$$$$$$$$$$$$$$",
"$$$$$$$$$$$$$$$$$$$"};
