/* XPM */
static char * menuButtonA_xpm[] = {
"19 38 6 1",
" 	c #09246A",
".	c #0A2468",
"+	c #0A2469",
"@	c #0A246A",
"#	c #092469",
"$	c #D4D0C8",
"     . +@@@@@++@@@@",
"      ++@@@@@++@@@@",
"    ++++@@@@@++@@@@",
"    ++@+@@@@@++@@@@",
"    ++@@@@@@++++@@@",
"    ++@@@@@@++++@@@",
"    ++@@@@@+@+++@@@",
"    ++++++++++.++++",
" . ...+++++++..++++",
". . .+++++++++.++++",
"## .+++++++++++++++",
"##. +++++++++++++++",
"##    @@++@@@++@@@@",
"##  ++@@++@@@++@@@@",
"#   +++@+@@@@++@@@@",
"    ++++@@@@@++@@@@",
"@@@@++@@@@@@@++@@@@",
"@@@@++@@@@@@@++@@@@",
"$$$$$$$$$$$$$$$$$$$",
"@@@@++@@@@@@@++@@@@",
"@@@@++@@@@@@@++@@@@",
"@@@@++@@@@@@@++@@@@",
"@@@@++@@@@@@@+++@@@",
"@@@@++@@@@@@@+++@@@",
"@@@@++@@@@@@@+++@@@",
"@@@@++@@@@@@@+++@@@",
"+++++++++++++++++++",
"+++++++++++++++++++",
"+++++.+++++++++++++",
"++++..+++++++++++++",
"+++++++++++++.+++++",
"+++++++++++++++@@@@",
"+@@@++@@@@@@@++@@@@",
"@@@@++@@@@@@@++@@@@",
"@@@@++@@@@@@@++@@@@",
"@@@@++@@@@@@@++@@@@",
"@@@@++@@@@@@@++@@@@",
"$$$$$$$$$$$$$$$$$$$"};
