/* XPM */
static char * taskbuttonbg_xpm[] = {
"162 28 4 1",
" 	c #FFFFFF",
".	c #D4D0C8",
"+	c #404040",
"@	c #808080",
"                                                                                                                                                                  ",
"..................................................................................................................................................................",
"..................................................................................................................................................................",
".                                                                                                                                                               +.",
". .............................................................................................................................................................@+.",
". .............................................................................................................................................................@+.",
". .............................................................................................................................................................@+.",
". .............................................................................................................................................................@+.",
". .............................................................................................................................................................@+.",
". .............................................................................................................................................................@+.",
". .............................................................................................................................................................@+.",
". .............................................................................................................................................................@+.",
". .............................................................................................................................................................@+.",
". .............................................................................................................................................................@+.",
". .............................................................................................................................................................@+.",
". .............................................................................................................................................................@+.",
". .............................................................................................................................................................@+.",
". .............................................................................................................................................................@+.",
". .............................................................................................................................................................@+.",
". .............................................................................................................................................................@+.",
". .............................................................................................................................................................@+.",
". .............................................................................................................................................................@+.",
". .............................................................................................................................................................@+.",
". @@@@@@@@@@@@@@@@@@@@@@@@@@@@@@@@@@@@@@@@@@@@@@@@@@@@@@@@@@@@@@@@@@@@@@@@@@@@@@@@@@@@@@@@@@@@@@@@@@@@@@@@@@@@@@@@@@@@@@@@@@@@@@@@@@@@@@@@@@@@@@@@@@@@@@@@@@@@@@+.",
".++++++++++++++++++++++++++++++++++++++++++++++++++++++++++++++++++++++++++++++++++++++++++++++++++++++++++++++++++++++++++++++++++++++++++++++++++++++++++++++++.",
"..................................................................................................................................................................",
"..................................................................................................................................................................",
".................................................................................................................................................................."};
