/* XPM */
static char * frameIBR_xpm[] = {
"22 22 4 1",
" 	c None",
".	c #EDEBF7",
"+	c #9E9CA4",
"@	c #000000",
"                   .+@",
"                   .+@",
"                   .+@",
"                   .+@",
"                   .+@",
"                   .+@",
"                   .+@",
"                   .+@",
"                   .+@",
"                   .+@",
"                   .+@",
"                   .+@",
"                   .+@",
"                   .+@",
"                   .+@",
"                   .+@",
"                   .+@",
"                   .+@",
"                   .+@",
"....................+@",
"+++++++++++++++++++++@",
"@@@@@@@@@@@@@@@@@@@@@@"};
