/* XPM */
static char * closeI_xpm[] = {
"60 120 62 1",
" 	c #FCFCFC",
".	c #FAFAFA",
"+	c #FFFFFF",
"@	c #F9F9F9",
"#	c #C18FC4",
"$	c #F2E7F3",
"%	c #ECDDED",
"&	c #C99DCC",
"*	c #CDA4CF",
"=	c #8D3194",
"-	c #A863AD",
";	c #A45CAA",
">	c #903796",
",	c #DBBDDD",
"'	c #C597C9",
")	c #86258D",
"!	c #F4EAF4",
"~	c #EADAEC",
"{	c #A35AA9",
"]	c #8C3093",
"^	c #D0ABD3",
"/	c #C596C8",
"(	c #AA65AF",
"_	c #F3EAF4",
":	c #EBDAEC",
"<	c #A45AA9",
"[	c #8C2F92",
"}	c #D0AAD2",
"|	c #AA66AF",
"1	c #A258A8",
"2	c #8A2C91",
"3	c #D0AAD3",
"4	c #C495C7",
"5	c #831F8A",
"6	c #D0A9D2",
"7	c #EBDCEC",
"8	c #A55CAA",
"9	c #8A2B91",
"0	c #84218B",
"a	c #AB67B0",
"b	c #F4EBF5",
"c	c #ECDCED",
"d	c #A45BA9",
"e	c #CEA5D0",
"f	c #C392C6",
"g	c #85238C",
"h	c #AC68B0",
"i	c #F4ECF5",
"j	c #EBDBEC",
"k	c #A35AA8",
"l	c #8A2B90",
"m	c #CDA5D0",
"n	c #AD6AB1",
"o	c #CCA3CF",
"p	c #AD6BB2",
"q	c #F5EDF5",
"r	c #E3CDE5",
"s	c #97439D",
"t	c #9D4EA2",
"u	c #E6D2E8",
"v	c #E9D7EA",
"w	c #F9F9F7",
"                                                           .",
"+++++++++++++++++++++++++++++++++++++++++++++++++++++++++++@",
"+++++++++++++++++++++++++++++++++++++++++++++++++++++++++++@",
"+++++++++++++++++++++++++++++++++++++++++++++++++++++++++++@",
"+++++++++++++++++++++++++++++++++++++++++++++++++++++++++++@",
"+++++++++++++++++++++++++++++++++++++++++++++++++++++++++++@",
"+++++++++++++++++++++++++++++++++++++++++++++++++++++++++++@",
"+++++++++++++++++++++++++++++++++++++++++++++++++++++++++++@",
"+++++++++++++++++++++++++++++++++++++++++++++++++++++++++++@",
"+++++++++++++++++++++++++++++++++++++++++++++++++++++++++++@",
"+++++++++++++++++++++++++++++++++++++++++++++++++++++++++++@",
"+++++++++++++++++++++++++++++++++++++++++++++++++++++++++++@",
"+++++++++++++++++++++++++++++++++++++++++++++++++++++++++++@",
"+++++++++++++++++++++++++++++++++++++++++++++++++++++++++++@",
"+++++++++++++++++++++++++++++++++++++++++++++++++++++++++++@",
"+++++++++++++++++++++++++++++++++++++++++++++++++++++++++++@",
"+++++++++++++++++++++++++++++++++++++++++++++++++++++++++++@",
"+++++++++++++++++++++++++++++++++++++++++++++++++++++++++++@",
"+++++++++++++++++++++++++++++++++++++++++++++++++++++++++++@",
"+++++++++++++++++++++++++++++++++++++++++++++++++++++++++++@",
"+++++++++++++++++++++++++++++++++++++++++++++++++++++++++++@",
"+++++++++++++++++++++++++++++++++++++++++++++++++++++++++++@",
"+++++++++++++++++++++++++++++++++++++++++++++++++++++++++++@",
"+++++++++++++++++++++++++++++++++++++++++++++++++++++++++++@",
"+++++++++++++++++++++++++++++++++++++++++++++++++++++++++++@",
"+++++++++++++++++++++++++++++++++++++++++++++++++++++++++++@",
"+++++++++++++++++#$++++++%&++++++++++++++++++++++++++++++++@",
"++++++++++++++++*=-$++++%;>,+++++++++++++++++++++++++++++++@",
"+++++++++++++++++')-!++~{]^++++++++++++++++++++++++++++++++@",
"++++++++++++++++++/)(_:<[}+++++++++++++++++++++++++++++++++@",
"+++++++++++++++++++/)|123++++++++++++++++++++++++++++++++++@",
"++++++++++++++++++++4556+++++++++++++++++++++++++++++++++++@",
"+++++++++++++++++++7890ab++++++++++++++++++++++++++++++++++@",
"++++++++++++++++++cd2efghi+++++++++++++++++++++++++++++++++@",
"+++++++++++++++++jklm++f0ni++++++++++++++++++++++++++++++++@",
"++++++++++++++++j<9o++++40pq+++++++++++++++++++++++++++++++@",
"++++++++++++++++rso++++++4tu+++++++++++++++++++++++++++++++@",
"+++++++++++++++++v++++++++v++++++++++++++++++++++++++++++++@",
"+++++++++++++++++++++++++++++++++++++++++++++++++++++++++++@",
"+++++++++++++++++++++++++++++++++++++++++++++++++++++++++++@",
"+++++++++++++++++++++++++++++++++++++++++++++++++++++++++++@",
"+++++++++++++++++++++++++++++++++++++++++++++++++++++++++++@",
"+++++++++++++++++++++++++++++++++++++++++++++++++++++++++++@",
"+++++++++++++++++++++++++++++++++++++++++++++++++++++++++++@",
"+++++++++++++++++++++++++++++++++++++++++++++++++++++++++++@",
"+++++++++++++++++++++++++++++++++++++++++++++++++++++++++++@",
"+++++++++++++++++++++++++++++++++++++++++++++++++++++++++++@",
"+++++++++++++++++++++++++++++++++++++++++++++++++++++++++++@",
"+++++++++++++++++++++++++++++++++++++++++++++++++++++++++++@",
"+++++++++++++++++++++++++++++++++++++++++++++++++++++++++++@",
"+++++++++++++++++++++++++++++++++++++++++++++++++++++++++++w",
"+++++++++++++++++++++++++++++++++++++++++++++++++++++++++++w",
"+++++++++++++++++++++++++++++++++++++++++++++++++++++++++++w",
"+++++++++++++++++++++++++++++++++++++++++++++++++++++++++++w",
"+++++++++++++++++++++++++++++++++++++++++++++++++++++++++++w",
"+++++++++++++++++++++++++++++++++++++++++++++++++++++++++++w",
"+++++++++++++++++++++++++++++++++++++++++++++++++++++++++++w",
"+++++++++++++++++++++++++++++++++++++++++++++++++++++++++++w",
"+++++++++++++++++++++++++++++++++++++++++++++++++++++++++++w",
"+++++++++++++++++++++++++++++++++++++++++++++++++++++++++++w",
"                                                           .",
"+++++++++++++++++++++++++++++++++++++++++++++++++++++++++++@",
"+++++++++++++++++++++++++++++++++++++++++++++++++++++++++++@",
"+++++++++++++++++++++++++++++++++++++++++++++++++++++++++++@",
"+++++++++++++++++++++++++++++++++++++++++++++++++++++++++++@",
"+++++++++++++++++++++++++++++++++++++++++++++++++++++++++++@",
"+++++++++++++++++++++++++++++++++++++++++++++++++++++++++++@",
"+++++++++++++++++++++++++++++++++++++++++++++++++++++++++++@",
"+++++++++++++++++++++++++++++++++++++++++++++++++++++++++++@",
"+++++++++++++++++++++++++++++++++++++++++++++++++++++++++++@",
"+++++++++++++++++++++++++++++++++++++++++++++++++++++++++++@",
"+++++++++++++++++++++++++++++++++++++++++++++++++++++++++++@",
"+++++++++++++++++++++++++++++++++++++++++++++++++++++++++++@",
"+++++++++++++++++++++++++++++++++++++++++++++++++++++++++++@",
"+++++++++++++++++++++++++++++++++++++++++++++++++++++++++++@",
"+++++++++++++++++++++++++++++++++++++++++++++++++++++++++++@",
"+++++++++++++++++++++++++++++++++++++++++++++++++++++++++++@",
"+++++++++++++++++++++++++++++++++++++++++++++++++++++++++++@",
"+++++++++++++++++++++++++++++++++++++++++++++++++++++++++++@",
"+++++++++++++++++++++++++++++++++++++++++++++++++++++++++++@",
"+++++++++++++++++++++++++++++++++++++++++++++++++++++++++++@",
"+++++++++++++++++++++++++++++++++++++++++++++++++++++++++++@",
"+++++++++++++++++++++++++++++++++++++++++++++++++++++++++++@",
"+++++++++++++++++++++++++++++++++++++++++++++++++++++++++++@",
"+++++++++++++++++++++++++++++++++++++++++++++++++++++++++++@",
"+++++++++++++++++++++++++++++++++++++++++++++++++++++++++++@",
"+++++++++++++++++#$++++++%&++++++++++++++++++++++++++++++++@",
"++++++++++++++++*=-$++++%;>,+++++++++++++++++++++++++++++++@",
"+++++++++++++++++')-!++~{]^++++++++++++++++++++++++++++++++@",
"++++++++++++++++++/)(_:<[}+++++++++++++++++++++++++++++++++@",
"+++++++++++++++++++/)|123++++++++++++++++++++++++++++++++++@",
"++++++++++++++++++++4556+++++++++++++++++++++++++++++++++++@",
"+++++++++++++++++++7890ab++++++++++++++++++++++++++++++++++@",
"++++++++++++++++++cd2efghi+++++++++++++++++++++++++++++++++@",
"+++++++++++++++++jklm++f0ni++++++++++++++++++++++++++++++++@",
"++++++++++++++++j<9o++++40pq+++++++++++++++++++++++++++++++@",
"++++++++++++++++rso++++++4tu+++++++++++++++++++++++++++++++@",
"+++++++++++++++++v++++++++v++++++++++++++++++++++++++++++++@",
"+++++++++++++++++++++++++++++++++++++++++++++++++++++++++++@",
"+++++++++++++++++++++++++++++++++++++++++++++++++++++++++++@",
"+++++++++++++++++++++++++++++++++++++++++++++++++++++++++++@",
"+++++++++++++++++++++++++++++++++++++++++++++++++++++++++++@",
"+++++++++++++++++++++++++++++++++++++++++++++++++++++++++++@",
"+++++++++++++++++++++++++++++++++++++++++++++++++++++++++++@",
"+++++++++++++++++++++++++++++++++++++++++++++++++++++++++++@",
"+++++++++++++++++++++++++++++++++++++++++++++++++++++++++++@",
"+++++++++++++++++++++++++++++++++++++++++++++++++++++++++++@",
"+++++++++++++++++++++++++++++++++++++++++++++++++++++++++++@",
"+++++++++++++++++++++++++++++++++++++++++++++++++++++++++++@",
"+++++++++++++++++++++++++++++++++++++++++++++++++++++++++++@",
"+++++++++++++++++++++++++++++++++++++++++++++++++++++++++++w",
"+++++++++++++++++++++++++++++++++++++++++++++++++++++++++++w",
"+++++++++++++++++++++++++++++++++++++++++++++++++++++++++++w",
"+++++++++++++++++++++++++++++++++++++++++++++++++++++++++++w",
"+++++++++++++++++++++++++++++++++++++++++++++++++++++++++++w",
"+++++++++++++++++++++++++++++++++++++++++++++++++++++++++++w",
"+++++++++++++++++++++++++++++++++++++++++++++++++++++++++++w",
"+++++++++++++++++++++++++++++++++++++++++++++++++++++++++++w",
"+++++++++++++++++++++++++++++++++++++++++++++++++++++++++++w",
"+++++++++++++++++++++++++++++++++++++++++++++++++++++++++++w"};
