/* XPM */
static char * dframeAB_xpm[] = {
"16 3 3 1",
" 	c #EDEBF7",
".	c #9E9CA4",
"+	c #000000",
"                ",
"................",
"++++++++++++++++"};
